G04 EAGLE Gerber RS-274X export*
G75*
%MOMM*%
%FSLAX34Y34*%
%LPD*%
%INSoldermask Bottom*%
%IPPOS*%
%AMOC8*
5,1,8,0,0,1.08239X$1,22.5*%
G01*
%ADD10C,3.505200*%
%ADD11R,1.473200X0.863600*%
%ADD12C,2.082800*%
%ADD13C,0.838200*%
%ADD14R,1.473200X0.838200*%
%ADD15R,0.863600X1.473200*%
%ADD16C,1.203200*%
%ADD17C,1.270000*%
%ADD18C,1.703200*%

G36*
X566993Y425462D02*
X566993Y425462D01*
X567059Y425464D01*
X567102Y425482D01*
X567149Y425490D01*
X567206Y425524D01*
X567266Y425549D01*
X567301Y425580D01*
X567342Y425605D01*
X567384Y425656D01*
X567432Y425700D01*
X567454Y425742D01*
X567483Y425779D01*
X567504Y425841D01*
X567535Y425900D01*
X567543Y425954D01*
X567555Y425991D01*
X567554Y426031D01*
X567562Y426085D01*
X567562Y429895D01*
X567551Y429960D01*
X567549Y430026D01*
X567531Y430069D01*
X567523Y430116D01*
X567489Y430173D01*
X567464Y430233D01*
X567433Y430268D01*
X567408Y430309D01*
X567357Y430351D01*
X567313Y430399D01*
X567271Y430421D01*
X567234Y430450D01*
X567172Y430471D01*
X567113Y430502D01*
X567059Y430510D01*
X567022Y430522D01*
X566982Y430521D01*
X566928Y430529D01*
X564388Y430529D01*
X564323Y430518D01*
X564257Y430516D01*
X564214Y430498D01*
X564167Y430490D01*
X564110Y430456D01*
X564050Y430431D01*
X564015Y430400D01*
X563974Y430375D01*
X563933Y430324D01*
X563884Y430280D01*
X563862Y430238D01*
X563833Y430201D01*
X563812Y430139D01*
X563781Y430080D01*
X563773Y430026D01*
X563761Y429989D01*
X563761Y429985D01*
X563761Y429984D01*
X563762Y429949D01*
X563754Y429895D01*
X563754Y426085D01*
X563765Y426020D01*
X563767Y425954D01*
X563785Y425911D01*
X563793Y425864D01*
X563827Y425807D01*
X563852Y425747D01*
X563883Y425712D01*
X563908Y425671D01*
X563959Y425630D01*
X564003Y425581D01*
X564045Y425559D01*
X564082Y425530D01*
X564144Y425509D01*
X564203Y425478D01*
X564257Y425470D01*
X564294Y425458D01*
X564334Y425459D01*
X564388Y425451D01*
X566928Y425451D01*
X566993Y425462D01*
G37*
G36*
X48833Y425462D02*
X48833Y425462D01*
X48899Y425464D01*
X48942Y425482D01*
X48989Y425490D01*
X49046Y425524D01*
X49106Y425549D01*
X49141Y425580D01*
X49182Y425605D01*
X49224Y425656D01*
X49272Y425700D01*
X49294Y425742D01*
X49323Y425779D01*
X49344Y425841D01*
X49375Y425900D01*
X49383Y425954D01*
X49395Y425991D01*
X49394Y426031D01*
X49402Y426085D01*
X49402Y429895D01*
X49391Y429960D01*
X49389Y430026D01*
X49371Y430069D01*
X49363Y430116D01*
X49329Y430173D01*
X49304Y430233D01*
X49273Y430268D01*
X49248Y430309D01*
X49197Y430351D01*
X49153Y430399D01*
X49111Y430421D01*
X49074Y430450D01*
X49012Y430471D01*
X48953Y430502D01*
X48899Y430510D01*
X48862Y430522D01*
X48822Y430521D01*
X48768Y430529D01*
X46228Y430529D01*
X46163Y430518D01*
X46097Y430516D01*
X46054Y430498D01*
X46007Y430490D01*
X45950Y430456D01*
X45890Y430431D01*
X45855Y430400D01*
X45814Y430375D01*
X45773Y430324D01*
X45724Y430280D01*
X45702Y430238D01*
X45673Y430201D01*
X45652Y430139D01*
X45621Y430080D01*
X45613Y430026D01*
X45601Y429989D01*
X45601Y429985D01*
X45601Y429984D01*
X45602Y429949D01*
X45594Y429895D01*
X45594Y426085D01*
X45605Y426020D01*
X45607Y425954D01*
X45625Y425911D01*
X45633Y425864D01*
X45667Y425807D01*
X45692Y425747D01*
X45723Y425712D01*
X45748Y425671D01*
X45799Y425630D01*
X45843Y425581D01*
X45885Y425559D01*
X45922Y425530D01*
X45984Y425509D01*
X46043Y425478D01*
X46097Y425470D01*
X46134Y425458D01*
X46174Y425459D01*
X46228Y425451D01*
X48768Y425451D01*
X48833Y425462D01*
G37*
G36*
X826073Y425462D02*
X826073Y425462D01*
X826139Y425464D01*
X826182Y425482D01*
X826229Y425490D01*
X826286Y425524D01*
X826346Y425549D01*
X826381Y425580D01*
X826422Y425605D01*
X826464Y425656D01*
X826512Y425700D01*
X826534Y425742D01*
X826563Y425779D01*
X826584Y425841D01*
X826615Y425900D01*
X826623Y425954D01*
X826635Y425991D01*
X826634Y426031D01*
X826642Y426085D01*
X826642Y429895D01*
X826631Y429960D01*
X826629Y430026D01*
X826611Y430069D01*
X826603Y430116D01*
X826569Y430173D01*
X826544Y430233D01*
X826513Y430268D01*
X826488Y430309D01*
X826437Y430351D01*
X826393Y430399D01*
X826351Y430421D01*
X826314Y430450D01*
X826252Y430471D01*
X826193Y430502D01*
X826139Y430510D01*
X826102Y430522D01*
X826062Y430521D01*
X826008Y430529D01*
X823468Y430529D01*
X823403Y430518D01*
X823337Y430516D01*
X823294Y430498D01*
X823247Y430490D01*
X823190Y430456D01*
X823130Y430431D01*
X823095Y430400D01*
X823054Y430375D01*
X823013Y430324D01*
X822964Y430280D01*
X822942Y430238D01*
X822913Y430201D01*
X822892Y430139D01*
X822861Y430080D01*
X822853Y430026D01*
X822841Y429989D01*
X822841Y429985D01*
X822841Y429984D01*
X822842Y429949D01*
X822834Y429895D01*
X822834Y426085D01*
X822845Y426020D01*
X822847Y425954D01*
X822865Y425911D01*
X822873Y425864D01*
X822907Y425807D01*
X822932Y425747D01*
X822963Y425712D01*
X822988Y425671D01*
X823039Y425630D01*
X823083Y425581D01*
X823125Y425559D01*
X823162Y425530D01*
X823224Y425509D01*
X823283Y425478D01*
X823337Y425470D01*
X823374Y425458D01*
X823414Y425459D01*
X823468Y425451D01*
X826008Y425451D01*
X826073Y425462D01*
G37*
G36*
X307913Y425462D02*
X307913Y425462D01*
X307979Y425464D01*
X308022Y425482D01*
X308069Y425490D01*
X308126Y425524D01*
X308186Y425549D01*
X308221Y425580D01*
X308262Y425605D01*
X308304Y425656D01*
X308352Y425700D01*
X308374Y425742D01*
X308403Y425779D01*
X308424Y425841D01*
X308455Y425900D01*
X308463Y425954D01*
X308475Y425991D01*
X308474Y426031D01*
X308482Y426085D01*
X308482Y429895D01*
X308471Y429960D01*
X308469Y430026D01*
X308451Y430069D01*
X308443Y430116D01*
X308409Y430173D01*
X308384Y430233D01*
X308353Y430268D01*
X308328Y430309D01*
X308277Y430351D01*
X308233Y430399D01*
X308191Y430421D01*
X308154Y430450D01*
X308092Y430471D01*
X308033Y430502D01*
X307979Y430510D01*
X307942Y430522D01*
X307902Y430521D01*
X307848Y430529D01*
X305308Y430529D01*
X305243Y430518D01*
X305177Y430516D01*
X305134Y430498D01*
X305087Y430490D01*
X305030Y430456D01*
X304970Y430431D01*
X304935Y430400D01*
X304894Y430375D01*
X304853Y430324D01*
X304804Y430280D01*
X304782Y430238D01*
X304753Y430201D01*
X304732Y430139D01*
X304701Y430080D01*
X304693Y430026D01*
X304681Y429989D01*
X304681Y429985D01*
X304681Y429984D01*
X304682Y429949D01*
X304674Y429895D01*
X304674Y426085D01*
X304685Y426020D01*
X304687Y425954D01*
X304705Y425911D01*
X304713Y425864D01*
X304747Y425807D01*
X304772Y425747D01*
X304803Y425712D01*
X304828Y425671D01*
X304879Y425630D01*
X304923Y425581D01*
X304965Y425559D01*
X305002Y425530D01*
X305064Y425509D01*
X305123Y425478D01*
X305177Y425470D01*
X305214Y425458D01*
X305254Y425459D01*
X305308Y425451D01*
X307848Y425451D01*
X307913Y425462D01*
G37*
G36*
X307913Y943622D02*
X307913Y943622D01*
X307979Y943624D01*
X308022Y943642D01*
X308069Y943650D01*
X308126Y943684D01*
X308186Y943709D01*
X308221Y943740D01*
X308262Y943765D01*
X308304Y943816D01*
X308352Y943860D01*
X308374Y943902D01*
X308403Y943939D01*
X308424Y944001D01*
X308455Y944060D01*
X308463Y944114D01*
X308475Y944151D01*
X308474Y944191D01*
X308482Y944245D01*
X308482Y948055D01*
X308471Y948120D01*
X308469Y948186D01*
X308451Y948229D01*
X308443Y948276D01*
X308409Y948333D01*
X308384Y948393D01*
X308353Y948428D01*
X308328Y948469D01*
X308277Y948511D01*
X308233Y948559D01*
X308191Y948581D01*
X308154Y948610D01*
X308092Y948631D01*
X308033Y948662D01*
X307979Y948670D01*
X307942Y948682D01*
X307902Y948681D01*
X307848Y948689D01*
X305308Y948689D01*
X305243Y948678D01*
X305177Y948676D01*
X305134Y948658D01*
X305087Y948650D01*
X305030Y948616D01*
X304970Y948591D01*
X304935Y948560D01*
X304894Y948535D01*
X304853Y948484D01*
X304804Y948440D01*
X304782Y948398D01*
X304753Y948361D01*
X304732Y948299D01*
X304701Y948240D01*
X304693Y948186D01*
X304681Y948149D01*
X304681Y948145D01*
X304681Y948144D01*
X304682Y948109D01*
X304674Y948055D01*
X304674Y944245D01*
X304685Y944180D01*
X304687Y944114D01*
X304705Y944071D01*
X304713Y944024D01*
X304747Y943967D01*
X304772Y943907D01*
X304803Y943872D01*
X304828Y943831D01*
X304879Y943790D01*
X304923Y943741D01*
X304965Y943719D01*
X305002Y943690D01*
X305064Y943669D01*
X305123Y943638D01*
X305177Y943630D01*
X305214Y943618D01*
X305254Y943619D01*
X305308Y943611D01*
X307848Y943611D01*
X307913Y943622D01*
G37*
G36*
X48833Y943622D02*
X48833Y943622D01*
X48899Y943624D01*
X48942Y943642D01*
X48989Y943650D01*
X49046Y943684D01*
X49106Y943709D01*
X49141Y943740D01*
X49182Y943765D01*
X49224Y943816D01*
X49272Y943860D01*
X49294Y943902D01*
X49323Y943939D01*
X49344Y944001D01*
X49375Y944060D01*
X49383Y944114D01*
X49395Y944151D01*
X49394Y944191D01*
X49402Y944245D01*
X49402Y948055D01*
X49391Y948120D01*
X49389Y948186D01*
X49371Y948229D01*
X49363Y948276D01*
X49329Y948333D01*
X49304Y948393D01*
X49273Y948428D01*
X49248Y948469D01*
X49197Y948511D01*
X49153Y948559D01*
X49111Y948581D01*
X49074Y948610D01*
X49012Y948631D01*
X48953Y948662D01*
X48899Y948670D01*
X48862Y948682D01*
X48822Y948681D01*
X48768Y948689D01*
X46228Y948689D01*
X46163Y948678D01*
X46097Y948676D01*
X46054Y948658D01*
X46007Y948650D01*
X45950Y948616D01*
X45890Y948591D01*
X45855Y948560D01*
X45814Y948535D01*
X45773Y948484D01*
X45724Y948440D01*
X45702Y948398D01*
X45673Y948361D01*
X45652Y948299D01*
X45621Y948240D01*
X45613Y948186D01*
X45601Y948149D01*
X45601Y948145D01*
X45601Y948144D01*
X45602Y948109D01*
X45594Y948055D01*
X45594Y944245D01*
X45605Y944180D01*
X45607Y944114D01*
X45625Y944071D01*
X45633Y944024D01*
X45667Y943967D01*
X45692Y943907D01*
X45723Y943872D01*
X45748Y943831D01*
X45799Y943790D01*
X45843Y943741D01*
X45885Y943719D01*
X45922Y943690D01*
X45984Y943669D01*
X46043Y943638D01*
X46097Y943630D01*
X46134Y943618D01*
X46174Y943619D01*
X46228Y943611D01*
X48768Y943611D01*
X48833Y943622D01*
G37*
G36*
X566993Y943622D02*
X566993Y943622D01*
X567059Y943624D01*
X567102Y943642D01*
X567149Y943650D01*
X567206Y943684D01*
X567266Y943709D01*
X567301Y943740D01*
X567342Y943765D01*
X567384Y943816D01*
X567432Y943860D01*
X567454Y943902D01*
X567483Y943939D01*
X567504Y944001D01*
X567535Y944060D01*
X567543Y944114D01*
X567555Y944151D01*
X567554Y944191D01*
X567562Y944245D01*
X567562Y948055D01*
X567551Y948120D01*
X567549Y948186D01*
X567531Y948229D01*
X567523Y948276D01*
X567489Y948333D01*
X567464Y948393D01*
X567433Y948428D01*
X567408Y948469D01*
X567357Y948511D01*
X567313Y948559D01*
X567271Y948581D01*
X567234Y948610D01*
X567172Y948631D01*
X567113Y948662D01*
X567059Y948670D01*
X567022Y948682D01*
X566982Y948681D01*
X566928Y948689D01*
X564388Y948689D01*
X564323Y948678D01*
X564257Y948676D01*
X564214Y948658D01*
X564167Y948650D01*
X564110Y948616D01*
X564050Y948591D01*
X564015Y948560D01*
X563974Y948535D01*
X563933Y948484D01*
X563884Y948440D01*
X563862Y948398D01*
X563833Y948361D01*
X563812Y948299D01*
X563781Y948240D01*
X563773Y948186D01*
X563761Y948149D01*
X563761Y948145D01*
X563761Y948144D01*
X563762Y948109D01*
X563754Y948055D01*
X563754Y944245D01*
X563765Y944180D01*
X563767Y944114D01*
X563785Y944071D01*
X563793Y944024D01*
X563827Y943967D01*
X563852Y943907D01*
X563883Y943872D01*
X563908Y943831D01*
X563959Y943790D01*
X564003Y943741D01*
X564045Y943719D01*
X564082Y943690D01*
X564144Y943669D01*
X564203Y943638D01*
X564257Y943630D01*
X564294Y943618D01*
X564334Y943619D01*
X564388Y943611D01*
X566928Y943611D01*
X566993Y943622D01*
G37*
G36*
X826073Y943622D02*
X826073Y943622D01*
X826139Y943624D01*
X826182Y943642D01*
X826229Y943650D01*
X826286Y943684D01*
X826346Y943709D01*
X826381Y943740D01*
X826422Y943765D01*
X826464Y943816D01*
X826512Y943860D01*
X826534Y943902D01*
X826563Y943939D01*
X826584Y944001D01*
X826615Y944060D01*
X826623Y944114D01*
X826635Y944151D01*
X826634Y944191D01*
X826642Y944245D01*
X826642Y948055D01*
X826631Y948120D01*
X826629Y948186D01*
X826611Y948229D01*
X826603Y948276D01*
X826569Y948333D01*
X826544Y948393D01*
X826513Y948428D01*
X826488Y948469D01*
X826437Y948511D01*
X826393Y948559D01*
X826351Y948581D01*
X826314Y948610D01*
X826252Y948631D01*
X826193Y948662D01*
X826139Y948670D01*
X826102Y948682D01*
X826062Y948681D01*
X826008Y948689D01*
X823468Y948689D01*
X823403Y948678D01*
X823337Y948676D01*
X823294Y948658D01*
X823247Y948650D01*
X823190Y948616D01*
X823130Y948591D01*
X823095Y948560D01*
X823054Y948535D01*
X823013Y948484D01*
X822964Y948440D01*
X822942Y948398D01*
X822913Y948361D01*
X822892Y948299D01*
X822861Y948240D01*
X822853Y948186D01*
X822841Y948149D01*
X822841Y948145D01*
X822841Y948144D01*
X822842Y948109D01*
X822834Y948055D01*
X822834Y944245D01*
X822845Y944180D01*
X822847Y944114D01*
X822865Y944071D01*
X822873Y944024D01*
X822907Y943967D01*
X822932Y943907D01*
X822963Y943872D01*
X822988Y943831D01*
X823039Y943790D01*
X823083Y943741D01*
X823125Y943719D01*
X823162Y943690D01*
X823224Y943669D01*
X823283Y943638D01*
X823337Y943630D01*
X823374Y943618D01*
X823414Y943619D01*
X823468Y943611D01*
X826008Y943611D01*
X826073Y943622D01*
G37*
G36*
X48833Y166382D02*
X48833Y166382D01*
X48899Y166384D01*
X48942Y166402D01*
X48989Y166410D01*
X49046Y166444D01*
X49106Y166469D01*
X49141Y166500D01*
X49182Y166525D01*
X49224Y166576D01*
X49272Y166620D01*
X49294Y166662D01*
X49323Y166699D01*
X49344Y166761D01*
X49375Y166820D01*
X49383Y166874D01*
X49395Y166911D01*
X49394Y166951D01*
X49402Y167005D01*
X49402Y170815D01*
X49391Y170880D01*
X49389Y170946D01*
X49371Y170989D01*
X49363Y171036D01*
X49329Y171093D01*
X49304Y171153D01*
X49273Y171188D01*
X49248Y171229D01*
X49197Y171271D01*
X49153Y171319D01*
X49111Y171341D01*
X49074Y171370D01*
X49012Y171391D01*
X48953Y171422D01*
X48899Y171430D01*
X48862Y171442D01*
X48822Y171441D01*
X48768Y171449D01*
X46228Y171449D01*
X46163Y171438D01*
X46097Y171436D01*
X46054Y171418D01*
X46007Y171410D01*
X45950Y171376D01*
X45890Y171351D01*
X45855Y171320D01*
X45814Y171295D01*
X45773Y171244D01*
X45724Y171200D01*
X45702Y171158D01*
X45673Y171121D01*
X45652Y171059D01*
X45621Y171000D01*
X45613Y170946D01*
X45601Y170909D01*
X45601Y170905D01*
X45601Y170904D01*
X45602Y170869D01*
X45594Y170815D01*
X45594Y167005D01*
X45605Y166940D01*
X45607Y166874D01*
X45625Y166831D01*
X45633Y166784D01*
X45667Y166727D01*
X45692Y166667D01*
X45723Y166632D01*
X45748Y166591D01*
X45799Y166550D01*
X45843Y166501D01*
X45885Y166479D01*
X45922Y166450D01*
X45984Y166429D01*
X46043Y166398D01*
X46097Y166390D01*
X46134Y166378D01*
X46174Y166379D01*
X46228Y166371D01*
X48768Y166371D01*
X48833Y166382D01*
G37*
G36*
X826073Y166382D02*
X826073Y166382D01*
X826139Y166384D01*
X826182Y166402D01*
X826229Y166410D01*
X826286Y166444D01*
X826346Y166469D01*
X826381Y166500D01*
X826422Y166525D01*
X826464Y166576D01*
X826512Y166620D01*
X826534Y166662D01*
X826563Y166699D01*
X826584Y166761D01*
X826615Y166820D01*
X826623Y166874D01*
X826635Y166911D01*
X826634Y166951D01*
X826642Y167005D01*
X826642Y170815D01*
X826631Y170880D01*
X826629Y170946D01*
X826611Y170989D01*
X826603Y171036D01*
X826569Y171093D01*
X826544Y171153D01*
X826513Y171188D01*
X826488Y171229D01*
X826437Y171271D01*
X826393Y171319D01*
X826351Y171341D01*
X826314Y171370D01*
X826252Y171391D01*
X826193Y171422D01*
X826139Y171430D01*
X826102Y171442D01*
X826062Y171441D01*
X826008Y171449D01*
X823468Y171449D01*
X823403Y171438D01*
X823337Y171436D01*
X823294Y171418D01*
X823247Y171410D01*
X823190Y171376D01*
X823130Y171351D01*
X823095Y171320D01*
X823054Y171295D01*
X823013Y171244D01*
X822964Y171200D01*
X822942Y171158D01*
X822913Y171121D01*
X822892Y171059D01*
X822861Y171000D01*
X822853Y170946D01*
X822841Y170909D01*
X822841Y170905D01*
X822841Y170904D01*
X822842Y170869D01*
X822834Y170815D01*
X822834Y167005D01*
X822845Y166940D01*
X822847Y166874D01*
X822865Y166831D01*
X822873Y166784D01*
X822907Y166727D01*
X822932Y166667D01*
X822963Y166632D01*
X822988Y166591D01*
X823039Y166550D01*
X823083Y166501D01*
X823125Y166479D01*
X823162Y166450D01*
X823224Y166429D01*
X823283Y166398D01*
X823337Y166390D01*
X823374Y166378D01*
X823414Y166379D01*
X823468Y166371D01*
X826008Y166371D01*
X826073Y166382D01*
G37*
G36*
X307913Y166382D02*
X307913Y166382D01*
X307979Y166384D01*
X308022Y166402D01*
X308069Y166410D01*
X308126Y166444D01*
X308186Y166469D01*
X308221Y166500D01*
X308262Y166525D01*
X308304Y166576D01*
X308352Y166620D01*
X308374Y166662D01*
X308403Y166699D01*
X308424Y166761D01*
X308455Y166820D01*
X308463Y166874D01*
X308475Y166911D01*
X308474Y166951D01*
X308482Y167005D01*
X308482Y170815D01*
X308471Y170880D01*
X308469Y170946D01*
X308451Y170989D01*
X308443Y171036D01*
X308409Y171093D01*
X308384Y171153D01*
X308353Y171188D01*
X308328Y171229D01*
X308277Y171271D01*
X308233Y171319D01*
X308191Y171341D01*
X308154Y171370D01*
X308092Y171391D01*
X308033Y171422D01*
X307979Y171430D01*
X307942Y171442D01*
X307902Y171441D01*
X307848Y171449D01*
X305308Y171449D01*
X305243Y171438D01*
X305177Y171436D01*
X305134Y171418D01*
X305087Y171410D01*
X305030Y171376D01*
X304970Y171351D01*
X304935Y171320D01*
X304894Y171295D01*
X304853Y171244D01*
X304804Y171200D01*
X304782Y171158D01*
X304753Y171121D01*
X304732Y171059D01*
X304701Y171000D01*
X304693Y170946D01*
X304681Y170909D01*
X304681Y170905D01*
X304681Y170904D01*
X304682Y170869D01*
X304674Y170815D01*
X304674Y167005D01*
X304685Y166940D01*
X304687Y166874D01*
X304705Y166831D01*
X304713Y166784D01*
X304747Y166727D01*
X304772Y166667D01*
X304803Y166632D01*
X304828Y166591D01*
X304879Y166550D01*
X304923Y166501D01*
X304965Y166479D01*
X305002Y166450D01*
X305064Y166429D01*
X305123Y166398D01*
X305177Y166390D01*
X305214Y166378D01*
X305254Y166379D01*
X305308Y166371D01*
X307848Y166371D01*
X307913Y166382D01*
G37*
G36*
X566993Y166382D02*
X566993Y166382D01*
X567059Y166384D01*
X567102Y166402D01*
X567149Y166410D01*
X567206Y166444D01*
X567266Y166469D01*
X567301Y166500D01*
X567342Y166525D01*
X567384Y166576D01*
X567432Y166620D01*
X567454Y166662D01*
X567483Y166699D01*
X567504Y166761D01*
X567535Y166820D01*
X567543Y166874D01*
X567555Y166911D01*
X567554Y166951D01*
X567562Y167005D01*
X567562Y170815D01*
X567551Y170880D01*
X567549Y170946D01*
X567531Y170989D01*
X567523Y171036D01*
X567489Y171093D01*
X567464Y171153D01*
X567433Y171188D01*
X567408Y171229D01*
X567357Y171271D01*
X567313Y171319D01*
X567271Y171341D01*
X567234Y171370D01*
X567172Y171391D01*
X567113Y171422D01*
X567059Y171430D01*
X567022Y171442D01*
X566982Y171441D01*
X566928Y171449D01*
X564388Y171449D01*
X564323Y171438D01*
X564257Y171436D01*
X564214Y171418D01*
X564167Y171410D01*
X564110Y171376D01*
X564050Y171351D01*
X564015Y171320D01*
X563974Y171295D01*
X563933Y171244D01*
X563884Y171200D01*
X563862Y171158D01*
X563833Y171121D01*
X563812Y171059D01*
X563781Y171000D01*
X563773Y170946D01*
X563761Y170909D01*
X563761Y170905D01*
X563761Y170904D01*
X563762Y170869D01*
X563754Y170815D01*
X563754Y167005D01*
X563765Y166940D01*
X563767Y166874D01*
X563785Y166831D01*
X563793Y166784D01*
X563827Y166727D01*
X563852Y166667D01*
X563883Y166632D01*
X563908Y166591D01*
X563959Y166550D01*
X564003Y166501D01*
X564045Y166479D01*
X564082Y166450D01*
X564144Y166429D01*
X564203Y166398D01*
X564257Y166390D01*
X564294Y166378D01*
X564334Y166379D01*
X564388Y166371D01*
X566928Y166371D01*
X566993Y166382D01*
G37*
G36*
X307913Y1471942D02*
X307913Y1471942D01*
X307979Y1471944D01*
X308022Y1471962D01*
X308069Y1471970D01*
X308126Y1472004D01*
X308186Y1472029D01*
X308221Y1472060D01*
X308262Y1472085D01*
X308304Y1472136D01*
X308352Y1472180D01*
X308374Y1472222D01*
X308403Y1472259D01*
X308424Y1472321D01*
X308455Y1472380D01*
X308463Y1472434D01*
X308475Y1472471D01*
X308474Y1472511D01*
X308482Y1472565D01*
X308482Y1476375D01*
X308471Y1476440D01*
X308469Y1476506D01*
X308451Y1476549D01*
X308443Y1476596D01*
X308409Y1476653D01*
X308384Y1476713D01*
X308353Y1476748D01*
X308328Y1476789D01*
X308277Y1476831D01*
X308233Y1476879D01*
X308191Y1476901D01*
X308154Y1476930D01*
X308092Y1476951D01*
X308033Y1476982D01*
X307979Y1476990D01*
X307942Y1477002D01*
X307902Y1477001D01*
X307848Y1477009D01*
X305308Y1477009D01*
X305243Y1476998D01*
X305177Y1476996D01*
X305134Y1476978D01*
X305087Y1476970D01*
X305030Y1476936D01*
X304970Y1476911D01*
X304935Y1476880D01*
X304894Y1476855D01*
X304853Y1476804D01*
X304804Y1476760D01*
X304782Y1476718D01*
X304753Y1476681D01*
X304732Y1476619D01*
X304701Y1476560D01*
X304693Y1476506D01*
X304681Y1476469D01*
X304681Y1476465D01*
X304681Y1476464D01*
X304682Y1476429D01*
X304674Y1476375D01*
X304674Y1472565D01*
X304685Y1472500D01*
X304687Y1472434D01*
X304705Y1472391D01*
X304713Y1472344D01*
X304747Y1472287D01*
X304772Y1472227D01*
X304803Y1472192D01*
X304828Y1472151D01*
X304879Y1472110D01*
X304923Y1472061D01*
X304965Y1472039D01*
X305002Y1472010D01*
X305064Y1471989D01*
X305123Y1471958D01*
X305177Y1471950D01*
X305214Y1471938D01*
X305254Y1471939D01*
X305308Y1471931D01*
X307848Y1471931D01*
X307913Y1471942D01*
G37*
G36*
X826073Y1471942D02*
X826073Y1471942D01*
X826139Y1471944D01*
X826182Y1471962D01*
X826229Y1471970D01*
X826286Y1472004D01*
X826346Y1472029D01*
X826381Y1472060D01*
X826422Y1472085D01*
X826464Y1472136D01*
X826512Y1472180D01*
X826534Y1472222D01*
X826563Y1472259D01*
X826584Y1472321D01*
X826615Y1472380D01*
X826623Y1472434D01*
X826635Y1472471D01*
X826634Y1472511D01*
X826642Y1472565D01*
X826642Y1476375D01*
X826631Y1476440D01*
X826629Y1476506D01*
X826611Y1476549D01*
X826603Y1476596D01*
X826569Y1476653D01*
X826544Y1476713D01*
X826513Y1476748D01*
X826488Y1476789D01*
X826437Y1476831D01*
X826393Y1476879D01*
X826351Y1476901D01*
X826314Y1476930D01*
X826252Y1476951D01*
X826193Y1476982D01*
X826139Y1476990D01*
X826102Y1477002D01*
X826062Y1477001D01*
X826008Y1477009D01*
X823468Y1477009D01*
X823403Y1476998D01*
X823337Y1476996D01*
X823294Y1476978D01*
X823247Y1476970D01*
X823190Y1476936D01*
X823130Y1476911D01*
X823095Y1476880D01*
X823054Y1476855D01*
X823013Y1476804D01*
X822964Y1476760D01*
X822942Y1476718D01*
X822913Y1476681D01*
X822892Y1476619D01*
X822861Y1476560D01*
X822853Y1476506D01*
X822841Y1476469D01*
X822841Y1476465D01*
X822841Y1476464D01*
X822842Y1476429D01*
X822834Y1476375D01*
X822834Y1472565D01*
X822845Y1472500D01*
X822847Y1472434D01*
X822865Y1472391D01*
X822873Y1472344D01*
X822907Y1472287D01*
X822932Y1472227D01*
X822963Y1472192D01*
X822988Y1472151D01*
X823039Y1472110D01*
X823083Y1472061D01*
X823125Y1472039D01*
X823162Y1472010D01*
X823224Y1471989D01*
X823283Y1471958D01*
X823337Y1471950D01*
X823374Y1471938D01*
X823414Y1471939D01*
X823468Y1471931D01*
X826008Y1471931D01*
X826073Y1471942D01*
G37*
G36*
X48833Y1471942D02*
X48833Y1471942D01*
X48899Y1471944D01*
X48942Y1471962D01*
X48989Y1471970D01*
X49046Y1472004D01*
X49106Y1472029D01*
X49141Y1472060D01*
X49182Y1472085D01*
X49224Y1472136D01*
X49272Y1472180D01*
X49294Y1472222D01*
X49323Y1472259D01*
X49344Y1472321D01*
X49375Y1472380D01*
X49383Y1472434D01*
X49395Y1472471D01*
X49394Y1472511D01*
X49402Y1472565D01*
X49402Y1476375D01*
X49391Y1476440D01*
X49389Y1476506D01*
X49371Y1476549D01*
X49363Y1476596D01*
X49329Y1476653D01*
X49304Y1476713D01*
X49273Y1476748D01*
X49248Y1476789D01*
X49197Y1476831D01*
X49153Y1476879D01*
X49111Y1476901D01*
X49074Y1476930D01*
X49012Y1476951D01*
X48953Y1476982D01*
X48899Y1476990D01*
X48862Y1477002D01*
X48822Y1477001D01*
X48768Y1477009D01*
X46228Y1477009D01*
X46163Y1476998D01*
X46097Y1476996D01*
X46054Y1476978D01*
X46007Y1476970D01*
X45950Y1476936D01*
X45890Y1476911D01*
X45855Y1476880D01*
X45814Y1476855D01*
X45773Y1476804D01*
X45724Y1476760D01*
X45702Y1476718D01*
X45673Y1476681D01*
X45652Y1476619D01*
X45621Y1476560D01*
X45613Y1476506D01*
X45601Y1476469D01*
X45601Y1476465D01*
X45601Y1476464D01*
X45602Y1476429D01*
X45594Y1476375D01*
X45594Y1472565D01*
X45605Y1472500D01*
X45607Y1472434D01*
X45625Y1472391D01*
X45633Y1472344D01*
X45667Y1472287D01*
X45692Y1472227D01*
X45723Y1472192D01*
X45748Y1472151D01*
X45799Y1472110D01*
X45843Y1472061D01*
X45885Y1472039D01*
X45922Y1472010D01*
X45984Y1471989D01*
X46043Y1471958D01*
X46097Y1471950D01*
X46134Y1471938D01*
X46174Y1471939D01*
X46228Y1471931D01*
X48768Y1471931D01*
X48833Y1471942D01*
G37*
G36*
X566993Y1471942D02*
X566993Y1471942D01*
X567059Y1471944D01*
X567102Y1471962D01*
X567149Y1471970D01*
X567206Y1472004D01*
X567266Y1472029D01*
X567301Y1472060D01*
X567342Y1472085D01*
X567384Y1472136D01*
X567432Y1472180D01*
X567454Y1472222D01*
X567483Y1472259D01*
X567504Y1472321D01*
X567535Y1472380D01*
X567543Y1472434D01*
X567555Y1472471D01*
X567554Y1472511D01*
X567562Y1472565D01*
X567562Y1476375D01*
X567551Y1476440D01*
X567549Y1476506D01*
X567531Y1476549D01*
X567523Y1476596D01*
X567489Y1476653D01*
X567464Y1476713D01*
X567433Y1476748D01*
X567408Y1476789D01*
X567357Y1476831D01*
X567313Y1476879D01*
X567271Y1476901D01*
X567234Y1476930D01*
X567172Y1476951D01*
X567113Y1476982D01*
X567059Y1476990D01*
X567022Y1477002D01*
X566982Y1477001D01*
X566928Y1477009D01*
X564388Y1477009D01*
X564323Y1476998D01*
X564257Y1476996D01*
X564214Y1476978D01*
X564167Y1476970D01*
X564110Y1476936D01*
X564050Y1476911D01*
X564015Y1476880D01*
X563974Y1476855D01*
X563933Y1476804D01*
X563884Y1476760D01*
X563862Y1476718D01*
X563833Y1476681D01*
X563812Y1476619D01*
X563781Y1476560D01*
X563773Y1476506D01*
X563761Y1476469D01*
X563761Y1476465D01*
X563761Y1476464D01*
X563762Y1476429D01*
X563754Y1476375D01*
X563754Y1472565D01*
X563765Y1472500D01*
X563767Y1472434D01*
X563785Y1472391D01*
X563793Y1472344D01*
X563827Y1472287D01*
X563852Y1472227D01*
X563883Y1472192D01*
X563908Y1472151D01*
X563959Y1472110D01*
X564003Y1472061D01*
X564045Y1472039D01*
X564082Y1472010D01*
X564144Y1471989D01*
X564203Y1471958D01*
X564257Y1471950D01*
X564294Y1471938D01*
X564334Y1471939D01*
X564388Y1471931D01*
X566928Y1471931D01*
X566993Y1471942D01*
G37*
G36*
X566993Y1461782D02*
X566993Y1461782D01*
X567059Y1461784D01*
X567102Y1461802D01*
X567149Y1461810D01*
X567206Y1461844D01*
X567266Y1461869D01*
X567301Y1461900D01*
X567342Y1461925D01*
X567384Y1461976D01*
X567432Y1462020D01*
X567454Y1462062D01*
X567483Y1462099D01*
X567504Y1462161D01*
X567535Y1462220D01*
X567543Y1462274D01*
X567555Y1462311D01*
X567554Y1462351D01*
X567562Y1462405D01*
X567562Y1466215D01*
X567551Y1466280D01*
X567549Y1466346D01*
X567531Y1466389D01*
X567523Y1466436D01*
X567489Y1466493D01*
X567464Y1466553D01*
X567433Y1466588D01*
X567408Y1466629D01*
X567357Y1466671D01*
X567313Y1466719D01*
X567271Y1466741D01*
X567234Y1466770D01*
X567172Y1466791D01*
X567113Y1466822D01*
X567059Y1466830D01*
X567022Y1466842D01*
X566982Y1466841D01*
X566928Y1466849D01*
X564388Y1466849D01*
X564323Y1466838D01*
X564257Y1466836D01*
X564214Y1466818D01*
X564167Y1466810D01*
X564110Y1466776D01*
X564050Y1466751D01*
X564015Y1466720D01*
X563974Y1466695D01*
X563933Y1466644D01*
X563884Y1466600D01*
X563862Y1466558D01*
X563833Y1466521D01*
X563812Y1466459D01*
X563781Y1466400D01*
X563773Y1466346D01*
X563761Y1466309D01*
X563761Y1466305D01*
X563761Y1466304D01*
X563762Y1466269D01*
X563754Y1466215D01*
X563754Y1462405D01*
X563765Y1462340D01*
X563767Y1462274D01*
X563785Y1462231D01*
X563793Y1462184D01*
X563827Y1462127D01*
X563852Y1462067D01*
X563883Y1462032D01*
X563908Y1461991D01*
X563959Y1461950D01*
X564003Y1461901D01*
X564045Y1461879D01*
X564082Y1461850D01*
X564144Y1461829D01*
X564203Y1461798D01*
X564257Y1461790D01*
X564294Y1461778D01*
X564334Y1461779D01*
X564388Y1461771D01*
X566928Y1461771D01*
X566993Y1461782D01*
G37*
G36*
X826073Y1461782D02*
X826073Y1461782D01*
X826139Y1461784D01*
X826182Y1461802D01*
X826229Y1461810D01*
X826286Y1461844D01*
X826346Y1461869D01*
X826381Y1461900D01*
X826422Y1461925D01*
X826464Y1461976D01*
X826512Y1462020D01*
X826534Y1462062D01*
X826563Y1462099D01*
X826584Y1462161D01*
X826615Y1462220D01*
X826623Y1462274D01*
X826635Y1462311D01*
X826634Y1462351D01*
X826642Y1462405D01*
X826642Y1466215D01*
X826631Y1466280D01*
X826629Y1466346D01*
X826611Y1466389D01*
X826603Y1466436D01*
X826569Y1466493D01*
X826544Y1466553D01*
X826513Y1466588D01*
X826488Y1466629D01*
X826437Y1466671D01*
X826393Y1466719D01*
X826351Y1466741D01*
X826314Y1466770D01*
X826252Y1466791D01*
X826193Y1466822D01*
X826139Y1466830D01*
X826102Y1466842D01*
X826062Y1466841D01*
X826008Y1466849D01*
X823468Y1466849D01*
X823403Y1466838D01*
X823337Y1466836D01*
X823294Y1466818D01*
X823247Y1466810D01*
X823190Y1466776D01*
X823130Y1466751D01*
X823095Y1466720D01*
X823054Y1466695D01*
X823013Y1466644D01*
X822964Y1466600D01*
X822942Y1466558D01*
X822913Y1466521D01*
X822892Y1466459D01*
X822861Y1466400D01*
X822853Y1466346D01*
X822841Y1466309D01*
X822841Y1466305D01*
X822841Y1466304D01*
X822842Y1466269D01*
X822834Y1466215D01*
X822834Y1462405D01*
X822845Y1462340D01*
X822847Y1462274D01*
X822865Y1462231D01*
X822873Y1462184D01*
X822907Y1462127D01*
X822932Y1462067D01*
X822963Y1462032D01*
X822988Y1461991D01*
X823039Y1461950D01*
X823083Y1461901D01*
X823125Y1461879D01*
X823162Y1461850D01*
X823224Y1461829D01*
X823283Y1461798D01*
X823337Y1461790D01*
X823374Y1461778D01*
X823414Y1461779D01*
X823468Y1461771D01*
X826008Y1461771D01*
X826073Y1461782D01*
G37*
G36*
X307913Y1461782D02*
X307913Y1461782D01*
X307979Y1461784D01*
X308022Y1461802D01*
X308069Y1461810D01*
X308126Y1461844D01*
X308186Y1461869D01*
X308221Y1461900D01*
X308262Y1461925D01*
X308304Y1461976D01*
X308352Y1462020D01*
X308374Y1462062D01*
X308403Y1462099D01*
X308424Y1462161D01*
X308455Y1462220D01*
X308463Y1462274D01*
X308475Y1462311D01*
X308474Y1462351D01*
X308482Y1462405D01*
X308482Y1466215D01*
X308471Y1466280D01*
X308469Y1466346D01*
X308451Y1466389D01*
X308443Y1466436D01*
X308409Y1466493D01*
X308384Y1466553D01*
X308353Y1466588D01*
X308328Y1466629D01*
X308277Y1466671D01*
X308233Y1466719D01*
X308191Y1466741D01*
X308154Y1466770D01*
X308092Y1466791D01*
X308033Y1466822D01*
X307979Y1466830D01*
X307942Y1466842D01*
X307902Y1466841D01*
X307848Y1466849D01*
X305308Y1466849D01*
X305243Y1466838D01*
X305177Y1466836D01*
X305134Y1466818D01*
X305087Y1466810D01*
X305030Y1466776D01*
X304970Y1466751D01*
X304935Y1466720D01*
X304894Y1466695D01*
X304853Y1466644D01*
X304804Y1466600D01*
X304782Y1466558D01*
X304753Y1466521D01*
X304732Y1466459D01*
X304701Y1466400D01*
X304693Y1466346D01*
X304681Y1466309D01*
X304681Y1466305D01*
X304681Y1466304D01*
X304682Y1466269D01*
X304674Y1466215D01*
X304674Y1462405D01*
X304685Y1462340D01*
X304687Y1462274D01*
X304705Y1462231D01*
X304713Y1462184D01*
X304747Y1462127D01*
X304772Y1462067D01*
X304803Y1462032D01*
X304828Y1461991D01*
X304879Y1461950D01*
X304923Y1461901D01*
X304965Y1461879D01*
X305002Y1461850D01*
X305064Y1461829D01*
X305123Y1461798D01*
X305177Y1461790D01*
X305214Y1461778D01*
X305254Y1461779D01*
X305308Y1461771D01*
X307848Y1461771D01*
X307913Y1461782D01*
G37*
G36*
X48833Y1461782D02*
X48833Y1461782D01*
X48899Y1461784D01*
X48942Y1461802D01*
X48989Y1461810D01*
X49046Y1461844D01*
X49106Y1461869D01*
X49141Y1461900D01*
X49182Y1461925D01*
X49224Y1461976D01*
X49272Y1462020D01*
X49294Y1462062D01*
X49323Y1462099D01*
X49344Y1462161D01*
X49375Y1462220D01*
X49383Y1462274D01*
X49395Y1462311D01*
X49394Y1462351D01*
X49402Y1462405D01*
X49402Y1466215D01*
X49391Y1466280D01*
X49389Y1466346D01*
X49371Y1466389D01*
X49363Y1466436D01*
X49329Y1466493D01*
X49304Y1466553D01*
X49273Y1466588D01*
X49248Y1466629D01*
X49197Y1466671D01*
X49153Y1466719D01*
X49111Y1466741D01*
X49074Y1466770D01*
X49012Y1466791D01*
X48953Y1466822D01*
X48899Y1466830D01*
X48862Y1466842D01*
X48822Y1466841D01*
X48768Y1466849D01*
X46228Y1466849D01*
X46163Y1466838D01*
X46097Y1466836D01*
X46054Y1466818D01*
X46007Y1466810D01*
X45950Y1466776D01*
X45890Y1466751D01*
X45855Y1466720D01*
X45814Y1466695D01*
X45773Y1466644D01*
X45724Y1466600D01*
X45702Y1466558D01*
X45673Y1466521D01*
X45652Y1466459D01*
X45621Y1466400D01*
X45613Y1466346D01*
X45601Y1466309D01*
X45601Y1466305D01*
X45601Y1466304D01*
X45602Y1466269D01*
X45594Y1466215D01*
X45594Y1462405D01*
X45605Y1462340D01*
X45607Y1462274D01*
X45625Y1462231D01*
X45633Y1462184D01*
X45667Y1462127D01*
X45692Y1462067D01*
X45723Y1462032D01*
X45748Y1461991D01*
X45799Y1461950D01*
X45843Y1461901D01*
X45885Y1461879D01*
X45922Y1461850D01*
X45984Y1461829D01*
X46043Y1461798D01*
X46097Y1461790D01*
X46134Y1461778D01*
X46174Y1461779D01*
X46228Y1461771D01*
X48768Y1461771D01*
X48833Y1461782D01*
G37*
G36*
X826073Y176542D02*
X826073Y176542D01*
X826139Y176544D01*
X826182Y176562D01*
X826229Y176570D01*
X826286Y176604D01*
X826346Y176629D01*
X826381Y176660D01*
X826422Y176685D01*
X826464Y176736D01*
X826512Y176780D01*
X826534Y176822D01*
X826563Y176859D01*
X826584Y176921D01*
X826615Y176980D01*
X826623Y177034D01*
X826635Y177071D01*
X826634Y177111D01*
X826642Y177165D01*
X826642Y180975D01*
X826631Y181040D01*
X826629Y181106D01*
X826611Y181149D01*
X826603Y181196D01*
X826569Y181253D01*
X826544Y181313D01*
X826513Y181348D01*
X826488Y181389D01*
X826437Y181431D01*
X826393Y181479D01*
X826351Y181501D01*
X826314Y181530D01*
X826252Y181551D01*
X826193Y181582D01*
X826139Y181590D01*
X826102Y181602D01*
X826062Y181601D01*
X826008Y181609D01*
X823468Y181609D01*
X823403Y181598D01*
X823337Y181596D01*
X823294Y181578D01*
X823247Y181570D01*
X823190Y181536D01*
X823130Y181511D01*
X823095Y181480D01*
X823054Y181455D01*
X823013Y181404D01*
X822964Y181360D01*
X822942Y181318D01*
X822913Y181281D01*
X822892Y181219D01*
X822861Y181160D01*
X822853Y181106D01*
X822841Y181069D01*
X822841Y181065D01*
X822841Y181064D01*
X822842Y181029D01*
X822834Y180975D01*
X822834Y177165D01*
X822845Y177100D01*
X822847Y177034D01*
X822865Y176991D01*
X822873Y176944D01*
X822907Y176887D01*
X822932Y176827D01*
X822963Y176792D01*
X822988Y176751D01*
X823039Y176710D01*
X823083Y176661D01*
X823125Y176639D01*
X823162Y176610D01*
X823224Y176589D01*
X823283Y176558D01*
X823337Y176550D01*
X823374Y176538D01*
X823414Y176539D01*
X823468Y176531D01*
X826008Y176531D01*
X826073Y176542D01*
G37*
G36*
X826073Y1202702D02*
X826073Y1202702D01*
X826139Y1202704D01*
X826182Y1202722D01*
X826229Y1202730D01*
X826286Y1202764D01*
X826346Y1202789D01*
X826381Y1202820D01*
X826422Y1202845D01*
X826464Y1202896D01*
X826512Y1202940D01*
X826534Y1202982D01*
X826563Y1203019D01*
X826584Y1203081D01*
X826615Y1203140D01*
X826623Y1203194D01*
X826635Y1203231D01*
X826634Y1203271D01*
X826642Y1203325D01*
X826642Y1207135D01*
X826631Y1207200D01*
X826629Y1207266D01*
X826611Y1207309D01*
X826603Y1207356D01*
X826569Y1207413D01*
X826544Y1207473D01*
X826513Y1207508D01*
X826488Y1207549D01*
X826437Y1207591D01*
X826393Y1207639D01*
X826351Y1207661D01*
X826314Y1207690D01*
X826252Y1207711D01*
X826193Y1207742D01*
X826139Y1207750D01*
X826102Y1207762D01*
X826062Y1207761D01*
X826008Y1207769D01*
X823468Y1207769D01*
X823403Y1207758D01*
X823337Y1207756D01*
X823294Y1207738D01*
X823247Y1207730D01*
X823190Y1207696D01*
X823130Y1207671D01*
X823095Y1207640D01*
X823054Y1207615D01*
X823013Y1207564D01*
X822964Y1207520D01*
X822942Y1207478D01*
X822913Y1207441D01*
X822892Y1207379D01*
X822861Y1207320D01*
X822853Y1207266D01*
X822841Y1207229D01*
X822841Y1207225D01*
X822841Y1207224D01*
X822842Y1207189D01*
X822834Y1207135D01*
X822834Y1203325D01*
X822845Y1203260D01*
X822847Y1203194D01*
X822865Y1203151D01*
X822873Y1203104D01*
X822907Y1203047D01*
X822932Y1202987D01*
X822963Y1202952D01*
X822988Y1202911D01*
X823039Y1202870D01*
X823083Y1202821D01*
X823125Y1202799D01*
X823162Y1202770D01*
X823224Y1202749D01*
X823283Y1202718D01*
X823337Y1202710D01*
X823374Y1202698D01*
X823414Y1202699D01*
X823468Y1202691D01*
X826008Y1202691D01*
X826073Y1202702D01*
G37*
G36*
X566993Y176542D02*
X566993Y176542D01*
X567059Y176544D01*
X567102Y176562D01*
X567149Y176570D01*
X567206Y176604D01*
X567266Y176629D01*
X567301Y176660D01*
X567342Y176685D01*
X567384Y176736D01*
X567432Y176780D01*
X567454Y176822D01*
X567483Y176859D01*
X567504Y176921D01*
X567535Y176980D01*
X567543Y177034D01*
X567555Y177071D01*
X567554Y177111D01*
X567562Y177165D01*
X567562Y180975D01*
X567551Y181040D01*
X567549Y181106D01*
X567531Y181149D01*
X567523Y181196D01*
X567489Y181253D01*
X567464Y181313D01*
X567433Y181348D01*
X567408Y181389D01*
X567357Y181431D01*
X567313Y181479D01*
X567271Y181501D01*
X567234Y181530D01*
X567172Y181551D01*
X567113Y181582D01*
X567059Y181590D01*
X567022Y181602D01*
X566982Y181601D01*
X566928Y181609D01*
X564388Y181609D01*
X564323Y181598D01*
X564257Y181596D01*
X564214Y181578D01*
X564167Y181570D01*
X564110Y181536D01*
X564050Y181511D01*
X564015Y181480D01*
X563974Y181455D01*
X563933Y181404D01*
X563884Y181360D01*
X563862Y181318D01*
X563833Y181281D01*
X563812Y181219D01*
X563781Y181160D01*
X563773Y181106D01*
X563761Y181069D01*
X563761Y181065D01*
X563761Y181064D01*
X563762Y181029D01*
X563754Y180975D01*
X563754Y177165D01*
X563765Y177100D01*
X563767Y177034D01*
X563785Y176991D01*
X563793Y176944D01*
X563827Y176887D01*
X563852Y176827D01*
X563883Y176792D01*
X563908Y176751D01*
X563959Y176710D01*
X564003Y176661D01*
X564045Y176639D01*
X564082Y176610D01*
X564144Y176589D01*
X564203Y176558D01*
X564257Y176550D01*
X564294Y176538D01*
X564334Y176539D01*
X564388Y176531D01*
X566928Y176531D01*
X566993Y176542D01*
G37*
G36*
X307913Y176542D02*
X307913Y176542D01*
X307979Y176544D01*
X308022Y176562D01*
X308069Y176570D01*
X308126Y176604D01*
X308186Y176629D01*
X308221Y176660D01*
X308262Y176685D01*
X308304Y176736D01*
X308352Y176780D01*
X308374Y176822D01*
X308403Y176859D01*
X308424Y176921D01*
X308455Y176980D01*
X308463Y177034D01*
X308475Y177071D01*
X308474Y177111D01*
X308482Y177165D01*
X308482Y180975D01*
X308471Y181040D01*
X308469Y181106D01*
X308451Y181149D01*
X308443Y181196D01*
X308409Y181253D01*
X308384Y181313D01*
X308353Y181348D01*
X308328Y181389D01*
X308277Y181431D01*
X308233Y181479D01*
X308191Y181501D01*
X308154Y181530D01*
X308092Y181551D01*
X308033Y181582D01*
X307979Y181590D01*
X307942Y181602D01*
X307902Y181601D01*
X307848Y181609D01*
X305308Y181609D01*
X305243Y181598D01*
X305177Y181596D01*
X305134Y181578D01*
X305087Y181570D01*
X305030Y181536D01*
X304970Y181511D01*
X304935Y181480D01*
X304894Y181455D01*
X304853Y181404D01*
X304804Y181360D01*
X304782Y181318D01*
X304753Y181281D01*
X304732Y181219D01*
X304701Y181160D01*
X304693Y181106D01*
X304681Y181069D01*
X304681Y181065D01*
X304681Y181064D01*
X304682Y181029D01*
X304674Y180975D01*
X304674Y177165D01*
X304685Y177100D01*
X304687Y177034D01*
X304705Y176991D01*
X304713Y176944D01*
X304747Y176887D01*
X304772Y176827D01*
X304803Y176792D01*
X304828Y176751D01*
X304879Y176710D01*
X304923Y176661D01*
X304965Y176639D01*
X305002Y176610D01*
X305064Y176589D01*
X305123Y176558D01*
X305177Y176550D01*
X305214Y176538D01*
X305254Y176539D01*
X305308Y176531D01*
X307848Y176531D01*
X307913Y176542D01*
G37*
G36*
X566993Y1212862D02*
X566993Y1212862D01*
X567059Y1212864D01*
X567102Y1212882D01*
X567149Y1212890D01*
X567206Y1212924D01*
X567266Y1212949D01*
X567301Y1212980D01*
X567342Y1213005D01*
X567384Y1213056D01*
X567432Y1213100D01*
X567454Y1213142D01*
X567483Y1213179D01*
X567504Y1213241D01*
X567535Y1213300D01*
X567543Y1213354D01*
X567555Y1213391D01*
X567554Y1213431D01*
X567562Y1213485D01*
X567562Y1217295D01*
X567551Y1217360D01*
X567549Y1217426D01*
X567531Y1217469D01*
X567523Y1217516D01*
X567489Y1217573D01*
X567464Y1217633D01*
X567433Y1217668D01*
X567408Y1217709D01*
X567357Y1217751D01*
X567313Y1217799D01*
X567271Y1217821D01*
X567234Y1217850D01*
X567172Y1217871D01*
X567113Y1217902D01*
X567059Y1217910D01*
X567022Y1217922D01*
X566982Y1217921D01*
X566928Y1217929D01*
X564388Y1217929D01*
X564323Y1217918D01*
X564257Y1217916D01*
X564214Y1217898D01*
X564167Y1217890D01*
X564110Y1217856D01*
X564050Y1217831D01*
X564015Y1217800D01*
X563974Y1217775D01*
X563933Y1217724D01*
X563884Y1217680D01*
X563862Y1217638D01*
X563833Y1217601D01*
X563812Y1217539D01*
X563781Y1217480D01*
X563773Y1217426D01*
X563761Y1217389D01*
X563761Y1217385D01*
X563761Y1217384D01*
X563762Y1217349D01*
X563754Y1217295D01*
X563754Y1213485D01*
X563765Y1213420D01*
X563767Y1213354D01*
X563785Y1213311D01*
X563793Y1213264D01*
X563827Y1213207D01*
X563852Y1213147D01*
X563883Y1213112D01*
X563908Y1213071D01*
X563959Y1213030D01*
X564003Y1212981D01*
X564045Y1212959D01*
X564082Y1212930D01*
X564144Y1212909D01*
X564203Y1212878D01*
X564257Y1212870D01*
X564294Y1212858D01*
X564334Y1212859D01*
X564388Y1212851D01*
X566928Y1212851D01*
X566993Y1212862D01*
G37*
G36*
X307913Y1212862D02*
X307913Y1212862D01*
X307979Y1212864D01*
X308022Y1212882D01*
X308069Y1212890D01*
X308126Y1212924D01*
X308186Y1212949D01*
X308221Y1212980D01*
X308262Y1213005D01*
X308304Y1213056D01*
X308352Y1213100D01*
X308374Y1213142D01*
X308403Y1213179D01*
X308424Y1213241D01*
X308455Y1213300D01*
X308463Y1213354D01*
X308475Y1213391D01*
X308474Y1213431D01*
X308482Y1213485D01*
X308482Y1217295D01*
X308471Y1217360D01*
X308469Y1217426D01*
X308451Y1217469D01*
X308443Y1217516D01*
X308409Y1217573D01*
X308384Y1217633D01*
X308353Y1217668D01*
X308328Y1217709D01*
X308277Y1217751D01*
X308233Y1217799D01*
X308191Y1217821D01*
X308154Y1217850D01*
X308092Y1217871D01*
X308033Y1217902D01*
X307979Y1217910D01*
X307942Y1217922D01*
X307902Y1217921D01*
X307848Y1217929D01*
X305308Y1217929D01*
X305243Y1217918D01*
X305177Y1217916D01*
X305134Y1217898D01*
X305087Y1217890D01*
X305030Y1217856D01*
X304970Y1217831D01*
X304935Y1217800D01*
X304894Y1217775D01*
X304853Y1217724D01*
X304804Y1217680D01*
X304782Y1217638D01*
X304753Y1217601D01*
X304732Y1217539D01*
X304701Y1217480D01*
X304693Y1217426D01*
X304681Y1217389D01*
X304681Y1217385D01*
X304681Y1217384D01*
X304682Y1217349D01*
X304674Y1217295D01*
X304674Y1213485D01*
X304685Y1213420D01*
X304687Y1213354D01*
X304705Y1213311D01*
X304713Y1213264D01*
X304747Y1213207D01*
X304772Y1213147D01*
X304803Y1213112D01*
X304828Y1213071D01*
X304879Y1213030D01*
X304923Y1212981D01*
X304965Y1212959D01*
X305002Y1212930D01*
X305064Y1212909D01*
X305123Y1212878D01*
X305177Y1212870D01*
X305214Y1212858D01*
X305254Y1212859D01*
X305308Y1212851D01*
X307848Y1212851D01*
X307913Y1212862D01*
G37*
G36*
X826073Y1212862D02*
X826073Y1212862D01*
X826139Y1212864D01*
X826182Y1212882D01*
X826229Y1212890D01*
X826286Y1212924D01*
X826346Y1212949D01*
X826381Y1212980D01*
X826422Y1213005D01*
X826464Y1213056D01*
X826512Y1213100D01*
X826534Y1213142D01*
X826563Y1213179D01*
X826584Y1213241D01*
X826615Y1213300D01*
X826623Y1213354D01*
X826635Y1213391D01*
X826634Y1213431D01*
X826642Y1213485D01*
X826642Y1217295D01*
X826631Y1217360D01*
X826629Y1217426D01*
X826611Y1217469D01*
X826603Y1217516D01*
X826569Y1217573D01*
X826544Y1217633D01*
X826513Y1217668D01*
X826488Y1217709D01*
X826437Y1217751D01*
X826393Y1217799D01*
X826351Y1217821D01*
X826314Y1217850D01*
X826252Y1217871D01*
X826193Y1217902D01*
X826139Y1217910D01*
X826102Y1217922D01*
X826062Y1217921D01*
X826008Y1217929D01*
X823468Y1217929D01*
X823403Y1217918D01*
X823337Y1217916D01*
X823294Y1217898D01*
X823247Y1217890D01*
X823190Y1217856D01*
X823130Y1217831D01*
X823095Y1217800D01*
X823054Y1217775D01*
X823013Y1217724D01*
X822964Y1217680D01*
X822942Y1217638D01*
X822913Y1217601D01*
X822892Y1217539D01*
X822861Y1217480D01*
X822853Y1217426D01*
X822841Y1217389D01*
X822841Y1217385D01*
X822841Y1217384D01*
X822842Y1217349D01*
X822834Y1217295D01*
X822834Y1213485D01*
X822845Y1213420D01*
X822847Y1213354D01*
X822865Y1213311D01*
X822873Y1213264D01*
X822907Y1213207D01*
X822932Y1213147D01*
X822963Y1213112D01*
X822988Y1213071D01*
X823039Y1213030D01*
X823083Y1212981D01*
X823125Y1212959D01*
X823162Y1212930D01*
X823224Y1212909D01*
X823283Y1212878D01*
X823337Y1212870D01*
X823374Y1212858D01*
X823414Y1212859D01*
X823468Y1212851D01*
X826008Y1212851D01*
X826073Y1212862D01*
G37*
G36*
X48833Y1212862D02*
X48833Y1212862D01*
X48899Y1212864D01*
X48942Y1212882D01*
X48989Y1212890D01*
X49046Y1212924D01*
X49106Y1212949D01*
X49141Y1212980D01*
X49182Y1213005D01*
X49224Y1213056D01*
X49272Y1213100D01*
X49294Y1213142D01*
X49323Y1213179D01*
X49344Y1213241D01*
X49375Y1213300D01*
X49383Y1213354D01*
X49395Y1213391D01*
X49394Y1213431D01*
X49402Y1213485D01*
X49402Y1217295D01*
X49391Y1217360D01*
X49389Y1217426D01*
X49371Y1217469D01*
X49363Y1217516D01*
X49329Y1217573D01*
X49304Y1217633D01*
X49273Y1217668D01*
X49248Y1217709D01*
X49197Y1217751D01*
X49153Y1217799D01*
X49111Y1217821D01*
X49074Y1217850D01*
X49012Y1217871D01*
X48953Y1217902D01*
X48899Y1217910D01*
X48862Y1217922D01*
X48822Y1217921D01*
X48768Y1217929D01*
X46228Y1217929D01*
X46163Y1217918D01*
X46097Y1217916D01*
X46054Y1217898D01*
X46007Y1217890D01*
X45950Y1217856D01*
X45890Y1217831D01*
X45855Y1217800D01*
X45814Y1217775D01*
X45773Y1217724D01*
X45724Y1217680D01*
X45702Y1217638D01*
X45673Y1217601D01*
X45652Y1217539D01*
X45621Y1217480D01*
X45613Y1217426D01*
X45601Y1217389D01*
X45601Y1217385D01*
X45601Y1217384D01*
X45602Y1217349D01*
X45594Y1217295D01*
X45594Y1213485D01*
X45605Y1213420D01*
X45607Y1213354D01*
X45625Y1213311D01*
X45633Y1213264D01*
X45667Y1213207D01*
X45692Y1213147D01*
X45723Y1213112D01*
X45748Y1213071D01*
X45799Y1213030D01*
X45843Y1212981D01*
X45885Y1212959D01*
X45922Y1212930D01*
X45984Y1212909D01*
X46043Y1212878D01*
X46097Y1212870D01*
X46134Y1212858D01*
X46174Y1212859D01*
X46228Y1212851D01*
X48768Y1212851D01*
X48833Y1212862D01*
G37*
G36*
X307913Y1202702D02*
X307913Y1202702D01*
X307979Y1202704D01*
X308022Y1202722D01*
X308069Y1202730D01*
X308126Y1202764D01*
X308186Y1202789D01*
X308221Y1202820D01*
X308262Y1202845D01*
X308304Y1202896D01*
X308352Y1202940D01*
X308374Y1202982D01*
X308403Y1203019D01*
X308424Y1203081D01*
X308455Y1203140D01*
X308463Y1203194D01*
X308475Y1203231D01*
X308474Y1203271D01*
X308482Y1203325D01*
X308482Y1207135D01*
X308471Y1207200D01*
X308469Y1207266D01*
X308451Y1207309D01*
X308443Y1207356D01*
X308409Y1207413D01*
X308384Y1207473D01*
X308353Y1207508D01*
X308328Y1207549D01*
X308277Y1207591D01*
X308233Y1207639D01*
X308191Y1207661D01*
X308154Y1207690D01*
X308092Y1207711D01*
X308033Y1207742D01*
X307979Y1207750D01*
X307942Y1207762D01*
X307902Y1207761D01*
X307848Y1207769D01*
X305308Y1207769D01*
X305243Y1207758D01*
X305177Y1207756D01*
X305134Y1207738D01*
X305087Y1207730D01*
X305030Y1207696D01*
X304970Y1207671D01*
X304935Y1207640D01*
X304894Y1207615D01*
X304853Y1207564D01*
X304804Y1207520D01*
X304782Y1207478D01*
X304753Y1207441D01*
X304732Y1207379D01*
X304701Y1207320D01*
X304693Y1207266D01*
X304681Y1207229D01*
X304681Y1207225D01*
X304681Y1207224D01*
X304682Y1207189D01*
X304674Y1207135D01*
X304674Y1203325D01*
X304685Y1203260D01*
X304687Y1203194D01*
X304705Y1203151D01*
X304713Y1203104D01*
X304747Y1203047D01*
X304772Y1202987D01*
X304803Y1202952D01*
X304828Y1202911D01*
X304879Y1202870D01*
X304923Y1202821D01*
X304965Y1202799D01*
X305002Y1202770D01*
X305064Y1202749D01*
X305123Y1202718D01*
X305177Y1202710D01*
X305214Y1202698D01*
X305254Y1202699D01*
X305308Y1202691D01*
X307848Y1202691D01*
X307913Y1202702D01*
G37*
G36*
X48833Y1202702D02*
X48833Y1202702D01*
X48899Y1202704D01*
X48942Y1202722D01*
X48989Y1202730D01*
X49046Y1202764D01*
X49106Y1202789D01*
X49141Y1202820D01*
X49182Y1202845D01*
X49224Y1202896D01*
X49272Y1202940D01*
X49294Y1202982D01*
X49323Y1203019D01*
X49344Y1203081D01*
X49375Y1203140D01*
X49383Y1203194D01*
X49395Y1203231D01*
X49394Y1203271D01*
X49402Y1203325D01*
X49402Y1207135D01*
X49391Y1207200D01*
X49389Y1207266D01*
X49371Y1207309D01*
X49363Y1207356D01*
X49329Y1207413D01*
X49304Y1207473D01*
X49273Y1207508D01*
X49248Y1207549D01*
X49197Y1207591D01*
X49153Y1207639D01*
X49111Y1207661D01*
X49074Y1207690D01*
X49012Y1207711D01*
X48953Y1207742D01*
X48899Y1207750D01*
X48862Y1207762D01*
X48822Y1207761D01*
X48768Y1207769D01*
X46228Y1207769D01*
X46163Y1207758D01*
X46097Y1207756D01*
X46054Y1207738D01*
X46007Y1207730D01*
X45950Y1207696D01*
X45890Y1207671D01*
X45855Y1207640D01*
X45814Y1207615D01*
X45773Y1207564D01*
X45724Y1207520D01*
X45702Y1207478D01*
X45673Y1207441D01*
X45652Y1207379D01*
X45621Y1207320D01*
X45613Y1207266D01*
X45601Y1207229D01*
X45601Y1207225D01*
X45601Y1207224D01*
X45602Y1207189D01*
X45594Y1207135D01*
X45594Y1203325D01*
X45605Y1203260D01*
X45607Y1203194D01*
X45625Y1203151D01*
X45633Y1203104D01*
X45667Y1203047D01*
X45692Y1202987D01*
X45723Y1202952D01*
X45748Y1202911D01*
X45799Y1202870D01*
X45843Y1202821D01*
X45885Y1202799D01*
X45922Y1202770D01*
X45984Y1202749D01*
X46043Y1202718D01*
X46097Y1202710D01*
X46134Y1202698D01*
X46174Y1202699D01*
X46228Y1202691D01*
X48768Y1202691D01*
X48833Y1202702D01*
G37*
G36*
X48833Y176542D02*
X48833Y176542D01*
X48899Y176544D01*
X48942Y176562D01*
X48989Y176570D01*
X49046Y176604D01*
X49106Y176629D01*
X49141Y176660D01*
X49182Y176685D01*
X49224Y176736D01*
X49272Y176780D01*
X49294Y176822D01*
X49323Y176859D01*
X49344Y176921D01*
X49375Y176980D01*
X49383Y177034D01*
X49395Y177071D01*
X49394Y177111D01*
X49402Y177165D01*
X49402Y180975D01*
X49391Y181040D01*
X49389Y181106D01*
X49371Y181149D01*
X49363Y181196D01*
X49329Y181253D01*
X49304Y181313D01*
X49273Y181348D01*
X49248Y181389D01*
X49197Y181431D01*
X49153Y181479D01*
X49111Y181501D01*
X49074Y181530D01*
X49012Y181551D01*
X48953Y181582D01*
X48899Y181590D01*
X48862Y181602D01*
X48822Y181601D01*
X48768Y181609D01*
X46228Y181609D01*
X46163Y181598D01*
X46097Y181596D01*
X46054Y181578D01*
X46007Y181570D01*
X45950Y181536D01*
X45890Y181511D01*
X45855Y181480D01*
X45814Y181455D01*
X45773Y181404D01*
X45724Y181360D01*
X45702Y181318D01*
X45673Y181281D01*
X45652Y181219D01*
X45621Y181160D01*
X45613Y181106D01*
X45601Y181069D01*
X45601Y181065D01*
X45601Y181064D01*
X45602Y181029D01*
X45594Y180975D01*
X45594Y177165D01*
X45605Y177100D01*
X45607Y177034D01*
X45625Y176991D01*
X45633Y176944D01*
X45667Y176887D01*
X45692Y176827D01*
X45723Y176792D01*
X45748Y176751D01*
X45799Y176710D01*
X45843Y176661D01*
X45885Y176639D01*
X45922Y176610D01*
X45984Y176589D01*
X46043Y176558D01*
X46097Y176550D01*
X46134Y176538D01*
X46174Y176539D01*
X46228Y176531D01*
X48768Y176531D01*
X48833Y176542D01*
G37*
G36*
X566993Y1202702D02*
X566993Y1202702D01*
X567059Y1202704D01*
X567102Y1202722D01*
X567149Y1202730D01*
X567206Y1202764D01*
X567266Y1202789D01*
X567301Y1202820D01*
X567342Y1202845D01*
X567384Y1202896D01*
X567432Y1202940D01*
X567454Y1202982D01*
X567483Y1203019D01*
X567504Y1203081D01*
X567535Y1203140D01*
X567543Y1203194D01*
X567555Y1203231D01*
X567554Y1203271D01*
X567562Y1203325D01*
X567562Y1207135D01*
X567551Y1207200D01*
X567549Y1207266D01*
X567531Y1207309D01*
X567523Y1207356D01*
X567489Y1207413D01*
X567464Y1207473D01*
X567433Y1207508D01*
X567408Y1207549D01*
X567357Y1207591D01*
X567313Y1207639D01*
X567271Y1207661D01*
X567234Y1207690D01*
X567172Y1207711D01*
X567113Y1207742D01*
X567059Y1207750D01*
X567022Y1207762D01*
X566982Y1207761D01*
X566928Y1207769D01*
X564388Y1207769D01*
X564323Y1207758D01*
X564257Y1207756D01*
X564214Y1207738D01*
X564167Y1207730D01*
X564110Y1207696D01*
X564050Y1207671D01*
X564015Y1207640D01*
X563974Y1207615D01*
X563933Y1207564D01*
X563884Y1207520D01*
X563862Y1207478D01*
X563833Y1207441D01*
X563812Y1207379D01*
X563781Y1207320D01*
X563773Y1207266D01*
X563761Y1207229D01*
X563761Y1207225D01*
X563761Y1207224D01*
X563762Y1207189D01*
X563754Y1207135D01*
X563754Y1203325D01*
X563765Y1203260D01*
X563767Y1203194D01*
X563785Y1203151D01*
X563793Y1203104D01*
X563827Y1203047D01*
X563852Y1202987D01*
X563883Y1202952D01*
X563908Y1202911D01*
X563959Y1202870D01*
X564003Y1202821D01*
X564045Y1202799D01*
X564082Y1202770D01*
X564144Y1202749D01*
X564203Y1202718D01*
X564257Y1202710D01*
X564294Y1202698D01*
X564334Y1202699D01*
X564388Y1202691D01*
X566928Y1202691D01*
X566993Y1202702D01*
G37*
G36*
X48833Y953782D02*
X48833Y953782D01*
X48899Y953784D01*
X48942Y953802D01*
X48989Y953810D01*
X49046Y953844D01*
X49106Y953869D01*
X49141Y953900D01*
X49182Y953925D01*
X49224Y953976D01*
X49272Y954020D01*
X49294Y954062D01*
X49323Y954099D01*
X49344Y954161D01*
X49375Y954220D01*
X49383Y954274D01*
X49395Y954311D01*
X49394Y954351D01*
X49402Y954405D01*
X49402Y958215D01*
X49391Y958280D01*
X49389Y958346D01*
X49371Y958389D01*
X49363Y958436D01*
X49329Y958493D01*
X49304Y958553D01*
X49273Y958588D01*
X49248Y958629D01*
X49197Y958671D01*
X49153Y958719D01*
X49111Y958741D01*
X49074Y958770D01*
X49012Y958791D01*
X48953Y958822D01*
X48899Y958830D01*
X48862Y958842D01*
X48822Y958841D01*
X48768Y958849D01*
X46228Y958849D01*
X46163Y958838D01*
X46097Y958836D01*
X46054Y958818D01*
X46007Y958810D01*
X45950Y958776D01*
X45890Y958751D01*
X45855Y958720D01*
X45814Y958695D01*
X45773Y958644D01*
X45724Y958600D01*
X45702Y958558D01*
X45673Y958521D01*
X45652Y958459D01*
X45621Y958400D01*
X45613Y958346D01*
X45601Y958309D01*
X45601Y958305D01*
X45601Y958304D01*
X45602Y958269D01*
X45594Y958215D01*
X45594Y954405D01*
X45605Y954340D01*
X45607Y954274D01*
X45625Y954231D01*
X45633Y954184D01*
X45667Y954127D01*
X45692Y954067D01*
X45723Y954032D01*
X45748Y953991D01*
X45799Y953950D01*
X45843Y953901D01*
X45885Y953879D01*
X45922Y953850D01*
X45984Y953829D01*
X46043Y953798D01*
X46097Y953790D01*
X46134Y953778D01*
X46174Y953779D01*
X46228Y953771D01*
X48768Y953771D01*
X48833Y953782D01*
G37*
G36*
X307913Y953782D02*
X307913Y953782D01*
X307979Y953784D01*
X308022Y953802D01*
X308069Y953810D01*
X308126Y953844D01*
X308186Y953869D01*
X308221Y953900D01*
X308262Y953925D01*
X308304Y953976D01*
X308352Y954020D01*
X308374Y954062D01*
X308403Y954099D01*
X308424Y954161D01*
X308455Y954220D01*
X308463Y954274D01*
X308475Y954311D01*
X308474Y954351D01*
X308482Y954405D01*
X308482Y958215D01*
X308471Y958280D01*
X308469Y958346D01*
X308451Y958389D01*
X308443Y958436D01*
X308409Y958493D01*
X308384Y958553D01*
X308353Y958588D01*
X308328Y958629D01*
X308277Y958671D01*
X308233Y958719D01*
X308191Y958741D01*
X308154Y958770D01*
X308092Y958791D01*
X308033Y958822D01*
X307979Y958830D01*
X307942Y958842D01*
X307902Y958841D01*
X307848Y958849D01*
X305308Y958849D01*
X305243Y958838D01*
X305177Y958836D01*
X305134Y958818D01*
X305087Y958810D01*
X305030Y958776D01*
X304970Y958751D01*
X304935Y958720D01*
X304894Y958695D01*
X304853Y958644D01*
X304804Y958600D01*
X304782Y958558D01*
X304753Y958521D01*
X304732Y958459D01*
X304701Y958400D01*
X304693Y958346D01*
X304681Y958309D01*
X304681Y958305D01*
X304681Y958304D01*
X304682Y958269D01*
X304674Y958215D01*
X304674Y954405D01*
X304685Y954340D01*
X304687Y954274D01*
X304705Y954231D01*
X304713Y954184D01*
X304747Y954127D01*
X304772Y954067D01*
X304803Y954032D01*
X304828Y953991D01*
X304879Y953950D01*
X304923Y953901D01*
X304965Y953879D01*
X305002Y953850D01*
X305064Y953829D01*
X305123Y953798D01*
X305177Y953790D01*
X305214Y953778D01*
X305254Y953779D01*
X305308Y953771D01*
X307848Y953771D01*
X307913Y953782D01*
G37*
G36*
X566993Y953782D02*
X566993Y953782D01*
X567059Y953784D01*
X567102Y953802D01*
X567149Y953810D01*
X567206Y953844D01*
X567266Y953869D01*
X567301Y953900D01*
X567342Y953925D01*
X567384Y953976D01*
X567432Y954020D01*
X567454Y954062D01*
X567483Y954099D01*
X567504Y954161D01*
X567535Y954220D01*
X567543Y954274D01*
X567555Y954311D01*
X567554Y954351D01*
X567562Y954405D01*
X567562Y958215D01*
X567551Y958280D01*
X567549Y958346D01*
X567531Y958389D01*
X567523Y958436D01*
X567489Y958493D01*
X567464Y958553D01*
X567433Y958588D01*
X567408Y958629D01*
X567357Y958671D01*
X567313Y958719D01*
X567271Y958741D01*
X567234Y958770D01*
X567172Y958791D01*
X567113Y958822D01*
X567059Y958830D01*
X567022Y958842D01*
X566982Y958841D01*
X566928Y958849D01*
X564388Y958849D01*
X564323Y958838D01*
X564257Y958836D01*
X564214Y958818D01*
X564167Y958810D01*
X564110Y958776D01*
X564050Y958751D01*
X564015Y958720D01*
X563974Y958695D01*
X563933Y958644D01*
X563884Y958600D01*
X563862Y958558D01*
X563833Y958521D01*
X563812Y958459D01*
X563781Y958400D01*
X563773Y958346D01*
X563761Y958309D01*
X563761Y958305D01*
X563761Y958304D01*
X563762Y958269D01*
X563754Y958215D01*
X563754Y954405D01*
X563765Y954340D01*
X563767Y954274D01*
X563785Y954231D01*
X563793Y954184D01*
X563827Y954127D01*
X563852Y954067D01*
X563883Y954032D01*
X563908Y953991D01*
X563959Y953950D01*
X564003Y953901D01*
X564045Y953879D01*
X564082Y953850D01*
X564144Y953829D01*
X564203Y953798D01*
X564257Y953790D01*
X564294Y953778D01*
X564334Y953779D01*
X564388Y953771D01*
X566928Y953771D01*
X566993Y953782D01*
G37*
G36*
X826073Y953782D02*
X826073Y953782D01*
X826139Y953784D01*
X826182Y953802D01*
X826229Y953810D01*
X826286Y953844D01*
X826346Y953869D01*
X826381Y953900D01*
X826422Y953925D01*
X826464Y953976D01*
X826512Y954020D01*
X826534Y954062D01*
X826563Y954099D01*
X826584Y954161D01*
X826615Y954220D01*
X826623Y954274D01*
X826635Y954311D01*
X826634Y954351D01*
X826642Y954405D01*
X826642Y958215D01*
X826631Y958280D01*
X826629Y958346D01*
X826611Y958389D01*
X826603Y958436D01*
X826569Y958493D01*
X826544Y958553D01*
X826513Y958588D01*
X826488Y958629D01*
X826437Y958671D01*
X826393Y958719D01*
X826351Y958741D01*
X826314Y958770D01*
X826252Y958791D01*
X826193Y958822D01*
X826139Y958830D01*
X826102Y958842D01*
X826062Y958841D01*
X826008Y958849D01*
X823468Y958849D01*
X823403Y958838D01*
X823337Y958836D01*
X823294Y958818D01*
X823247Y958810D01*
X823190Y958776D01*
X823130Y958751D01*
X823095Y958720D01*
X823054Y958695D01*
X823013Y958644D01*
X822964Y958600D01*
X822942Y958558D01*
X822913Y958521D01*
X822892Y958459D01*
X822861Y958400D01*
X822853Y958346D01*
X822841Y958309D01*
X822841Y958305D01*
X822841Y958304D01*
X822842Y958269D01*
X822834Y958215D01*
X822834Y954405D01*
X822845Y954340D01*
X822847Y954274D01*
X822865Y954231D01*
X822873Y954184D01*
X822907Y954127D01*
X822932Y954067D01*
X822963Y954032D01*
X822988Y953991D01*
X823039Y953950D01*
X823083Y953901D01*
X823125Y953879D01*
X823162Y953850D01*
X823224Y953829D01*
X823283Y953798D01*
X823337Y953790D01*
X823374Y953778D01*
X823414Y953779D01*
X823468Y953771D01*
X826008Y953771D01*
X826073Y953782D01*
G37*
G36*
X826073Y694702D02*
X826073Y694702D01*
X826139Y694704D01*
X826182Y694722D01*
X826229Y694730D01*
X826286Y694764D01*
X826346Y694789D01*
X826381Y694820D01*
X826422Y694845D01*
X826464Y694896D01*
X826512Y694940D01*
X826534Y694982D01*
X826563Y695019D01*
X826584Y695081D01*
X826615Y695140D01*
X826623Y695194D01*
X826635Y695231D01*
X826634Y695271D01*
X826642Y695325D01*
X826642Y699135D01*
X826631Y699200D01*
X826629Y699266D01*
X826611Y699309D01*
X826603Y699356D01*
X826569Y699413D01*
X826544Y699473D01*
X826513Y699508D01*
X826488Y699549D01*
X826437Y699591D01*
X826393Y699639D01*
X826351Y699661D01*
X826314Y699690D01*
X826252Y699711D01*
X826193Y699742D01*
X826139Y699750D01*
X826102Y699762D01*
X826062Y699761D01*
X826008Y699769D01*
X823468Y699769D01*
X823403Y699758D01*
X823337Y699756D01*
X823294Y699738D01*
X823247Y699730D01*
X823190Y699696D01*
X823130Y699671D01*
X823095Y699640D01*
X823054Y699615D01*
X823013Y699564D01*
X822964Y699520D01*
X822942Y699478D01*
X822913Y699441D01*
X822892Y699379D01*
X822861Y699320D01*
X822853Y699266D01*
X822841Y699229D01*
X822841Y699225D01*
X822841Y699224D01*
X822842Y699189D01*
X822834Y699135D01*
X822834Y695325D01*
X822845Y695260D01*
X822847Y695194D01*
X822865Y695151D01*
X822873Y695104D01*
X822907Y695047D01*
X822932Y694987D01*
X822963Y694952D01*
X822988Y694911D01*
X823039Y694870D01*
X823083Y694821D01*
X823125Y694799D01*
X823162Y694770D01*
X823224Y694749D01*
X823283Y694718D01*
X823337Y694710D01*
X823374Y694698D01*
X823414Y694699D01*
X823468Y694691D01*
X826008Y694691D01*
X826073Y694702D01*
G37*
G36*
X566993Y694702D02*
X566993Y694702D01*
X567059Y694704D01*
X567102Y694722D01*
X567149Y694730D01*
X567206Y694764D01*
X567266Y694789D01*
X567301Y694820D01*
X567342Y694845D01*
X567384Y694896D01*
X567432Y694940D01*
X567454Y694982D01*
X567483Y695019D01*
X567504Y695081D01*
X567535Y695140D01*
X567543Y695194D01*
X567555Y695231D01*
X567554Y695271D01*
X567562Y695325D01*
X567562Y699135D01*
X567551Y699200D01*
X567549Y699266D01*
X567531Y699309D01*
X567523Y699356D01*
X567489Y699413D01*
X567464Y699473D01*
X567433Y699508D01*
X567408Y699549D01*
X567357Y699591D01*
X567313Y699639D01*
X567271Y699661D01*
X567234Y699690D01*
X567172Y699711D01*
X567113Y699742D01*
X567059Y699750D01*
X567022Y699762D01*
X566982Y699761D01*
X566928Y699769D01*
X564388Y699769D01*
X564323Y699758D01*
X564257Y699756D01*
X564214Y699738D01*
X564167Y699730D01*
X564110Y699696D01*
X564050Y699671D01*
X564015Y699640D01*
X563974Y699615D01*
X563933Y699564D01*
X563884Y699520D01*
X563862Y699478D01*
X563833Y699441D01*
X563812Y699379D01*
X563781Y699320D01*
X563773Y699266D01*
X563761Y699229D01*
X563761Y699225D01*
X563761Y699224D01*
X563762Y699189D01*
X563754Y699135D01*
X563754Y695325D01*
X563765Y695260D01*
X563767Y695194D01*
X563785Y695151D01*
X563793Y695104D01*
X563827Y695047D01*
X563852Y694987D01*
X563883Y694952D01*
X563908Y694911D01*
X563959Y694870D01*
X564003Y694821D01*
X564045Y694799D01*
X564082Y694770D01*
X564144Y694749D01*
X564203Y694718D01*
X564257Y694710D01*
X564294Y694698D01*
X564334Y694699D01*
X564388Y694691D01*
X566928Y694691D01*
X566993Y694702D01*
G37*
G36*
X48833Y694702D02*
X48833Y694702D01*
X48899Y694704D01*
X48942Y694722D01*
X48989Y694730D01*
X49046Y694764D01*
X49106Y694789D01*
X49141Y694820D01*
X49182Y694845D01*
X49224Y694896D01*
X49272Y694940D01*
X49294Y694982D01*
X49323Y695019D01*
X49344Y695081D01*
X49375Y695140D01*
X49383Y695194D01*
X49395Y695231D01*
X49394Y695271D01*
X49402Y695325D01*
X49402Y699135D01*
X49391Y699200D01*
X49389Y699266D01*
X49371Y699309D01*
X49363Y699356D01*
X49329Y699413D01*
X49304Y699473D01*
X49273Y699508D01*
X49248Y699549D01*
X49197Y699591D01*
X49153Y699639D01*
X49111Y699661D01*
X49074Y699690D01*
X49012Y699711D01*
X48953Y699742D01*
X48899Y699750D01*
X48862Y699762D01*
X48822Y699761D01*
X48768Y699769D01*
X46228Y699769D01*
X46163Y699758D01*
X46097Y699756D01*
X46054Y699738D01*
X46007Y699730D01*
X45950Y699696D01*
X45890Y699671D01*
X45855Y699640D01*
X45814Y699615D01*
X45773Y699564D01*
X45724Y699520D01*
X45702Y699478D01*
X45673Y699441D01*
X45652Y699379D01*
X45621Y699320D01*
X45613Y699266D01*
X45601Y699229D01*
X45601Y699225D01*
X45601Y699224D01*
X45602Y699189D01*
X45594Y699135D01*
X45594Y695325D01*
X45605Y695260D01*
X45607Y695194D01*
X45625Y695151D01*
X45633Y695104D01*
X45667Y695047D01*
X45692Y694987D01*
X45723Y694952D01*
X45748Y694911D01*
X45799Y694870D01*
X45843Y694821D01*
X45885Y694799D01*
X45922Y694770D01*
X45984Y694749D01*
X46043Y694718D01*
X46097Y694710D01*
X46134Y694698D01*
X46174Y694699D01*
X46228Y694691D01*
X48768Y694691D01*
X48833Y694702D01*
G37*
G36*
X307913Y694702D02*
X307913Y694702D01*
X307979Y694704D01*
X308022Y694722D01*
X308069Y694730D01*
X308126Y694764D01*
X308186Y694789D01*
X308221Y694820D01*
X308262Y694845D01*
X308304Y694896D01*
X308352Y694940D01*
X308374Y694982D01*
X308403Y695019D01*
X308424Y695081D01*
X308455Y695140D01*
X308463Y695194D01*
X308475Y695231D01*
X308474Y695271D01*
X308482Y695325D01*
X308482Y699135D01*
X308471Y699200D01*
X308469Y699266D01*
X308451Y699309D01*
X308443Y699356D01*
X308409Y699413D01*
X308384Y699473D01*
X308353Y699508D01*
X308328Y699549D01*
X308277Y699591D01*
X308233Y699639D01*
X308191Y699661D01*
X308154Y699690D01*
X308092Y699711D01*
X308033Y699742D01*
X307979Y699750D01*
X307942Y699762D01*
X307902Y699761D01*
X307848Y699769D01*
X305308Y699769D01*
X305243Y699758D01*
X305177Y699756D01*
X305134Y699738D01*
X305087Y699730D01*
X305030Y699696D01*
X304970Y699671D01*
X304935Y699640D01*
X304894Y699615D01*
X304853Y699564D01*
X304804Y699520D01*
X304782Y699478D01*
X304753Y699441D01*
X304732Y699379D01*
X304701Y699320D01*
X304693Y699266D01*
X304681Y699229D01*
X304681Y699225D01*
X304681Y699224D01*
X304682Y699189D01*
X304674Y699135D01*
X304674Y695325D01*
X304685Y695260D01*
X304687Y695194D01*
X304705Y695151D01*
X304713Y695104D01*
X304747Y695047D01*
X304772Y694987D01*
X304803Y694952D01*
X304828Y694911D01*
X304879Y694870D01*
X304923Y694821D01*
X304965Y694799D01*
X305002Y694770D01*
X305064Y694749D01*
X305123Y694718D01*
X305177Y694710D01*
X305214Y694698D01*
X305254Y694699D01*
X305308Y694691D01*
X307848Y694691D01*
X307913Y694702D01*
G37*
G36*
X307913Y684542D02*
X307913Y684542D01*
X307979Y684544D01*
X308022Y684562D01*
X308069Y684570D01*
X308126Y684604D01*
X308186Y684629D01*
X308221Y684660D01*
X308262Y684685D01*
X308304Y684736D01*
X308352Y684780D01*
X308374Y684822D01*
X308403Y684859D01*
X308424Y684921D01*
X308455Y684980D01*
X308463Y685034D01*
X308475Y685071D01*
X308474Y685111D01*
X308482Y685165D01*
X308482Y688975D01*
X308471Y689040D01*
X308469Y689106D01*
X308451Y689149D01*
X308443Y689196D01*
X308409Y689253D01*
X308384Y689313D01*
X308353Y689348D01*
X308328Y689389D01*
X308277Y689431D01*
X308233Y689479D01*
X308191Y689501D01*
X308154Y689530D01*
X308092Y689551D01*
X308033Y689582D01*
X307979Y689590D01*
X307942Y689602D01*
X307902Y689601D01*
X307848Y689609D01*
X305308Y689609D01*
X305243Y689598D01*
X305177Y689596D01*
X305134Y689578D01*
X305087Y689570D01*
X305030Y689536D01*
X304970Y689511D01*
X304935Y689480D01*
X304894Y689455D01*
X304853Y689404D01*
X304804Y689360D01*
X304782Y689318D01*
X304753Y689281D01*
X304732Y689219D01*
X304701Y689160D01*
X304693Y689106D01*
X304681Y689069D01*
X304681Y689065D01*
X304681Y689064D01*
X304682Y689029D01*
X304674Y688975D01*
X304674Y685165D01*
X304685Y685100D01*
X304687Y685034D01*
X304705Y684991D01*
X304713Y684944D01*
X304747Y684887D01*
X304772Y684827D01*
X304803Y684792D01*
X304828Y684751D01*
X304879Y684710D01*
X304923Y684661D01*
X304965Y684639D01*
X305002Y684610D01*
X305064Y684589D01*
X305123Y684558D01*
X305177Y684550D01*
X305214Y684538D01*
X305254Y684539D01*
X305308Y684531D01*
X307848Y684531D01*
X307913Y684542D01*
G37*
G36*
X826073Y684542D02*
X826073Y684542D01*
X826139Y684544D01*
X826182Y684562D01*
X826229Y684570D01*
X826286Y684604D01*
X826346Y684629D01*
X826381Y684660D01*
X826422Y684685D01*
X826464Y684736D01*
X826512Y684780D01*
X826534Y684822D01*
X826563Y684859D01*
X826584Y684921D01*
X826615Y684980D01*
X826623Y685034D01*
X826635Y685071D01*
X826634Y685111D01*
X826642Y685165D01*
X826642Y688975D01*
X826631Y689040D01*
X826629Y689106D01*
X826611Y689149D01*
X826603Y689196D01*
X826569Y689253D01*
X826544Y689313D01*
X826513Y689348D01*
X826488Y689389D01*
X826437Y689431D01*
X826393Y689479D01*
X826351Y689501D01*
X826314Y689530D01*
X826252Y689551D01*
X826193Y689582D01*
X826139Y689590D01*
X826102Y689602D01*
X826062Y689601D01*
X826008Y689609D01*
X823468Y689609D01*
X823403Y689598D01*
X823337Y689596D01*
X823294Y689578D01*
X823247Y689570D01*
X823190Y689536D01*
X823130Y689511D01*
X823095Y689480D01*
X823054Y689455D01*
X823013Y689404D01*
X822964Y689360D01*
X822942Y689318D01*
X822913Y689281D01*
X822892Y689219D01*
X822861Y689160D01*
X822853Y689106D01*
X822841Y689069D01*
X822841Y689065D01*
X822841Y689064D01*
X822842Y689029D01*
X822834Y688975D01*
X822834Y685165D01*
X822845Y685100D01*
X822847Y685034D01*
X822865Y684991D01*
X822873Y684944D01*
X822907Y684887D01*
X822932Y684827D01*
X822963Y684792D01*
X822988Y684751D01*
X823039Y684710D01*
X823083Y684661D01*
X823125Y684639D01*
X823162Y684610D01*
X823224Y684589D01*
X823283Y684558D01*
X823337Y684550D01*
X823374Y684538D01*
X823414Y684539D01*
X823468Y684531D01*
X826008Y684531D01*
X826073Y684542D01*
G37*
G36*
X48833Y684542D02*
X48833Y684542D01*
X48899Y684544D01*
X48942Y684562D01*
X48989Y684570D01*
X49046Y684604D01*
X49106Y684629D01*
X49141Y684660D01*
X49182Y684685D01*
X49224Y684736D01*
X49272Y684780D01*
X49294Y684822D01*
X49323Y684859D01*
X49344Y684921D01*
X49375Y684980D01*
X49383Y685034D01*
X49395Y685071D01*
X49394Y685111D01*
X49402Y685165D01*
X49402Y688975D01*
X49391Y689040D01*
X49389Y689106D01*
X49371Y689149D01*
X49363Y689196D01*
X49329Y689253D01*
X49304Y689313D01*
X49273Y689348D01*
X49248Y689389D01*
X49197Y689431D01*
X49153Y689479D01*
X49111Y689501D01*
X49074Y689530D01*
X49012Y689551D01*
X48953Y689582D01*
X48899Y689590D01*
X48862Y689602D01*
X48822Y689601D01*
X48768Y689609D01*
X46228Y689609D01*
X46163Y689598D01*
X46097Y689596D01*
X46054Y689578D01*
X46007Y689570D01*
X45950Y689536D01*
X45890Y689511D01*
X45855Y689480D01*
X45814Y689455D01*
X45773Y689404D01*
X45724Y689360D01*
X45702Y689318D01*
X45673Y689281D01*
X45652Y689219D01*
X45621Y689160D01*
X45613Y689106D01*
X45601Y689069D01*
X45601Y689065D01*
X45601Y689064D01*
X45602Y689029D01*
X45594Y688975D01*
X45594Y685165D01*
X45605Y685100D01*
X45607Y685034D01*
X45625Y684991D01*
X45633Y684944D01*
X45667Y684887D01*
X45692Y684827D01*
X45723Y684792D01*
X45748Y684751D01*
X45799Y684710D01*
X45843Y684661D01*
X45885Y684639D01*
X45922Y684610D01*
X45984Y684589D01*
X46043Y684558D01*
X46097Y684550D01*
X46134Y684538D01*
X46174Y684539D01*
X46228Y684531D01*
X48768Y684531D01*
X48833Y684542D01*
G37*
G36*
X566993Y684542D02*
X566993Y684542D01*
X567059Y684544D01*
X567102Y684562D01*
X567149Y684570D01*
X567206Y684604D01*
X567266Y684629D01*
X567301Y684660D01*
X567342Y684685D01*
X567384Y684736D01*
X567432Y684780D01*
X567454Y684822D01*
X567483Y684859D01*
X567504Y684921D01*
X567535Y684980D01*
X567543Y685034D01*
X567555Y685071D01*
X567554Y685111D01*
X567562Y685165D01*
X567562Y688975D01*
X567551Y689040D01*
X567549Y689106D01*
X567531Y689149D01*
X567523Y689196D01*
X567489Y689253D01*
X567464Y689313D01*
X567433Y689348D01*
X567408Y689389D01*
X567357Y689431D01*
X567313Y689479D01*
X567271Y689501D01*
X567234Y689530D01*
X567172Y689551D01*
X567113Y689582D01*
X567059Y689590D01*
X567022Y689602D01*
X566982Y689601D01*
X566928Y689609D01*
X564388Y689609D01*
X564323Y689598D01*
X564257Y689596D01*
X564214Y689578D01*
X564167Y689570D01*
X564110Y689536D01*
X564050Y689511D01*
X564015Y689480D01*
X563974Y689455D01*
X563933Y689404D01*
X563884Y689360D01*
X563862Y689318D01*
X563833Y689281D01*
X563812Y689219D01*
X563781Y689160D01*
X563773Y689106D01*
X563761Y689069D01*
X563761Y689065D01*
X563761Y689064D01*
X563762Y689029D01*
X563754Y688975D01*
X563754Y685165D01*
X563765Y685100D01*
X563767Y685034D01*
X563785Y684991D01*
X563793Y684944D01*
X563827Y684887D01*
X563852Y684827D01*
X563883Y684792D01*
X563908Y684751D01*
X563959Y684710D01*
X564003Y684661D01*
X564045Y684639D01*
X564082Y684610D01*
X564144Y684589D01*
X564203Y684558D01*
X564257Y684550D01*
X564294Y684538D01*
X564334Y684539D01*
X564388Y684531D01*
X566928Y684531D01*
X566993Y684542D01*
G37*
G36*
X826073Y435622D02*
X826073Y435622D01*
X826139Y435624D01*
X826182Y435642D01*
X826229Y435650D01*
X826286Y435684D01*
X826346Y435709D01*
X826381Y435740D01*
X826422Y435765D01*
X826464Y435816D01*
X826512Y435860D01*
X826534Y435902D01*
X826563Y435939D01*
X826584Y436001D01*
X826615Y436060D01*
X826623Y436114D01*
X826635Y436151D01*
X826634Y436191D01*
X826642Y436245D01*
X826642Y440055D01*
X826631Y440120D01*
X826629Y440186D01*
X826611Y440229D01*
X826603Y440276D01*
X826569Y440333D01*
X826544Y440393D01*
X826513Y440428D01*
X826488Y440469D01*
X826437Y440511D01*
X826393Y440559D01*
X826351Y440581D01*
X826314Y440610D01*
X826252Y440631D01*
X826193Y440662D01*
X826139Y440670D01*
X826102Y440682D01*
X826062Y440681D01*
X826008Y440689D01*
X823468Y440689D01*
X823403Y440678D01*
X823337Y440676D01*
X823294Y440658D01*
X823247Y440650D01*
X823190Y440616D01*
X823130Y440591D01*
X823095Y440560D01*
X823054Y440535D01*
X823013Y440484D01*
X822964Y440440D01*
X822942Y440398D01*
X822913Y440361D01*
X822892Y440299D01*
X822861Y440240D01*
X822853Y440186D01*
X822841Y440149D01*
X822841Y440145D01*
X822841Y440144D01*
X822842Y440109D01*
X822834Y440055D01*
X822834Y436245D01*
X822845Y436180D01*
X822847Y436114D01*
X822865Y436071D01*
X822873Y436024D01*
X822907Y435967D01*
X822932Y435907D01*
X822963Y435872D01*
X822988Y435831D01*
X823039Y435790D01*
X823083Y435741D01*
X823125Y435719D01*
X823162Y435690D01*
X823224Y435669D01*
X823283Y435638D01*
X823337Y435630D01*
X823374Y435618D01*
X823414Y435619D01*
X823468Y435611D01*
X826008Y435611D01*
X826073Y435622D01*
G37*
G36*
X566993Y435622D02*
X566993Y435622D01*
X567059Y435624D01*
X567102Y435642D01*
X567149Y435650D01*
X567206Y435684D01*
X567266Y435709D01*
X567301Y435740D01*
X567342Y435765D01*
X567384Y435816D01*
X567432Y435860D01*
X567454Y435902D01*
X567483Y435939D01*
X567504Y436001D01*
X567535Y436060D01*
X567543Y436114D01*
X567555Y436151D01*
X567554Y436191D01*
X567562Y436245D01*
X567562Y440055D01*
X567551Y440120D01*
X567549Y440186D01*
X567531Y440229D01*
X567523Y440276D01*
X567489Y440333D01*
X567464Y440393D01*
X567433Y440428D01*
X567408Y440469D01*
X567357Y440511D01*
X567313Y440559D01*
X567271Y440581D01*
X567234Y440610D01*
X567172Y440631D01*
X567113Y440662D01*
X567059Y440670D01*
X567022Y440682D01*
X566982Y440681D01*
X566928Y440689D01*
X564388Y440689D01*
X564323Y440678D01*
X564257Y440676D01*
X564214Y440658D01*
X564167Y440650D01*
X564110Y440616D01*
X564050Y440591D01*
X564015Y440560D01*
X563974Y440535D01*
X563933Y440484D01*
X563884Y440440D01*
X563862Y440398D01*
X563833Y440361D01*
X563812Y440299D01*
X563781Y440240D01*
X563773Y440186D01*
X563761Y440149D01*
X563761Y440145D01*
X563761Y440144D01*
X563762Y440109D01*
X563754Y440055D01*
X563754Y436245D01*
X563765Y436180D01*
X563767Y436114D01*
X563785Y436071D01*
X563793Y436024D01*
X563827Y435967D01*
X563852Y435907D01*
X563883Y435872D01*
X563908Y435831D01*
X563959Y435790D01*
X564003Y435741D01*
X564045Y435719D01*
X564082Y435690D01*
X564144Y435669D01*
X564203Y435638D01*
X564257Y435630D01*
X564294Y435618D01*
X564334Y435619D01*
X564388Y435611D01*
X566928Y435611D01*
X566993Y435622D01*
G37*
G36*
X48833Y435622D02*
X48833Y435622D01*
X48899Y435624D01*
X48942Y435642D01*
X48989Y435650D01*
X49046Y435684D01*
X49106Y435709D01*
X49141Y435740D01*
X49182Y435765D01*
X49224Y435816D01*
X49272Y435860D01*
X49294Y435902D01*
X49323Y435939D01*
X49344Y436001D01*
X49375Y436060D01*
X49383Y436114D01*
X49395Y436151D01*
X49394Y436191D01*
X49402Y436245D01*
X49402Y440055D01*
X49391Y440120D01*
X49389Y440186D01*
X49371Y440229D01*
X49363Y440276D01*
X49329Y440333D01*
X49304Y440393D01*
X49273Y440428D01*
X49248Y440469D01*
X49197Y440511D01*
X49153Y440559D01*
X49111Y440581D01*
X49074Y440610D01*
X49012Y440631D01*
X48953Y440662D01*
X48899Y440670D01*
X48862Y440682D01*
X48822Y440681D01*
X48768Y440689D01*
X46228Y440689D01*
X46163Y440678D01*
X46097Y440676D01*
X46054Y440658D01*
X46007Y440650D01*
X45950Y440616D01*
X45890Y440591D01*
X45855Y440560D01*
X45814Y440535D01*
X45773Y440484D01*
X45724Y440440D01*
X45702Y440398D01*
X45673Y440361D01*
X45652Y440299D01*
X45621Y440240D01*
X45613Y440186D01*
X45601Y440149D01*
X45601Y440145D01*
X45601Y440144D01*
X45602Y440109D01*
X45594Y440055D01*
X45594Y436245D01*
X45605Y436180D01*
X45607Y436114D01*
X45625Y436071D01*
X45633Y436024D01*
X45667Y435967D01*
X45692Y435907D01*
X45723Y435872D01*
X45748Y435831D01*
X45799Y435790D01*
X45843Y435741D01*
X45885Y435719D01*
X45922Y435690D01*
X45984Y435669D01*
X46043Y435638D01*
X46097Y435630D01*
X46134Y435618D01*
X46174Y435619D01*
X46228Y435611D01*
X48768Y435611D01*
X48833Y435622D01*
G37*
G36*
X307913Y435622D02*
X307913Y435622D01*
X307979Y435624D01*
X308022Y435642D01*
X308069Y435650D01*
X308126Y435684D01*
X308186Y435709D01*
X308221Y435740D01*
X308262Y435765D01*
X308304Y435816D01*
X308352Y435860D01*
X308374Y435902D01*
X308403Y435939D01*
X308424Y436001D01*
X308455Y436060D01*
X308463Y436114D01*
X308475Y436151D01*
X308474Y436191D01*
X308482Y436245D01*
X308482Y440055D01*
X308471Y440120D01*
X308469Y440186D01*
X308451Y440229D01*
X308443Y440276D01*
X308409Y440333D01*
X308384Y440393D01*
X308353Y440428D01*
X308328Y440469D01*
X308277Y440511D01*
X308233Y440559D01*
X308191Y440581D01*
X308154Y440610D01*
X308092Y440631D01*
X308033Y440662D01*
X307979Y440670D01*
X307942Y440682D01*
X307902Y440681D01*
X307848Y440689D01*
X305308Y440689D01*
X305243Y440678D01*
X305177Y440676D01*
X305134Y440658D01*
X305087Y440650D01*
X305030Y440616D01*
X304970Y440591D01*
X304935Y440560D01*
X304894Y440535D01*
X304853Y440484D01*
X304804Y440440D01*
X304782Y440398D01*
X304753Y440361D01*
X304732Y440299D01*
X304701Y440240D01*
X304693Y440186D01*
X304681Y440149D01*
X304681Y440145D01*
X304681Y440144D01*
X304682Y440109D01*
X304674Y440055D01*
X304674Y436245D01*
X304685Y436180D01*
X304687Y436114D01*
X304705Y436071D01*
X304713Y436024D01*
X304747Y435967D01*
X304772Y435907D01*
X304803Y435872D01*
X304828Y435831D01*
X304879Y435790D01*
X304923Y435741D01*
X304965Y435719D01*
X305002Y435690D01*
X305064Y435669D01*
X305123Y435638D01*
X305177Y435630D01*
X305214Y435618D01*
X305254Y435619D01*
X305308Y435611D01*
X307848Y435611D01*
X307913Y435622D01*
G37*
G36*
X550610Y1373517D02*
X550610Y1373517D01*
X550676Y1373519D01*
X550719Y1373537D01*
X550766Y1373545D01*
X550823Y1373579D01*
X550883Y1373604D01*
X550918Y1373635D01*
X550959Y1373660D01*
X551001Y1373711D01*
X551049Y1373755D01*
X551071Y1373797D01*
X551100Y1373834D01*
X551121Y1373896D01*
X551152Y1373955D01*
X551160Y1374009D01*
X551172Y1374046D01*
X551171Y1374086D01*
X551179Y1374140D01*
X551179Y1376680D01*
X551168Y1376745D01*
X551166Y1376811D01*
X551148Y1376854D01*
X551140Y1376901D01*
X551106Y1376958D01*
X551081Y1377018D01*
X551050Y1377053D01*
X551025Y1377094D01*
X550974Y1377136D01*
X550930Y1377184D01*
X550888Y1377206D01*
X550851Y1377235D01*
X550789Y1377256D01*
X550730Y1377287D01*
X550676Y1377295D01*
X550639Y1377307D01*
X550599Y1377306D01*
X550545Y1377314D01*
X546735Y1377314D01*
X546670Y1377303D01*
X546604Y1377301D01*
X546561Y1377283D01*
X546514Y1377275D01*
X546457Y1377241D01*
X546397Y1377216D01*
X546362Y1377185D01*
X546321Y1377160D01*
X546280Y1377109D01*
X546231Y1377065D01*
X546209Y1377023D01*
X546180Y1376986D01*
X546159Y1376924D01*
X546128Y1376865D01*
X546120Y1376811D01*
X546108Y1376774D01*
X546108Y1376771D01*
X546109Y1376734D01*
X546101Y1376680D01*
X546101Y1374140D01*
X546112Y1374075D01*
X546114Y1374009D01*
X546132Y1373966D01*
X546140Y1373919D01*
X546174Y1373862D01*
X546199Y1373802D01*
X546230Y1373767D01*
X546255Y1373726D01*
X546306Y1373685D01*
X546350Y1373636D01*
X546392Y1373614D01*
X546429Y1373585D01*
X546491Y1373564D01*
X546550Y1373533D01*
X546604Y1373525D01*
X546641Y1373513D01*
X546681Y1373514D01*
X546735Y1373506D01*
X550545Y1373506D01*
X550610Y1373517D01*
G37*
G36*
X291530Y1373517D02*
X291530Y1373517D01*
X291596Y1373519D01*
X291639Y1373537D01*
X291686Y1373545D01*
X291743Y1373579D01*
X291803Y1373604D01*
X291838Y1373635D01*
X291879Y1373660D01*
X291921Y1373711D01*
X291969Y1373755D01*
X291991Y1373797D01*
X292020Y1373834D01*
X292041Y1373896D01*
X292072Y1373955D01*
X292080Y1374009D01*
X292092Y1374046D01*
X292091Y1374086D01*
X292099Y1374140D01*
X292099Y1376680D01*
X292088Y1376745D01*
X292086Y1376811D01*
X292068Y1376854D01*
X292060Y1376901D01*
X292026Y1376958D01*
X292001Y1377018D01*
X291970Y1377053D01*
X291945Y1377094D01*
X291894Y1377136D01*
X291850Y1377184D01*
X291808Y1377206D01*
X291771Y1377235D01*
X291709Y1377256D01*
X291650Y1377287D01*
X291596Y1377295D01*
X291559Y1377307D01*
X291519Y1377306D01*
X291465Y1377314D01*
X287655Y1377314D01*
X287590Y1377303D01*
X287524Y1377301D01*
X287481Y1377283D01*
X287434Y1377275D01*
X287377Y1377241D01*
X287317Y1377216D01*
X287282Y1377185D01*
X287241Y1377160D01*
X287200Y1377109D01*
X287151Y1377065D01*
X287129Y1377023D01*
X287100Y1376986D01*
X287079Y1376924D01*
X287048Y1376865D01*
X287040Y1376811D01*
X287028Y1376774D01*
X287028Y1376771D01*
X287029Y1376734D01*
X287021Y1376680D01*
X287021Y1374140D01*
X287032Y1374075D01*
X287034Y1374009D01*
X287052Y1373966D01*
X287060Y1373919D01*
X287094Y1373862D01*
X287119Y1373802D01*
X287150Y1373767D01*
X287175Y1373726D01*
X287226Y1373685D01*
X287270Y1373636D01*
X287312Y1373614D01*
X287349Y1373585D01*
X287411Y1373564D01*
X287470Y1373533D01*
X287524Y1373525D01*
X287561Y1373513D01*
X287601Y1373514D01*
X287655Y1373506D01*
X291465Y1373506D01*
X291530Y1373517D01*
G37*
G36*
X32450Y1373517D02*
X32450Y1373517D01*
X32516Y1373519D01*
X32559Y1373537D01*
X32606Y1373545D01*
X32663Y1373579D01*
X32723Y1373604D01*
X32758Y1373635D01*
X32799Y1373660D01*
X32841Y1373711D01*
X32889Y1373755D01*
X32911Y1373797D01*
X32940Y1373834D01*
X32961Y1373896D01*
X32992Y1373955D01*
X33000Y1374009D01*
X33012Y1374046D01*
X33011Y1374086D01*
X33019Y1374140D01*
X33019Y1376680D01*
X33008Y1376745D01*
X33006Y1376811D01*
X32988Y1376854D01*
X32980Y1376901D01*
X32946Y1376958D01*
X32921Y1377018D01*
X32890Y1377053D01*
X32865Y1377094D01*
X32814Y1377136D01*
X32770Y1377184D01*
X32728Y1377206D01*
X32691Y1377235D01*
X32629Y1377256D01*
X32570Y1377287D01*
X32516Y1377295D01*
X32479Y1377307D01*
X32439Y1377306D01*
X32385Y1377314D01*
X28575Y1377314D01*
X28510Y1377303D01*
X28444Y1377301D01*
X28401Y1377283D01*
X28354Y1377275D01*
X28297Y1377241D01*
X28237Y1377216D01*
X28202Y1377185D01*
X28161Y1377160D01*
X28120Y1377109D01*
X28071Y1377065D01*
X28049Y1377023D01*
X28020Y1376986D01*
X27999Y1376924D01*
X27968Y1376865D01*
X27960Y1376811D01*
X27948Y1376774D01*
X27948Y1376771D01*
X27949Y1376734D01*
X27941Y1376680D01*
X27941Y1374140D01*
X27952Y1374075D01*
X27954Y1374009D01*
X27972Y1373966D01*
X27980Y1373919D01*
X28014Y1373862D01*
X28039Y1373802D01*
X28070Y1373767D01*
X28095Y1373726D01*
X28146Y1373685D01*
X28190Y1373636D01*
X28232Y1373614D01*
X28269Y1373585D01*
X28331Y1373564D01*
X28390Y1373533D01*
X28444Y1373525D01*
X28481Y1373513D01*
X28521Y1373514D01*
X28575Y1373506D01*
X32385Y1373506D01*
X32450Y1373517D01*
G37*
G36*
X809690Y1373517D02*
X809690Y1373517D01*
X809756Y1373519D01*
X809799Y1373537D01*
X809846Y1373545D01*
X809903Y1373579D01*
X809963Y1373604D01*
X809998Y1373635D01*
X810039Y1373660D01*
X810081Y1373711D01*
X810129Y1373755D01*
X810151Y1373797D01*
X810180Y1373834D01*
X810201Y1373896D01*
X810232Y1373955D01*
X810240Y1374009D01*
X810252Y1374046D01*
X810251Y1374086D01*
X810259Y1374140D01*
X810259Y1376680D01*
X810248Y1376745D01*
X810246Y1376811D01*
X810228Y1376854D01*
X810220Y1376901D01*
X810186Y1376958D01*
X810161Y1377018D01*
X810130Y1377053D01*
X810105Y1377094D01*
X810054Y1377136D01*
X810010Y1377184D01*
X809968Y1377206D01*
X809931Y1377235D01*
X809869Y1377256D01*
X809810Y1377287D01*
X809756Y1377295D01*
X809719Y1377307D01*
X809679Y1377306D01*
X809625Y1377314D01*
X805815Y1377314D01*
X805750Y1377303D01*
X805684Y1377301D01*
X805641Y1377283D01*
X805594Y1377275D01*
X805537Y1377241D01*
X805477Y1377216D01*
X805442Y1377185D01*
X805401Y1377160D01*
X805360Y1377109D01*
X805311Y1377065D01*
X805289Y1377023D01*
X805260Y1376986D01*
X805239Y1376924D01*
X805208Y1376865D01*
X805200Y1376811D01*
X805188Y1376774D01*
X805188Y1376771D01*
X805189Y1376734D01*
X805181Y1376680D01*
X805181Y1374140D01*
X805192Y1374075D01*
X805194Y1374009D01*
X805212Y1373966D01*
X805220Y1373919D01*
X805254Y1373862D01*
X805279Y1373802D01*
X805310Y1373767D01*
X805335Y1373726D01*
X805386Y1373685D01*
X805430Y1373636D01*
X805472Y1373614D01*
X805509Y1373585D01*
X805571Y1373564D01*
X805630Y1373533D01*
X805684Y1373525D01*
X805721Y1373513D01*
X805761Y1373514D01*
X805815Y1373506D01*
X809625Y1373506D01*
X809690Y1373517D01*
G37*
G36*
X809690Y855357D02*
X809690Y855357D01*
X809756Y855359D01*
X809799Y855377D01*
X809846Y855385D01*
X809903Y855419D01*
X809963Y855444D01*
X809998Y855475D01*
X810039Y855500D01*
X810081Y855551D01*
X810129Y855595D01*
X810151Y855637D01*
X810180Y855674D01*
X810201Y855736D01*
X810232Y855795D01*
X810240Y855849D01*
X810252Y855886D01*
X810251Y855926D01*
X810259Y855980D01*
X810259Y858520D01*
X810248Y858585D01*
X810246Y858651D01*
X810228Y858694D01*
X810220Y858741D01*
X810186Y858798D01*
X810161Y858858D01*
X810130Y858893D01*
X810105Y858934D01*
X810054Y858976D01*
X810010Y859024D01*
X809968Y859046D01*
X809931Y859075D01*
X809869Y859096D01*
X809810Y859127D01*
X809756Y859135D01*
X809719Y859147D01*
X809679Y859146D01*
X809625Y859154D01*
X805815Y859154D01*
X805750Y859143D01*
X805684Y859141D01*
X805641Y859123D01*
X805594Y859115D01*
X805537Y859081D01*
X805477Y859056D01*
X805442Y859025D01*
X805401Y859000D01*
X805360Y858949D01*
X805311Y858905D01*
X805289Y858863D01*
X805260Y858826D01*
X805239Y858764D01*
X805208Y858705D01*
X805200Y858651D01*
X805188Y858614D01*
X805188Y858611D01*
X805189Y858574D01*
X805181Y858520D01*
X805181Y855980D01*
X805192Y855915D01*
X805194Y855849D01*
X805212Y855806D01*
X805220Y855759D01*
X805254Y855702D01*
X805279Y855642D01*
X805310Y855607D01*
X805335Y855566D01*
X805386Y855525D01*
X805430Y855476D01*
X805472Y855454D01*
X805509Y855425D01*
X805571Y855404D01*
X805630Y855373D01*
X805684Y855365D01*
X805721Y855353D01*
X805761Y855354D01*
X805815Y855346D01*
X809625Y855346D01*
X809690Y855357D01*
G37*
G36*
X550610Y855357D02*
X550610Y855357D01*
X550676Y855359D01*
X550719Y855377D01*
X550766Y855385D01*
X550823Y855419D01*
X550883Y855444D01*
X550918Y855475D01*
X550959Y855500D01*
X551001Y855551D01*
X551049Y855595D01*
X551071Y855637D01*
X551100Y855674D01*
X551121Y855736D01*
X551152Y855795D01*
X551160Y855849D01*
X551172Y855886D01*
X551171Y855926D01*
X551179Y855980D01*
X551179Y858520D01*
X551168Y858585D01*
X551166Y858651D01*
X551148Y858694D01*
X551140Y858741D01*
X551106Y858798D01*
X551081Y858858D01*
X551050Y858893D01*
X551025Y858934D01*
X550974Y858976D01*
X550930Y859024D01*
X550888Y859046D01*
X550851Y859075D01*
X550789Y859096D01*
X550730Y859127D01*
X550676Y859135D01*
X550639Y859147D01*
X550599Y859146D01*
X550545Y859154D01*
X546735Y859154D01*
X546670Y859143D01*
X546604Y859141D01*
X546561Y859123D01*
X546514Y859115D01*
X546457Y859081D01*
X546397Y859056D01*
X546362Y859025D01*
X546321Y859000D01*
X546280Y858949D01*
X546231Y858905D01*
X546209Y858863D01*
X546180Y858826D01*
X546159Y858764D01*
X546128Y858705D01*
X546120Y858651D01*
X546108Y858614D01*
X546108Y858611D01*
X546109Y858574D01*
X546101Y858520D01*
X546101Y855980D01*
X546112Y855915D01*
X546114Y855849D01*
X546132Y855806D01*
X546140Y855759D01*
X546174Y855702D01*
X546199Y855642D01*
X546230Y855607D01*
X546255Y855566D01*
X546306Y855525D01*
X546350Y855476D01*
X546392Y855454D01*
X546429Y855425D01*
X546491Y855404D01*
X546550Y855373D01*
X546604Y855365D01*
X546641Y855353D01*
X546681Y855354D01*
X546735Y855346D01*
X550545Y855346D01*
X550610Y855357D01*
G37*
G36*
X291530Y855357D02*
X291530Y855357D01*
X291596Y855359D01*
X291639Y855377D01*
X291686Y855385D01*
X291743Y855419D01*
X291803Y855444D01*
X291838Y855475D01*
X291879Y855500D01*
X291921Y855551D01*
X291969Y855595D01*
X291991Y855637D01*
X292020Y855674D01*
X292041Y855736D01*
X292072Y855795D01*
X292080Y855849D01*
X292092Y855886D01*
X292091Y855926D01*
X292099Y855980D01*
X292099Y858520D01*
X292088Y858585D01*
X292086Y858651D01*
X292068Y858694D01*
X292060Y858741D01*
X292026Y858798D01*
X292001Y858858D01*
X291970Y858893D01*
X291945Y858934D01*
X291894Y858976D01*
X291850Y859024D01*
X291808Y859046D01*
X291771Y859075D01*
X291709Y859096D01*
X291650Y859127D01*
X291596Y859135D01*
X291559Y859147D01*
X291519Y859146D01*
X291465Y859154D01*
X287655Y859154D01*
X287590Y859143D01*
X287524Y859141D01*
X287481Y859123D01*
X287434Y859115D01*
X287377Y859081D01*
X287317Y859056D01*
X287282Y859025D01*
X287241Y859000D01*
X287200Y858949D01*
X287151Y858905D01*
X287129Y858863D01*
X287100Y858826D01*
X287079Y858764D01*
X287048Y858705D01*
X287040Y858651D01*
X287028Y858614D01*
X287028Y858611D01*
X287029Y858574D01*
X287021Y858520D01*
X287021Y855980D01*
X287032Y855915D01*
X287034Y855849D01*
X287052Y855806D01*
X287060Y855759D01*
X287094Y855702D01*
X287119Y855642D01*
X287150Y855607D01*
X287175Y855566D01*
X287226Y855525D01*
X287270Y855476D01*
X287312Y855454D01*
X287349Y855425D01*
X287411Y855404D01*
X287470Y855373D01*
X287524Y855365D01*
X287561Y855353D01*
X287601Y855354D01*
X287655Y855346D01*
X291465Y855346D01*
X291530Y855357D01*
G37*
G36*
X32450Y855357D02*
X32450Y855357D01*
X32516Y855359D01*
X32559Y855377D01*
X32606Y855385D01*
X32663Y855419D01*
X32723Y855444D01*
X32758Y855475D01*
X32799Y855500D01*
X32841Y855551D01*
X32889Y855595D01*
X32911Y855637D01*
X32940Y855674D01*
X32961Y855736D01*
X32992Y855795D01*
X33000Y855849D01*
X33012Y855886D01*
X33011Y855926D01*
X33019Y855980D01*
X33019Y858520D01*
X33008Y858585D01*
X33006Y858651D01*
X32988Y858694D01*
X32980Y858741D01*
X32946Y858798D01*
X32921Y858858D01*
X32890Y858893D01*
X32865Y858934D01*
X32814Y858976D01*
X32770Y859024D01*
X32728Y859046D01*
X32691Y859075D01*
X32629Y859096D01*
X32570Y859127D01*
X32516Y859135D01*
X32479Y859147D01*
X32439Y859146D01*
X32385Y859154D01*
X28575Y859154D01*
X28510Y859143D01*
X28444Y859141D01*
X28401Y859123D01*
X28354Y859115D01*
X28297Y859081D01*
X28237Y859056D01*
X28202Y859025D01*
X28161Y859000D01*
X28120Y858949D01*
X28071Y858905D01*
X28049Y858863D01*
X28020Y858826D01*
X27999Y858764D01*
X27968Y858705D01*
X27960Y858651D01*
X27948Y858614D01*
X27948Y858611D01*
X27949Y858574D01*
X27941Y858520D01*
X27941Y855980D01*
X27952Y855915D01*
X27954Y855849D01*
X27972Y855806D01*
X27980Y855759D01*
X28014Y855702D01*
X28039Y855642D01*
X28070Y855607D01*
X28095Y855566D01*
X28146Y855525D01*
X28190Y855476D01*
X28232Y855454D01*
X28269Y855425D01*
X28331Y855404D01*
X28390Y855373D01*
X28444Y855365D01*
X28481Y855353D01*
X28521Y855354D01*
X28575Y855346D01*
X32385Y855346D01*
X32450Y855357D01*
G37*
G36*
X291530Y337197D02*
X291530Y337197D01*
X291596Y337199D01*
X291639Y337217D01*
X291686Y337225D01*
X291743Y337259D01*
X291803Y337284D01*
X291838Y337315D01*
X291879Y337340D01*
X291921Y337391D01*
X291969Y337435D01*
X291991Y337477D01*
X292020Y337514D01*
X292041Y337576D01*
X292072Y337635D01*
X292080Y337689D01*
X292092Y337726D01*
X292091Y337766D01*
X292099Y337820D01*
X292099Y340360D01*
X292088Y340425D01*
X292086Y340491D01*
X292068Y340534D01*
X292060Y340581D01*
X292026Y340638D01*
X292001Y340698D01*
X291970Y340733D01*
X291945Y340774D01*
X291894Y340816D01*
X291850Y340864D01*
X291808Y340886D01*
X291771Y340915D01*
X291709Y340936D01*
X291650Y340967D01*
X291596Y340975D01*
X291559Y340987D01*
X291519Y340986D01*
X291465Y340994D01*
X287655Y340994D01*
X287590Y340983D01*
X287524Y340981D01*
X287481Y340963D01*
X287434Y340955D01*
X287377Y340921D01*
X287317Y340896D01*
X287282Y340865D01*
X287241Y340840D01*
X287200Y340789D01*
X287151Y340745D01*
X287129Y340703D01*
X287100Y340666D01*
X287079Y340604D01*
X287048Y340545D01*
X287040Y340491D01*
X287028Y340454D01*
X287028Y340451D01*
X287029Y340414D01*
X287021Y340360D01*
X287021Y337820D01*
X287032Y337755D01*
X287034Y337689D01*
X287052Y337646D01*
X287060Y337599D01*
X287094Y337542D01*
X287119Y337482D01*
X287150Y337447D01*
X287175Y337406D01*
X287226Y337365D01*
X287270Y337316D01*
X287312Y337294D01*
X287349Y337265D01*
X287411Y337244D01*
X287470Y337213D01*
X287524Y337205D01*
X287561Y337193D01*
X287601Y337194D01*
X287655Y337186D01*
X291465Y337186D01*
X291530Y337197D01*
G37*
G36*
X809690Y337197D02*
X809690Y337197D01*
X809756Y337199D01*
X809799Y337217D01*
X809846Y337225D01*
X809903Y337259D01*
X809963Y337284D01*
X809998Y337315D01*
X810039Y337340D01*
X810081Y337391D01*
X810129Y337435D01*
X810151Y337477D01*
X810180Y337514D01*
X810201Y337576D01*
X810232Y337635D01*
X810240Y337689D01*
X810252Y337726D01*
X810251Y337766D01*
X810259Y337820D01*
X810259Y340360D01*
X810248Y340425D01*
X810246Y340491D01*
X810228Y340534D01*
X810220Y340581D01*
X810186Y340638D01*
X810161Y340698D01*
X810130Y340733D01*
X810105Y340774D01*
X810054Y340816D01*
X810010Y340864D01*
X809968Y340886D01*
X809931Y340915D01*
X809869Y340936D01*
X809810Y340967D01*
X809756Y340975D01*
X809719Y340987D01*
X809679Y340986D01*
X809625Y340994D01*
X805815Y340994D01*
X805750Y340983D01*
X805684Y340981D01*
X805641Y340963D01*
X805594Y340955D01*
X805537Y340921D01*
X805477Y340896D01*
X805442Y340865D01*
X805401Y340840D01*
X805360Y340789D01*
X805311Y340745D01*
X805289Y340703D01*
X805260Y340666D01*
X805239Y340604D01*
X805208Y340545D01*
X805200Y340491D01*
X805188Y340454D01*
X805188Y340451D01*
X805189Y340414D01*
X805181Y340360D01*
X805181Y337820D01*
X805192Y337755D01*
X805194Y337689D01*
X805212Y337646D01*
X805220Y337599D01*
X805254Y337542D01*
X805279Y337482D01*
X805310Y337447D01*
X805335Y337406D01*
X805386Y337365D01*
X805430Y337316D01*
X805472Y337294D01*
X805509Y337265D01*
X805571Y337244D01*
X805630Y337213D01*
X805684Y337205D01*
X805721Y337193D01*
X805761Y337194D01*
X805815Y337186D01*
X809625Y337186D01*
X809690Y337197D01*
G37*
G36*
X550610Y337197D02*
X550610Y337197D01*
X550676Y337199D01*
X550719Y337217D01*
X550766Y337225D01*
X550823Y337259D01*
X550883Y337284D01*
X550918Y337315D01*
X550959Y337340D01*
X551001Y337391D01*
X551049Y337435D01*
X551071Y337477D01*
X551100Y337514D01*
X551121Y337576D01*
X551152Y337635D01*
X551160Y337689D01*
X551172Y337726D01*
X551171Y337766D01*
X551179Y337820D01*
X551179Y340360D01*
X551168Y340425D01*
X551166Y340491D01*
X551148Y340534D01*
X551140Y340581D01*
X551106Y340638D01*
X551081Y340698D01*
X551050Y340733D01*
X551025Y340774D01*
X550974Y340816D01*
X550930Y340864D01*
X550888Y340886D01*
X550851Y340915D01*
X550789Y340936D01*
X550730Y340967D01*
X550676Y340975D01*
X550639Y340987D01*
X550599Y340986D01*
X550545Y340994D01*
X546735Y340994D01*
X546670Y340983D01*
X546604Y340981D01*
X546561Y340963D01*
X546514Y340955D01*
X546457Y340921D01*
X546397Y340896D01*
X546362Y340865D01*
X546321Y340840D01*
X546280Y340789D01*
X546231Y340745D01*
X546209Y340703D01*
X546180Y340666D01*
X546159Y340604D01*
X546128Y340545D01*
X546120Y340491D01*
X546108Y340454D01*
X546108Y340451D01*
X546109Y340414D01*
X546101Y340360D01*
X546101Y337820D01*
X546112Y337755D01*
X546114Y337689D01*
X546132Y337646D01*
X546140Y337599D01*
X546174Y337542D01*
X546199Y337482D01*
X546230Y337447D01*
X546255Y337406D01*
X546306Y337365D01*
X546350Y337316D01*
X546392Y337294D01*
X546429Y337265D01*
X546491Y337244D01*
X546550Y337213D01*
X546604Y337205D01*
X546641Y337193D01*
X546681Y337194D01*
X546735Y337186D01*
X550545Y337186D01*
X550610Y337197D01*
G37*
G36*
X32450Y337197D02*
X32450Y337197D01*
X32516Y337199D01*
X32559Y337217D01*
X32606Y337225D01*
X32663Y337259D01*
X32723Y337284D01*
X32758Y337315D01*
X32799Y337340D01*
X32841Y337391D01*
X32889Y337435D01*
X32911Y337477D01*
X32940Y337514D01*
X32961Y337576D01*
X32992Y337635D01*
X33000Y337689D01*
X33012Y337726D01*
X33011Y337766D01*
X33019Y337820D01*
X33019Y340360D01*
X33008Y340425D01*
X33006Y340491D01*
X32988Y340534D01*
X32980Y340581D01*
X32946Y340638D01*
X32921Y340698D01*
X32890Y340733D01*
X32865Y340774D01*
X32814Y340816D01*
X32770Y340864D01*
X32728Y340886D01*
X32691Y340915D01*
X32629Y340936D01*
X32570Y340967D01*
X32516Y340975D01*
X32479Y340987D01*
X32439Y340986D01*
X32385Y340994D01*
X28575Y340994D01*
X28510Y340983D01*
X28444Y340981D01*
X28401Y340963D01*
X28354Y340955D01*
X28297Y340921D01*
X28237Y340896D01*
X28202Y340865D01*
X28161Y340840D01*
X28120Y340789D01*
X28071Y340745D01*
X28049Y340703D01*
X28020Y340666D01*
X27999Y340604D01*
X27968Y340545D01*
X27960Y340491D01*
X27948Y340454D01*
X27948Y340451D01*
X27949Y340414D01*
X27941Y340360D01*
X27941Y337820D01*
X27952Y337755D01*
X27954Y337689D01*
X27972Y337646D01*
X27980Y337599D01*
X28014Y337542D01*
X28039Y337482D01*
X28070Y337447D01*
X28095Y337406D01*
X28146Y337365D01*
X28190Y337316D01*
X28232Y337294D01*
X28269Y337265D01*
X28331Y337244D01*
X28390Y337213D01*
X28444Y337205D01*
X28481Y337193D01*
X28521Y337194D01*
X28575Y337186D01*
X32385Y337186D01*
X32450Y337197D01*
G37*
G36*
X550610Y596277D02*
X550610Y596277D01*
X550676Y596279D01*
X550719Y596297D01*
X550766Y596305D01*
X550823Y596339D01*
X550883Y596364D01*
X550918Y596395D01*
X550959Y596420D01*
X551001Y596471D01*
X551049Y596515D01*
X551071Y596557D01*
X551100Y596594D01*
X551121Y596656D01*
X551152Y596715D01*
X551160Y596769D01*
X551172Y596806D01*
X551171Y596846D01*
X551179Y596900D01*
X551179Y599440D01*
X551168Y599505D01*
X551166Y599571D01*
X551148Y599614D01*
X551140Y599661D01*
X551106Y599718D01*
X551081Y599778D01*
X551050Y599813D01*
X551025Y599854D01*
X550974Y599896D01*
X550930Y599944D01*
X550888Y599966D01*
X550851Y599995D01*
X550789Y600016D01*
X550730Y600047D01*
X550676Y600055D01*
X550639Y600067D01*
X550599Y600066D01*
X550545Y600074D01*
X546735Y600074D01*
X546670Y600063D01*
X546604Y600061D01*
X546561Y600043D01*
X546514Y600035D01*
X546457Y600001D01*
X546397Y599976D01*
X546362Y599945D01*
X546321Y599920D01*
X546280Y599869D01*
X546231Y599825D01*
X546209Y599783D01*
X546180Y599746D01*
X546159Y599684D01*
X546128Y599625D01*
X546120Y599571D01*
X546108Y599534D01*
X546108Y599531D01*
X546109Y599494D01*
X546101Y599440D01*
X546101Y596900D01*
X546112Y596835D01*
X546114Y596769D01*
X546132Y596726D01*
X546140Y596679D01*
X546174Y596622D01*
X546199Y596562D01*
X546230Y596527D01*
X546255Y596486D01*
X546306Y596445D01*
X546350Y596396D01*
X546392Y596374D01*
X546429Y596345D01*
X546491Y596324D01*
X546550Y596293D01*
X546604Y596285D01*
X546641Y596273D01*
X546681Y596274D01*
X546735Y596266D01*
X550545Y596266D01*
X550610Y596277D01*
G37*
G36*
X291530Y596277D02*
X291530Y596277D01*
X291596Y596279D01*
X291639Y596297D01*
X291686Y596305D01*
X291743Y596339D01*
X291803Y596364D01*
X291838Y596395D01*
X291879Y596420D01*
X291921Y596471D01*
X291969Y596515D01*
X291991Y596557D01*
X292020Y596594D01*
X292041Y596656D01*
X292072Y596715D01*
X292080Y596769D01*
X292092Y596806D01*
X292091Y596846D01*
X292099Y596900D01*
X292099Y599440D01*
X292088Y599505D01*
X292086Y599571D01*
X292068Y599614D01*
X292060Y599661D01*
X292026Y599718D01*
X292001Y599778D01*
X291970Y599813D01*
X291945Y599854D01*
X291894Y599896D01*
X291850Y599944D01*
X291808Y599966D01*
X291771Y599995D01*
X291709Y600016D01*
X291650Y600047D01*
X291596Y600055D01*
X291559Y600067D01*
X291519Y600066D01*
X291465Y600074D01*
X287655Y600074D01*
X287590Y600063D01*
X287524Y600061D01*
X287481Y600043D01*
X287434Y600035D01*
X287377Y600001D01*
X287317Y599976D01*
X287282Y599945D01*
X287241Y599920D01*
X287200Y599869D01*
X287151Y599825D01*
X287129Y599783D01*
X287100Y599746D01*
X287079Y599684D01*
X287048Y599625D01*
X287040Y599571D01*
X287028Y599534D01*
X287028Y599531D01*
X287029Y599494D01*
X287021Y599440D01*
X287021Y596900D01*
X287032Y596835D01*
X287034Y596769D01*
X287052Y596726D01*
X287060Y596679D01*
X287094Y596622D01*
X287119Y596562D01*
X287150Y596527D01*
X287175Y596486D01*
X287226Y596445D01*
X287270Y596396D01*
X287312Y596374D01*
X287349Y596345D01*
X287411Y596324D01*
X287470Y596293D01*
X287524Y596285D01*
X287561Y596273D01*
X287601Y596274D01*
X287655Y596266D01*
X291465Y596266D01*
X291530Y596277D01*
G37*
G36*
X32450Y596277D02*
X32450Y596277D01*
X32516Y596279D01*
X32559Y596297D01*
X32606Y596305D01*
X32663Y596339D01*
X32723Y596364D01*
X32758Y596395D01*
X32799Y596420D01*
X32841Y596471D01*
X32889Y596515D01*
X32911Y596557D01*
X32940Y596594D01*
X32961Y596656D01*
X32992Y596715D01*
X33000Y596769D01*
X33012Y596806D01*
X33011Y596846D01*
X33019Y596900D01*
X33019Y599440D01*
X33008Y599505D01*
X33006Y599571D01*
X32988Y599614D01*
X32980Y599661D01*
X32946Y599718D01*
X32921Y599778D01*
X32890Y599813D01*
X32865Y599854D01*
X32814Y599896D01*
X32770Y599944D01*
X32728Y599966D01*
X32691Y599995D01*
X32629Y600016D01*
X32570Y600047D01*
X32516Y600055D01*
X32479Y600067D01*
X32439Y600066D01*
X32385Y600074D01*
X28575Y600074D01*
X28510Y600063D01*
X28444Y600061D01*
X28401Y600043D01*
X28354Y600035D01*
X28297Y600001D01*
X28237Y599976D01*
X28202Y599945D01*
X28161Y599920D01*
X28120Y599869D01*
X28071Y599825D01*
X28049Y599783D01*
X28020Y599746D01*
X27999Y599684D01*
X27968Y599625D01*
X27960Y599571D01*
X27948Y599534D01*
X27948Y599531D01*
X27949Y599494D01*
X27941Y599440D01*
X27941Y596900D01*
X27952Y596835D01*
X27954Y596769D01*
X27972Y596726D01*
X27980Y596679D01*
X28014Y596622D01*
X28039Y596562D01*
X28070Y596527D01*
X28095Y596486D01*
X28146Y596445D01*
X28190Y596396D01*
X28232Y596374D01*
X28269Y596345D01*
X28331Y596324D01*
X28390Y596293D01*
X28444Y596285D01*
X28481Y596273D01*
X28521Y596274D01*
X28575Y596266D01*
X32385Y596266D01*
X32450Y596277D01*
G37*
G36*
X809690Y596277D02*
X809690Y596277D01*
X809756Y596279D01*
X809799Y596297D01*
X809846Y596305D01*
X809903Y596339D01*
X809963Y596364D01*
X809998Y596395D01*
X810039Y596420D01*
X810081Y596471D01*
X810129Y596515D01*
X810151Y596557D01*
X810180Y596594D01*
X810201Y596656D01*
X810232Y596715D01*
X810240Y596769D01*
X810252Y596806D01*
X810251Y596846D01*
X810259Y596900D01*
X810259Y599440D01*
X810248Y599505D01*
X810246Y599571D01*
X810228Y599614D01*
X810220Y599661D01*
X810186Y599718D01*
X810161Y599778D01*
X810130Y599813D01*
X810105Y599854D01*
X810054Y599896D01*
X810010Y599944D01*
X809968Y599966D01*
X809931Y599995D01*
X809869Y600016D01*
X809810Y600047D01*
X809756Y600055D01*
X809719Y600067D01*
X809679Y600066D01*
X809625Y600074D01*
X805815Y600074D01*
X805750Y600063D01*
X805684Y600061D01*
X805641Y600043D01*
X805594Y600035D01*
X805537Y600001D01*
X805477Y599976D01*
X805442Y599945D01*
X805401Y599920D01*
X805360Y599869D01*
X805311Y599825D01*
X805289Y599783D01*
X805260Y599746D01*
X805239Y599684D01*
X805208Y599625D01*
X805200Y599571D01*
X805188Y599534D01*
X805188Y599531D01*
X805189Y599494D01*
X805181Y599440D01*
X805181Y596900D01*
X805192Y596835D01*
X805194Y596769D01*
X805212Y596726D01*
X805220Y596679D01*
X805254Y596622D01*
X805279Y596562D01*
X805310Y596527D01*
X805335Y596486D01*
X805386Y596445D01*
X805430Y596396D01*
X805472Y596374D01*
X805509Y596345D01*
X805571Y596324D01*
X805630Y596293D01*
X805684Y596285D01*
X805721Y596273D01*
X805761Y596274D01*
X805815Y596266D01*
X809625Y596266D01*
X809690Y596277D01*
G37*
G36*
X809690Y1114437D02*
X809690Y1114437D01*
X809756Y1114439D01*
X809799Y1114457D01*
X809846Y1114465D01*
X809903Y1114499D01*
X809963Y1114524D01*
X809998Y1114555D01*
X810039Y1114580D01*
X810081Y1114631D01*
X810129Y1114675D01*
X810151Y1114717D01*
X810180Y1114754D01*
X810201Y1114816D01*
X810232Y1114875D01*
X810240Y1114929D01*
X810252Y1114966D01*
X810251Y1115006D01*
X810259Y1115060D01*
X810259Y1117600D01*
X810248Y1117665D01*
X810246Y1117731D01*
X810228Y1117774D01*
X810220Y1117821D01*
X810186Y1117878D01*
X810161Y1117938D01*
X810130Y1117973D01*
X810105Y1118014D01*
X810054Y1118056D01*
X810010Y1118104D01*
X809968Y1118126D01*
X809931Y1118155D01*
X809869Y1118176D01*
X809810Y1118207D01*
X809756Y1118215D01*
X809719Y1118227D01*
X809679Y1118226D01*
X809625Y1118234D01*
X805815Y1118234D01*
X805750Y1118223D01*
X805684Y1118221D01*
X805641Y1118203D01*
X805594Y1118195D01*
X805537Y1118161D01*
X805477Y1118136D01*
X805442Y1118105D01*
X805401Y1118080D01*
X805360Y1118029D01*
X805311Y1117985D01*
X805289Y1117943D01*
X805260Y1117906D01*
X805239Y1117844D01*
X805208Y1117785D01*
X805200Y1117731D01*
X805188Y1117694D01*
X805188Y1117691D01*
X805189Y1117654D01*
X805181Y1117600D01*
X805181Y1115060D01*
X805192Y1114995D01*
X805194Y1114929D01*
X805212Y1114886D01*
X805220Y1114839D01*
X805254Y1114782D01*
X805279Y1114722D01*
X805310Y1114687D01*
X805335Y1114646D01*
X805386Y1114605D01*
X805430Y1114556D01*
X805472Y1114534D01*
X805509Y1114505D01*
X805571Y1114484D01*
X805630Y1114453D01*
X805684Y1114445D01*
X805721Y1114433D01*
X805761Y1114434D01*
X805815Y1114426D01*
X809625Y1114426D01*
X809690Y1114437D01*
G37*
G36*
X291530Y1114437D02*
X291530Y1114437D01*
X291596Y1114439D01*
X291639Y1114457D01*
X291686Y1114465D01*
X291743Y1114499D01*
X291803Y1114524D01*
X291838Y1114555D01*
X291879Y1114580D01*
X291921Y1114631D01*
X291969Y1114675D01*
X291991Y1114717D01*
X292020Y1114754D01*
X292041Y1114816D01*
X292072Y1114875D01*
X292080Y1114929D01*
X292092Y1114966D01*
X292091Y1115006D01*
X292099Y1115060D01*
X292099Y1117600D01*
X292088Y1117665D01*
X292086Y1117731D01*
X292068Y1117774D01*
X292060Y1117821D01*
X292026Y1117878D01*
X292001Y1117938D01*
X291970Y1117973D01*
X291945Y1118014D01*
X291894Y1118056D01*
X291850Y1118104D01*
X291808Y1118126D01*
X291771Y1118155D01*
X291709Y1118176D01*
X291650Y1118207D01*
X291596Y1118215D01*
X291559Y1118227D01*
X291519Y1118226D01*
X291465Y1118234D01*
X287655Y1118234D01*
X287590Y1118223D01*
X287524Y1118221D01*
X287481Y1118203D01*
X287434Y1118195D01*
X287377Y1118161D01*
X287317Y1118136D01*
X287282Y1118105D01*
X287241Y1118080D01*
X287200Y1118029D01*
X287151Y1117985D01*
X287129Y1117943D01*
X287100Y1117906D01*
X287079Y1117844D01*
X287048Y1117785D01*
X287040Y1117731D01*
X287028Y1117694D01*
X287028Y1117691D01*
X287029Y1117654D01*
X287021Y1117600D01*
X287021Y1115060D01*
X287032Y1114995D01*
X287034Y1114929D01*
X287052Y1114886D01*
X287060Y1114839D01*
X287094Y1114782D01*
X287119Y1114722D01*
X287150Y1114687D01*
X287175Y1114646D01*
X287226Y1114605D01*
X287270Y1114556D01*
X287312Y1114534D01*
X287349Y1114505D01*
X287411Y1114484D01*
X287470Y1114453D01*
X287524Y1114445D01*
X287561Y1114433D01*
X287601Y1114434D01*
X287655Y1114426D01*
X291465Y1114426D01*
X291530Y1114437D01*
G37*
G36*
X32450Y1114437D02*
X32450Y1114437D01*
X32516Y1114439D01*
X32559Y1114457D01*
X32606Y1114465D01*
X32663Y1114499D01*
X32723Y1114524D01*
X32758Y1114555D01*
X32799Y1114580D01*
X32841Y1114631D01*
X32889Y1114675D01*
X32911Y1114717D01*
X32940Y1114754D01*
X32961Y1114816D01*
X32992Y1114875D01*
X33000Y1114929D01*
X33012Y1114966D01*
X33011Y1115006D01*
X33019Y1115060D01*
X33019Y1117600D01*
X33008Y1117665D01*
X33006Y1117731D01*
X32988Y1117774D01*
X32980Y1117821D01*
X32946Y1117878D01*
X32921Y1117938D01*
X32890Y1117973D01*
X32865Y1118014D01*
X32814Y1118056D01*
X32770Y1118104D01*
X32728Y1118126D01*
X32691Y1118155D01*
X32629Y1118176D01*
X32570Y1118207D01*
X32516Y1118215D01*
X32479Y1118227D01*
X32439Y1118226D01*
X32385Y1118234D01*
X28575Y1118234D01*
X28510Y1118223D01*
X28444Y1118221D01*
X28401Y1118203D01*
X28354Y1118195D01*
X28297Y1118161D01*
X28237Y1118136D01*
X28202Y1118105D01*
X28161Y1118080D01*
X28120Y1118029D01*
X28071Y1117985D01*
X28049Y1117943D01*
X28020Y1117906D01*
X27999Y1117844D01*
X27968Y1117785D01*
X27960Y1117731D01*
X27948Y1117694D01*
X27948Y1117691D01*
X27949Y1117654D01*
X27941Y1117600D01*
X27941Y1115060D01*
X27952Y1114995D01*
X27954Y1114929D01*
X27972Y1114886D01*
X27980Y1114839D01*
X28014Y1114782D01*
X28039Y1114722D01*
X28070Y1114687D01*
X28095Y1114646D01*
X28146Y1114605D01*
X28190Y1114556D01*
X28232Y1114534D01*
X28269Y1114505D01*
X28331Y1114484D01*
X28390Y1114453D01*
X28444Y1114445D01*
X28481Y1114433D01*
X28521Y1114434D01*
X28575Y1114426D01*
X32385Y1114426D01*
X32450Y1114437D01*
G37*
G36*
X550610Y1114437D02*
X550610Y1114437D01*
X550676Y1114439D01*
X550719Y1114457D01*
X550766Y1114465D01*
X550823Y1114499D01*
X550883Y1114524D01*
X550918Y1114555D01*
X550959Y1114580D01*
X551001Y1114631D01*
X551049Y1114675D01*
X551071Y1114717D01*
X551100Y1114754D01*
X551121Y1114816D01*
X551152Y1114875D01*
X551160Y1114929D01*
X551172Y1114966D01*
X551171Y1115006D01*
X551179Y1115060D01*
X551179Y1117600D01*
X551168Y1117665D01*
X551166Y1117731D01*
X551148Y1117774D01*
X551140Y1117821D01*
X551106Y1117878D01*
X551081Y1117938D01*
X551050Y1117973D01*
X551025Y1118014D01*
X550974Y1118056D01*
X550930Y1118104D01*
X550888Y1118126D01*
X550851Y1118155D01*
X550789Y1118176D01*
X550730Y1118207D01*
X550676Y1118215D01*
X550639Y1118227D01*
X550599Y1118226D01*
X550545Y1118234D01*
X546735Y1118234D01*
X546670Y1118223D01*
X546604Y1118221D01*
X546561Y1118203D01*
X546514Y1118195D01*
X546457Y1118161D01*
X546397Y1118136D01*
X546362Y1118105D01*
X546321Y1118080D01*
X546280Y1118029D01*
X546231Y1117985D01*
X546209Y1117943D01*
X546180Y1117906D01*
X546159Y1117844D01*
X546128Y1117785D01*
X546120Y1117731D01*
X546108Y1117694D01*
X546108Y1117691D01*
X546109Y1117654D01*
X546101Y1117600D01*
X546101Y1115060D01*
X546112Y1114995D01*
X546114Y1114929D01*
X546132Y1114886D01*
X546140Y1114839D01*
X546174Y1114782D01*
X546199Y1114722D01*
X546230Y1114687D01*
X546255Y1114646D01*
X546306Y1114605D01*
X546350Y1114556D01*
X546392Y1114534D01*
X546429Y1114505D01*
X546491Y1114484D01*
X546550Y1114453D01*
X546604Y1114445D01*
X546641Y1114433D01*
X546681Y1114434D01*
X546735Y1114426D01*
X550545Y1114426D01*
X550610Y1114437D01*
G37*
G36*
X550610Y78117D02*
X550610Y78117D01*
X550676Y78119D01*
X550719Y78137D01*
X550766Y78145D01*
X550823Y78179D01*
X550883Y78204D01*
X550918Y78235D01*
X550959Y78260D01*
X551001Y78311D01*
X551049Y78355D01*
X551071Y78397D01*
X551100Y78434D01*
X551121Y78496D01*
X551152Y78555D01*
X551160Y78609D01*
X551172Y78646D01*
X551171Y78686D01*
X551179Y78740D01*
X551179Y81280D01*
X551168Y81345D01*
X551166Y81411D01*
X551148Y81454D01*
X551140Y81501D01*
X551106Y81558D01*
X551081Y81618D01*
X551050Y81653D01*
X551025Y81694D01*
X550974Y81736D01*
X550930Y81784D01*
X550888Y81806D01*
X550851Y81835D01*
X550789Y81856D01*
X550730Y81887D01*
X550676Y81895D01*
X550639Y81907D01*
X550599Y81906D01*
X550545Y81914D01*
X546735Y81914D01*
X546670Y81903D01*
X546604Y81901D01*
X546561Y81883D01*
X546514Y81875D01*
X546457Y81841D01*
X546397Y81816D01*
X546362Y81785D01*
X546321Y81760D01*
X546280Y81709D01*
X546231Y81665D01*
X546209Y81623D01*
X546180Y81586D01*
X546159Y81524D01*
X546128Y81465D01*
X546120Y81411D01*
X546108Y81374D01*
X546108Y81371D01*
X546109Y81334D01*
X546101Y81280D01*
X546101Y78740D01*
X546112Y78675D01*
X546114Y78609D01*
X546132Y78566D01*
X546140Y78519D01*
X546174Y78462D01*
X546199Y78402D01*
X546230Y78367D01*
X546255Y78326D01*
X546306Y78285D01*
X546350Y78236D01*
X546392Y78214D01*
X546429Y78185D01*
X546491Y78164D01*
X546550Y78133D01*
X546604Y78125D01*
X546641Y78113D01*
X546681Y78114D01*
X546735Y78106D01*
X550545Y78106D01*
X550610Y78117D01*
G37*
G36*
X809690Y78117D02*
X809690Y78117D01*
X809756Y78119D01*
X809799Y78137D01*
X809846Y78145D01*
X809903Y78179D01*
X809963Y78204D01*
X809998Y78235D01*
X810039Y78260D01*
X810081Y78311D01*
X810129Y78355D01*
X810151Y78397D01*
X810180Y78434D01*
X810201Y78496D01*
X810232Y78555D01*
X810240Y78609D01*
X810252Y78646D01*
X810251Y78686D01*
X810259Y78740D01*
X810259Y81280D01*
X810248Y81345D01*
X810246Y81411D01*
X810228Y81454D01*
X810220Y81501D01*
X810186Y81558D01*
X810161Y81618D01*
X810130Y81653D01*
X810105Y81694D01*
X810054Y81736D01*
X810010Y81784D01*
X809968Y81806D01*
X809931Y81835D01*
X809869Y81856D01*
X809810Y81887D01*
X809756Y81895D01*
X809719Y81907D01*
X809679Y81906D01*
X809625Y81914D01*
X805815Y81914D01*
X805750Y81903D01*
X805684Y81901D01*
X805641Y81883D01*
X805594Y81875D01*
X805537Y81841D01*
X805477Y81816D01*
X805442Y81785D01*
X805401Y81760D01*
X805360Y81709D01*
X805311Y81665D01*
X805289Y81623D01*
X805260Y81586D01*
X805239Y81524D01*
X805208Y81465D01*
X805200Y81411D01*
X805188Y81374D01*
X805188Y81371D01*
X805189Y81334D01*
X805181Y81280D01*
X805181Y78740D01*
X805192Y78675D01*
X805194Y78609D01*
X805212Y78566D01*
X805220Y78519D01*
X805254Y78462D01*
X805279Y78402D01*
X805310Y78367D01*
X805335Y78326D01*
X805386Y78285D01*
X805430Y78236D01*
X805472Y78214D01*
X805509Y78185D01*
X805571Y78164D01*
X805630Y78133D01*
X805684Y78125D01*
X805721Y78113D01*
X805761Y78114D01*
X805815Y78106D01*
X809625Y78106D01*
X809690Y78117D01*
G37*
G36*
X291530Y78117D02*
X291530Y78117D01*
X291596Y78119D01*
X291639Y78137D01*
X291686Y78145D01*
X291743Y78179D01*
X291803Y78204D01*
X291838Y78235D01*
X291879Y78260D01*
X291921Y78311D01*
X291969Y78355D01*
X291991Y78397D01*
X292020Y78434D01*
X292041Y78496D01*
X292072Y78555D01*
X292080Y78609D01*
X292092Y78646D01*
X292091Y78686D01*
X292099Y78740D01*
X292099Y81280D01*
X292088Y81345D01*
X292086Y81411D01*
X292068Y81454D01*
X292060Y81501D01*
X292026Y81558D01*
X292001Y81618D01*
X291970Y81653D01*
X291945Y81694D01*
X291894Y81736D01*
X291850Y81784D01*
X291808Y81806D01*
X291771Y81835D01*
X291709Y81856D01*
X291650Y81887D01*
X291596Y81895D01*
X291559Y81907D01*
X291519Y81906D01*
X291465Y81914D01*
X287655Y81914D01*
X287590Y81903D01*
X287524Y81901D01*
X287481Y81883D01*
X287434Y81875D01*
X287377Y81841D01*
X287317Y81816D01*
X287282Y81785D01*
X287241Y81760D01*
X287200Y81709D01*
X287151Y81665D01*
X287129Y81623D01*
X287100Y81586D01*
X287079Y81524D01*
X287048Y81465D01*
X287040Y81411D01*
X287028Y81374D01*
X287028Y81371D01*
X287029Y81334D01*
X287021Y81280D01*
X287021Y78740D01*
X287032Y78675D01*
X287034Y78609D01*
X287052Y78566D01*
X287060Y78519D01*
X287094Y78462D01*
X287119Y78402D01*
X287150Y78367D01*
X287175Y78326D01*
X287226Y78285D01*
X287270Y78236D01*
X287312Y78214D01*
X287349Y78185D01*
X287411Y78164D01*
X287470Y78133D01*
X287524Y78125D01*
X287561Y78113D01*
X287601Y78114D01*
X287655Y78106D01*
X291465Y78106D01*
X291530Y78117D01*
G37*
G36*
X32450Y78117D02*
X32450Y78117D01*
X32516Y78119D01*
X32559Y78137D01*
X32606Y78145D01*
X32663Y78179D01*
X32723Y78204D01*
X32758Y78235D01*
X32799Y78260D01*
X32841Y78311D01*
X32889Y78355D01*
X32911Y78397D01*
X32940Y78434D01*
X32961Y78496D01*
X32992Y78555D01*
X33000Y78609D01*
X33012Y78646D01*
X33011Y78686D01*
X33019Y78740D01*
X33019Y81280D01*
X33008Y81345D01*
X33006Y81411D01*
X32988Y81454D01*
X32980Y81501D01*
X32946Y81558D01*
X32921Y81618D01*
X32890Y81653D01*
X32865Y81694D01*
X32814Y81736D01*
X32770Y81784D01*
X32728Y81806D01*
X32691Y81835D01*
X32629Y81856D01*
X32570Y81887D01*
X32516Y81895D01*
X32479Y81907D01*
X32439Y81906D01*
X32385Y81914D01*
X28575Y81914D01*
X28510Y81903D01*
X28444Y81901D01*
X28401Y81883D01*
X28354Y81875D01*
X28297Y81841D01*
X28237Y81816D01*
X28202Y81785D01*
X28161Y81760D01*
X28120Y81709D01*
X28071Y81665D01*
X28049Y81623D01*
X28020Y81586D01*
X27999Y81524D01*
X27968Y81465D01*
X27960Y81411D01*
X27948Y81374D01*
X27948Y81371D01*
X27949Y81334D01*
X27941Y81280D01*
X27941Y78740D01*
X27952Y78675D01*
X27954Y78609D01*
X27972Y78566D01*
X27980Y78519D01*
X28014Y78462D01*
X28039Y78402D01*
X28070Y78367D01*
X28095Y78326D01*
X28146Y78285D01*
X28190Y78236D01*
X28232Y78214D01*
X28269Y78185D01*
X28331Y78164D01*
X28390Y78133D01*
X28444Y78125D01*
X28481Y78113D01*
X28521Y78114D01*
X28575Y78106D01*
X32385Y78106D01*
X32450Y78117D01*
G37*
D10*
X25400Y228600D03*
X228600Y228600D03*
D11*
X47498Y184404D03*
X47498Y173990D03*
X47498Y163576D03*
D12*
X139700Y241300D03*
X114300Y241300D03*
D13*
X245110Y8890D03*
X7620Y246380D03*
D12*
X63500Y12700D03*
X88900Y12700D03*
X114300Y12700D03*
X139700Y12700D03*
D10*
X25400Y25400D03*
X228600Y25400D03*
D14*
X238760Y77724D03*
X238760Y69596D03*
D15*
X25273Y80010D03*
X35687Y80010D03*
D12*
X190500Y12700D03*
X165100Y12700D03*
D10*
X284480Y228600D03*
X487680Y228600D03*
D11*
X306578Y184404D03*
X306578Y173990D03*
X306578Y163576D03*
D12*
X398780Y241300D03*
X373380Y241300D03*
D13*
X504190Y8890D03*
X266700Y246380D03*
D12*
X322580Y12700D03*
X347980Y12700D03*
X373380Y12700D03*
X398780Y12700D03*
D10*
X284480Y25400D03*
X487680Y25400D03*
D14*
X497840Y77724D03*
X497840Y69596D03*
D15*
X284353Y80010D03*
X294767Y80010D03*
D12*
X449580Y12700D03*
X424180Y12700D03*
D10*
X543560Y228600D03*
X746760Y228600D03*
D11*
X565658Y184404D03*
X565658Y173990D03*
X565658Y163576D03*
D12*
X657860Y241300D03*
X632460Y241300D03*
D13*
X763270Y8890D03*
X525780Y246380D03*
D12*
X581660Y12700D03*
X607060Y12700D03*
X632460Y12700D03*
X657860Y12700D03*
D10*
X543560Y25400D03*
X746760Y25400D03*
D14*
X756920Y77724D03*
X756920Y69596D03*
D15*
X543433Y80010D03*
X553847Y80010D03*
D12*
X708660Y12700D03*
X683260Y12700D03*
D10*
X802640Y228600D03*
X1005840Y228600D03*
D11*
X824738Y184404D03*
X824738Y173990D03*
X824738Y163576D03*
D12*
X916940Y241300D03*
X891540Y241300D03*
D13*
X1022350Y8890D03*
X784860Y246380D03*
D12*
X840740Y12700D03*
X866140Y12700D03*
X891540Y12700D03*
X916940Y12700D03*
D10*
X802640Y25400D03*
X1005840Y25400D03*
D14*
X1016000Y77724D03*
X1016000Y69596D03*
D15*
X802513Y80010D03*
X812927Y80010D03*
D12*
X967740Y12700D03*
X942340Y12700D03*
D10*
X25400Y487680D03*
X228600Y487680D03*
D11*
X47498Y443484D03*
X47498Y433070D03*
X47498Y422656D03*
D12*
X139700Y500380D03*
X114300Y500380D03*
D13*
X245110Y267970D03*
X7620Y505460D03*
D12*
X63500Y271780D03*
X88900Y271780D03*
X114300Y271780D03*
X139700Y271780D03*
D10*
X25400Y284480D03*
X228600Y284480D03*
D14*
X238760Y336804D03*
X238760Y328676D03*
D15*
X25273Y339090D03*
X35687Y339090D03*
D12*
X190500Y271780D03*
X165100Y271780D03*
D10*
X284480Y487680D03*
X487680Y487680D03*
D11*
X306578Y443484D03*
X306578Y433070D03*
X306578Y422656D03*
D12*
X398780Y500380D03*
X373380Y500380D03*
D13*
X504190Y267970D03*
X266700Y505460D03*
D12*
X322580Y271780D03*
X347980Y271780D03*
X373380Y271780D03*
X398780Y271780D03*
D10*
X284480Y284480D03*
X487680Y284480D03*
D14*
X497840Y336804D03*
X497840Y328676D03*
D15*
X284353Y339090D03*
X294767Y339090D03*
D12*
X449580Y271780D03*
X424180Y271780D03*
D10*
X543560Y487680D03*
X746760Y487680D03*
D11*
X565658Y443484D03*
X565658Y433070D03*
X565658Y422656D03*
D12*
X657860Y500380D03*
X632460Y500380D03*
D13*
X763270Y267970D03*
X525780Y505460D03*
D12*
X581660Y271780D03*
X607060Y271780D03*
X632460Y271780D03*
X657860Y271780D03*
D10*
X543560Y284480D03*
X746760Y284480D03*
D14*
X756920Y336804D03*
X756920Y328676D03*
D15*
X543433Y339090D03*
X553847Y339090D03*
D12*
X708660Y271780D03*
X683260Y271780D03*
D10*
X802640Y487680D03*
X1005840Y487680D03*
D11*
X824738Y443484D03*
X824738Y433070D03*
X824738Y422656D03*
D12*
X916940Y500380D03*
X891540Y500380D03*
D13*
X1022350Y267970D03*
X784860Y505460D03*
D12*
X840740Y271780D03*
X866140Y271780D03*
X891540Y271780D03*
X916940Y271780D03*
D10*
X802640Y284480D03*
X1005840Y284480D03*
D14*
X1016000Y336804D03*
X1016000Y328676D03*
D15*
X802513Y339090D03*
X812927Y339090D03*
D12*
X967740Y271780D03*
X942340Y271780D03*
D10*
X25400Y746760D03*
X228600Y746760D03*
D11*
X47498Y702564D03*
X47498Y692150D03*
X47498Y681736D03*
D12*
X139700Y759460D03*
X114300Y759460D03*
D13*
X245110Y527050D03*
X7620Y764540D03*
D12*
X63500Y530860D03*
X88900Y530860D03*
X114300Y530860D03*
X139700Y530860D03*
D10*
X25400Y543560D03*
X228600Y543560D03*
D14*
X238760Y595884D03*
X238760Y587756D03*
D15*
X25273Y598170D03*
X35687Y598170D03*
D12*
X190500Y530860D03*
X165100Y530860D03*
D10*
X284480Y746760D03*
X487680Y746760D03*
D11*
X306578Y702564D03*
X306578Y692150D03*
X306578Y681736D03*
D12*
X398780Y759460D03*
X373380Y759460D03*
D13*
X504190Y527050D03*
X266700Y764540D03*
D12*
X322580Y530860D03*
X347980Y530860D03*
X373380Y530860D03*
X398780Y530860D03*
D10*
X284480Y543560D03*
X487680Y543560D03*
D14*
X497840Y595884D03*
X497840Y587756D03*
D15*
X284353Y598170D03*
X294767Y598170D03*
D12*
X449580Y530860D03*
X424180Y530860D03*
D10*
X543560Y746760D03*
X746760Y746760D03*
D11*
X565658Y702564D03*
X565658Y692150D03*
X565658Y681736D03*
D12*
X657860Y759460D03*
X632460Y759460D03*
D13*
X763270Y527050D03*
X525780Y764540D03*
D12*
X581660Y530860D03*
X607060Y530860D03*
X632460Y530860D03*
X657860Y530860D03*
D10*
X543560Y543560D03*
X746760Y543560D03*
D14*
X756920Y595884D03*
X756920Y587756D03*
D15*
X543433Y598170D03*
X553847Y598170D03*
D12*
X708660Y530860D03*
X683260Y530860D03*
D10*
X802640Y746760D03*
X1005840Y746760D03*
D11*
X824738Y702564D03*
X824738Y692150D03*
X824738Y681736D03*
D12*
X916940Y759460D03*
X891540Y759460D03*
D13*
X1022350Y527050D03*
X784860Y764540D03*
D12*
X840740Y530860D03*
X866140Y530860D03*
X891540Y530860D03*
X916940Y530860D03*
D10*
X802640Y543560D03*
X1005840Y543560D03*
D14*
X1016000Y595884D03*
X1016000Y587756D03*
D15*
X802513Y598170D03*
X812927Y598170D03*
D12*
X967740Y530860D03*
X942340Y530860D03*
D10*
X25400Y1005840D03*
X228600Y1005840D03*
D11*
X47498Y961644D03*
X47498Y951230D03*
X47498Y940816D03*
D12*
X139700Y1018540D03*
X114300Y1018540D03*
D13*
X245110Y786130D03*
X7620Y1023620D03*
D12*
X63500Y789940D03*
X88900Y789940D03*
X114300Y789940D03*
X139700Y789940D03*
D10*
X25400Y802640D03*
X228600Y802640D03*
D14*
X238760Y854964D03*
X238760Y846836D03*
D15*
X25273Y857250D03*
X35687Y857250D03*
D12*
X190500Y789940D03*
X165100Y789940D03*
D10*
X284480Y1005840D03*
X487680Y1005840D03*
D11*
X306578Y961644D03*
X306578Y951230D03*
X306578Y940816D03*
D12*
X398780Y1018540D03*
X373380Y1018540D03*
D13*
X504190Y786130D03*
X266700Y1023620D03*
D12*
X322580Y789940D03*
X347980Y789940D03*
X373380Y789940D03*
X398780Y789940D03*
D10*
X284480Y802640D03*
X487680Y802640D03*
D14*
X497840Y854964D03*
X497840Y846836D03*
D15*
X284353Y857250D03*
X294767Y857250D03*
D12*
X449580Y789940D03*
X424180Y789940D03*
D10*
X543560Y1005840D03*
X746760Y1005840D03*
D11*
X565658Y961644D03*
X565658Y951230D03*
X565658Y940816D03*
D12*
X657860Y1018540D03*
X632460Y1018540D03*
D13*
X763270Y786130D03*
X525780Y1023620D03*
D12*
X581660Y789940D03*
X607060Y789940D03*
X632460Y789940D03*
X657860Y789940D03*
D10*
X543560Y802640D03*
X746760Y802640D03*
D14*
X756920Y854964D03*
X756920Y846836D03*
D15*
X543433Y857250D03*
X553847Y857250D03*
D12*
X708660Y789940D03*
X683260Y789940D03*
D10*
X802640Y1005840D03*
X1005840Y1005840D03*
D11*
X824738Y961644D03*
X824738Y951230D03*
X824738Y940816D03*
D12*
X916940Y1018540D03*
X891540Y1018540D03*
D13*
X1022350Y786130D03*
X784860Y1023620D03*
D12*
X840740Y789940D03*
X866140Y789940D03*
X891540Y789940D03*
X916940Y789940D03*
D10*
X802640Y802640D03*
X1005840Y802640D03*
D14*
X1016000Y854964D03*
X1016000Y846836D03*
D15*
X802513Y857250D03*
X812927Y857250D03*
D12*
X967740Y789940D03*
X942340Y789940D03*
D10*
X25400Y1264920D03*
X228600Y1264920D03*
D11*
X47498Y1220724D03*
X47498Y1210310D03*
X47498Y1199896D03*
D12*
X139700Y1277620D03*
X114300Y1277620D03*
D13*
X245110Y1045210D03*
X7620Y1282700D03*
D12*
X63500Y1049020D03*
X88900Y1049020D03*
X114300Y1049020D03*
X139700Y1049020D03*
D10*
X25400Y1061720D03*
X228600Y1061720D03*
D14*
X238760Y1114044D03*
X238760Y1105916D03*
D15*
X25273Y1116330D03*
X35687Y1116330D03*
D12*
X190500Y1049020D03*
X165100Y1049020D03*
D10*
X284480Y1264920D03*
X487680Y1264920D03*
D11*
X306578Y1220724D03*
X306578Y1210310D03*
X306578Y1199896D03*
D12*
X398780Y1277620D03*
X373380Y1277620D03*
D13*
X504190Y1045210D03*
X266700Y1282700D03*
D12*
X322580Y1049020D03*
X347980Y1049020D03*
X373380Y1049020D03*
X398780Y1049020D03*
D10*
X284480Y1061720D03*
X487680Y1061720D03*
D14*
X497840Y1114044D03*
X497840Y1105916D03*
D15*
X284353Y1116330D03*
X294767Y1116330D03*
D12*
X449580Y1049020D03*
X424180Y1049020D03*
D10*
X543560Y1264920D03*
X746760Y1264920D03*
D11*
X565658Y1220724D03*
X565658Y1210310D03*
X565658Y1199896D03*
D12*
X657860Y1277620D03*
X632460Y1277620D03*
D13*
X763270Y1045210D03*
X525780Y1282700D03*
D12*
X581660Y1049020D03*
X607060Y1049020D03*
X632460Y1049020D03*
X657860Y1049020D03*
D10*
X543560Y1061720D03*
X746760Y1061720D03*
D14*
X756920Y1114044D03*
X756920Y1105916D03*
D15*
X543433Y1116330D03*
X553847Y1116330D03*
D12*
X708660Y1049020D03*
X683260Y1049020D03*
D10*
X802640Y1264920D03*
X1005840Y1264920D03*
D11*
X824738Y1220724D03*
X824738Y1210310D03*
X824738Y1199896D03*
D12*
X916940Y1277620D03*
X891540Y1277620D03*
D13*
X1022350Y1045210D03*
X784860Y1282700D03*
D12*
X840740Y1049020D03*
X866140Y1049020D03*
X891540Y1049020D03*
X916940Y1049020D03*
D10*
X802640Y1061720D03*
X1005840Y1061720D03*
D14*
X1016000Y1114044D03*
X1016000Y1105916D03*
D15*
X802513Y1116330D03*
X812927Y1116330D03*
D12*
X967740Y1049020D03*
X942340Y1049020D03*
D10*
X25400Y1524000D03*
X228600Y1524000D03*
D11*
X47498Y1479804D03*
X47498Y1469390D03*
X47498Y1458976D03*
D12*
X139700Y1536700D03*
X114300Y1536700D03*
D13*
X245110Y1304290D03*
X7620Y1541780D03*
D12*
X63500Y1308100D03*
X88900Y1308100D03*
X114300Y1308100D03*
X139700Y1308100D03*
D10*
X25400Y1320800D03*
X228600Y1320800D03*
D14*
X238760Y1373124D03*
X238760Y1364996D03*
D15*
X25273Y1375410D03*
X35687Y1375410D03*
D12*
X190500Y1308100D03*
X165100Y1308100D03*
D10*
X284480Y1524000D03*
X487680Y1524000D03*
D11*
X306578Y1479804D03*
X306578Y1469390D03*
X306578Y1458976D03*
D12*
X398780Y1536700D03*
X373380Y1536700D03*
D13*
X504190Y1304290D03*
X266700Y1541780D03*
D12*
X322580Y1308100D03*
X347980Y1308100D03*
X373380Y1308100D03*
X398780Y1308100D03*
D10*
X284480Y1320800D03*
X487680Y1320800D03*
D14*
X497840Y1373124D03*
X497840Y1364996D03*
D15*
X284353Y1375410D03*
X294767Y1375410D03*
D12*
X449580Y1308100D03*
X424180Y1308100D03*
D10*
X543560Y1524000D03*
X746760Y1524000D03*
D11*
X565658Y1479804D03*
X565658Y1469390D03*
X565658Y1458976D03*
D12*
X657860Y1536700D03*
X632460Y1536700D03*
D13*
X763270Y1304290D03*
X525780Y1541780D03*
D12*
X581660Y1308100D03*
X607060Y1308100D03*
X632460Y1308100D03*
X657860Y1308100D03*
D10*
X543560Y1320800D03*
X746760Y1320800D03*
D14*
X756920Y1373124D03*
X756920Y1364996D03*
D15*
X543433Y1375410D03*
X553847Y1375410D03*
D12*
X708660Y1308100D03*
X683260Y1308100D03*
D10*
X802640Y1524000D03*
X1005840Y1524000D03*
D11*
X824738Y1479804D03*
X824738Y1469390D03*
X824738Y1458976D03*
D12*
X916940Y1536700D03*
X891540Y1536700D03*
D13*
X1022350Y1304290D03*
X784860Y1541780D03*
D12*
X840740Y1308100D03*
X866140Y1308100D03*
X891540Y1308100D03*
X916940Y1308100D03*
D10*
X802640Y1320800D03*
X1005840Y1320800D03*
D14*
X1016000Y1373124D03*
X1016000Y1364996D03*
D15*
X802513Y1375410D03*
X812927Y1375410D03*
D12*
X967740Y1308100D03*
X942340Y1308100D03*
D16*
X68580Y1570355D03*
X962025Y1570355D03*
D17*
X59525Y-20955D02*
X59528Y-20733D01*
X59536Y-20511D01*
X59550Y-20289D01*
X59569Y-20067D01*
X59593Y-19847D01*
X59623Y-19626D01*
X59658Y-19407D01*
X59699Y-19188D01*
X59745Y-18971D01*
X59796Y-18755D01*
X59853Y-18540D01*
X59915Y-18326D01*
X59982Y-18115D01*
X60054Y-17904D01*
X60132Y-17696D01*
X60214Y-17490D01*
X60302Y-17286D01*
X60394Y-17083D01*
X60492Y-16884D01*
X60594Y-16687D01*
X60701Y-16492D01*
X60813Y-16300D01*
X60930Y-16111D01*
X61051Y-15924D01*
X61177Y-15741D01*
X61307Y-15561D01*
X61442Y-15384D01*
X61580Y-15211D01*
X61723Y-15041D01*
X61871Y-14874D01*
X62022Y-14711D01*
X62177Y-14552D01*
X62336Y-14397D01*
X62499Y-14246D01*
X62666Y-14098D01*
X62836Y-13955D01*
X63009Y-13817D01*
X63186Y-13682D01*
X63366Y-13552D01*
X63549Y-13426D01*
X63736Y-13305D01*
X63925Y-13188D01*
X64117Y-13076D01*
X64312Y-12969D01*
X64509Y-12867D01*
X64708Y-12769D01*
X64911Y-12677D01*
X65115Y-12589D01*
X65321Y-12507D01*
X65529Y-12429D01*
X65740Y-12357D01*
X65951Y-12290D01*
X66165Y-12228D01*
X66380Y-12171D01*
X66596Y-12120D01*
X66813Y-12074D01*
X67032Y-12033D01*
X67251Y-11998D01*
X67472Y-11968D01*
X67692Y-11944D01*
X67914Y-11925D01*
X68136Y-11911D01*
X68358Y-11903D01*
X68580Y-11900D01*
X68802Y-11903D01*
X69024Y-11911D01*
X69246Y-11925D01*
X69468Y-11944D01*
X69688Y-11968D01*
X69909Y-11998D01*
X70128Y-12033D01*
X70347Y-12074D01*
X70564Y-12120D01*
X70780Y-12171D01*
X70995Y-12228D01*
X71209Y-12290D01*
X71420Y-12357D01*
X71631Y-12429D01*
X71839Y-12507D01*
X72045Y-12589D01*
X72249Y-12677D01*
X72452Y-12769D01*
X72651Y-12867D01*
X72848Y-12969D01*
X73043Y-13076D01*
X73235Y-13188D01*
X73424Y-13305D01*
X73611Y-13426D01*
X73794Y-13552D01*
X73974Y-13682D01*
X74151Y-13817D01*
X74324Y-13955D01*
X74494Y-14098D01*
X74661Y-14246D01*
X74824Y-14397D01*
X74983Y-14552D01*
X75138Y-14711D01*
X75289Y-14874D01*
X75437Y-15041D01*
X75580Y-15211D01*
X75718Y-15384D01*
X75853Y-15561D01*
X75983Y-15741D01*
X76109Y-15924D01*
X76230Y-16111D01*
X76347Y-16300D01*
X76459Y-16492D01*
X76566Y-16687D01*
X76668Y-16884D01*
X76766Y-17083D01*
X76858Y-17286D01*
X76946Y-17490D01*
X77028Y-17696D01*
X77106Y-17904D01*
X77178Y-18115D01*
X77245Y-18326D01*
X77307Y-18540D01*
X77364Y-18755D01*
X77415Y-18971D01*
X77461Y-19188D01*
X77502Y-19407D01*
X77537Y-19626D01*
X77567Y-19847D01*
X77591Y-20067D01*
X77610Y-20289D01*
X77624Y-20511D01*
X77632Y-20733D01*
X77635Y-20955D01*
X77632Y-21177D01*
X77624Y-21399D01*
X77610Y-21621D01*
X77591Y-21843D01*
X77567Y-22063D01*
X77537Y-22284D01*
X77502Y-22503D01*
X77461Y-22722D01*
X77415Y-22939D01*
X77364Y-23155D01*
X77307Y-23370D01*
X77245Y-23584D01*
X77178Y-23795D01*
X77106Y-24006D01*
X77028Y-24214D01*
X76946Y-24420D01*
X76858Y-24624D01*
X76766Y-24827D01*
X76668Y-25026D01*
X76566Y-25223D01*
X76459Y-25418D01*
X76347Y-25610D01*
X76230Y-25799D01*
X76109Y-25986D01*
X75983Y-26169D01*
X75853Y-26349D01*
X75718Y-26526D01*
X75580Y-26699D01*
X75437Y-26869D01*
X75289Y-27036D01*
X75138Y-27199D01*
X74983Y-27358D01*
X74824Y-27513D01*
X74661Y-27664D01*
X74494Y-27812D01*
X74324Y-27955D01*
X74151Y-28093D01*
X73974Y-28228D01*
X73794Y-28358D01*
X73611Y-28484D01*
X73424Y-28605D01*
X73235Y-28722D01*
X73043Y-28834D01*
X72848Y-28941D01*
X72651Y-29043D01*
X72452Y-29141D01*
X72249Y-29233D01*
X72045Y-29321D01*
X71839Y-29403D01*
X71631Y-29481D01*
X71420Y-29553D01*
X71209Y-29620D01*
X70995Y-29682D01*
X70780Y-29739D01*
X70564Y-29790D01*
X70347Y-29836D01*
X70128Y-29877D01*
X69909Y-29912D01*
X69688Y-29942D01*
X69468Y-29966D01*
X69246Y-29985D01*
X69024Y-29999D01*
X68802Y-30007D01*
X68580Y-30010D01*
X68358Y-30007D01*
X68136Y-29999D01*
X67914Y-29985D01*
X67692Y-29966D01*
X67472Y-29942D01*
X67251Y-29912D01*
X67032Y-29877D01*
X66813Y-29836D01*
X66596Y-29790D01*
X66380Y-29739D01*
X66165Y-29682D01*
X65951Y-29620D01*
X65740Y-29553D01*
X65529Y-29481D01*
X65321Y-29403D01*
X65115Y-29321D01*
X64911Y-29233D01*
X64708Y-29141D01*
X64509Y-29043D01*
X64312Y-28941D01*
X64117Y-28834D01*
X63925Y-28722D01*
X63736Y-28605D01*
X63549Y-28484D01*
X63366Y-28358D01*
X63186Y-28228D01*
X63009Y-28093D01*
X62836Y-27955D01*
X62666Y-27812D01*
X62499Y-27664D01*
X62336Y-27513D01*
X62177Y-27358D01*
X62022Y-27199D01*
X61871Y-27036D01*
X61723Y-26869D01*
X61580Y-26699D01*
X61442Y-26526D01*
X61307Y-26349D01*
X61177Y-26169D01*
X61051Y-25986D01*
X60930Y-25799D01*
X60813Y-25610D01*
X60701Y-25418D01*
X60594Y-25223D01*
X60492Y-25026D01*
X60394Y-24827D01*
X60302Y-24624D01*
X60214Y-24420D01*
X60132Y-24214D01*
X60054Y-24006D01*
X59982Y-23795D01*
X59915Y-23584D01*
X59853Y-23370D01*
X59796Y-23155D01*
X59745Y-22939D01*
X59699Y-22722D01*
X59658Y-22503D01*
X59623Y-22284D01*
X59593Y-22063D01*
X59569Y-21843D01*
X59550Y-21621D01*
X59536Y-21399D01*
X59528Y-21177D01*
X59525Y-20955D01*
D18*
X68580Y-20955D03*
M02*
