M48
;GenerationSoftware,Autodesk,EAGLE,9.6.2*%
;CreationDate,2020-09-22T19:50:38Z*%
FMAT,2
ICI,OFF
METRIC,TZ,000.000
T3C0.381
T2C1.016
T1C3.302
%
G90
M71
T1
X2540Y54356
X80264Y132080
X2540Y22860
X22860Y22860
X2540Y2540
X22860Y2540
X28448Y22860
X48768Y22860
X28448Y2540
X48768Y2540
X54356Y22860
X74676Y22860
X54356Y2540
X74676Y2540
X80264Y22860
X100584Y22860
X80264Y2540
X100584Y2540
X2540Y48768
X22860Y48768
X2540Y28448
X22860Y28448
X28448Y48768
X48768Y48768
X28448Y28448
X48768Y28448
X54356Y48768
X74676Y48768
X54356Y28448
X74676Y28448
X80264Y48768
X100584Y48768
X80264Y28448
X100584Y28448
X2540Y74676
X22860Y74676
X28448Y106172
X22860Y54356
X28448Y74676
X48768Y74676
X28448Y54356
X48768Y54356
X54356Y74676
X74676Y74676
X54356Y54356
X74676Y54356
X80264Y74676
X100584Y74676
X80264Y54356
X100584Y54356
X2540Y100584
X22860Y100584
X2540Y80264
X22860Y80264
X28448Y100584
X48768Y100584
X28448Y80264
X48768Y80264
X54356Y100584
X74676Y100584
X54356Y80264
X74676Y80264
X80264Y100584
X100584Y100584
X80264Y80264
X100584Y80264
X2540Y126492
X22860Y126492
X2540Y106172
X22860Y106172
X28448Y126492
X48768Y126492
X100584Y132080
X48768Y106172
X54356Y126492
X74676Y126492
X54356Y106172
X74676Y106172
X80264Y126492
X100584Y126492
X80264Y106172
X100584Y106172
X2540Y152400
X22860Y152400
X2540Y132080
X22860Y132080
X28448Y152400
X48768Y152400
X28448Y132080
X48768Y132080
X54356Y152400
X74676Y152400
X54356Y132080
X74676Y132080
X80264Y152400
X100584Y152400
T2
X42418Y27178
X94234Y130810
X13970Y24130
X11430Y24130
X6350Y1270
X8890Y1270
X11430Y1270
X13970Y1270
X19050Y1270
X16510Y1270
X39878Y24130
X37338Y24130
X32258Y1270
X34798Y1270
X37338Y1270
X39878Y1270
X44958Y1270
X42418Y1270
X65786Y24130
X63246Y24130
X58166Y1270
X60706Y1270
X63246Y1270
X65786Y1270
X70866Y1270
X68326Y1270
X91694Y24130
X89154Y24130
X84074Y1270
X86614Y1270
X89154Y1270
X91694Y1270
X96774Y1270
X94234Y1270
X13970Y50038
X11430Y50038
X6350Y27178
X8890Y27178
X11430Y27178
X13970Y27178
X19050Y27178
X16510Y27178
X39878Y50038
X37338Y50038
X32258Y27178
X34798Y27178
X37338Y27178
X39878Y27178
X44958Y27178
X65786Y50038
X63246Y50038
X58166Y27178
X60706Y27178
X63246Y27178
X65786Y27178
X70866Y27178
X68326Y27178
X91694Y50038
X89154Y50038
X84074Y27178
X86614Y27178
X89154Y27178
X91694Y27178
X96774Y27178
X94234Y27178
X13970Y75946
X11430Y75946
X6350Y53086
X8890Y53086
X11430Y53086
X13970Y53086
X19050Y53086
X16510Y53086
X39878Y75946
X37338Y75946
X32258Y53086
X34798Y53086
X37338Y53086
X39878Y53086
X44958Y53086
X42418Y53086
X65786Y75946
X63246Y75946
X58166Y53086
X60706Y53086
X63246Y53086
X65786Y53086
X70866Y53086
X68326Y53086
X91694Y75946
X89154Y75946
X84074Y53086
X86614Y53086
X89154Y53086
X91694Y53086
X96774Y53086
X94234Y53086
X13970Y101854
X11430Y101854
X6350Y78994
X8890Y78994
X11430Y78994
X13970Y78994
X19050Y78994
X16510Y78994
X39878Y101854
X37338Y101854
X32258Y78994
X34798Y78994
X37338Y78994
X39878Y78994
X44958Y78994
X42418Y78994
X65786Y101854
X63246Y101854
X58166Y78994
X60706Y78994
X63246Y78994
X65786Y78994
X70866Y78994
X68326Y78994
X91694Y101854
X89154Y101854
X84074Y78994
X86614Y78994
X89154Y78994
X91694Y78994
X96774Y78994
X94234Y78994
X13970Y127762
X11430Y127762
X6350Y104902
X8890Y104902
X11430Y104902
X13970Y104902
X19050Y104902
X16510Y104902
X39878Y127762
X37338Y127762
X32258Y104902
X34798Y104902
X37338Y104902
X39878Y104902
X44958Y104902
X42418Y104902
X65786Y127762
X63246Y127762
X58166Y104902
X60706Y104902
X63246Y104902
X65786Y104902
X70866Y104902
X68326Y104902
X91694Y127762
X89154Y127762
X84074Y104902
X86614Y104902
X89154Y104902
X91694Y104902
X96774Y104902
X94234Y104902
X13970Y153670
X11430Y153670
X6350Y130810
X8890Y130810
X11430Y130810
X13970Y130810
X19050Y130810
X16510Y130810
X39878Y153670
X37338Y153670
X32258Y130810
X34798Y130810
X37338Y130810
X39878Y130810
X44958Y130810
X42418Y130810
X65786Y153670
X63246Y153670
X58166Y130810
X60706Y130810
X63246Y130810
X65786Y130810
X70866Y130810
X68326Y130810
X91694Y153670
X89154Y153670
X84074Y130810
X86614Y130810
X89154Y130810
X91694Y130810
X96774Y130810
T3
X18923Y64008
X18923Y58166
X6909Y66446
X6909Y57887
X11989Y61112
X9652Y61747
X13843Y64516
X12700Y65532
X11684Y64516
X12700Y63373
X10363Y73076
X15088Y73101
X22149Y63729
X4928Y66980
X15443Y59207
X12751Y58725
X10338Y57785
X7925Y60655
X9423Y64364
X16535Y66345
X16053Y63119
X14402Y70104
X15392Y57353
X19710Y60833
X9271Y65735
X17450Y66015
X16739Y65016
X12453Y70758
X13437Y70790
X6680Y71069
X2769Y71069
X14986Y56439
X13640Y61290
X24003Y57785
X11709Y68224
X4699Y58115
X44831Y64008
X44831Y58166
X32817Y66446
X32817Y57887
X37897Y61112
X35560Y61747
X39751Y64516
X38608Y65532
X37592Y64516
X38608Y63373
X36271Y73076
X40996Y73101
X48057Y63729
X30836Y66980
X41351Y59207
X38659Y58725
X36246Y57785
X33833Y60655
X35331Y64364
X42443Y66345
X41961Y63119
X40310Y70104
X41300Y57353
X45618Y60833
X35179Y65735
X43358Y66015
X42647Y65016
X38361Y70758
X39345Y70790
X32588Y71069
X28677Y71069
X40894Y56439
X39548Y61290
X49911Y57785
X37617Y68224
X30607Y58115
X70739Y64008
X70739Y58166
X58725Y66446
X58725Y57887
X63805Y61112
X61468Y61747
X65659Y64516
X64516Y65532
X63500Y64516
X64516Y63373
X62179Y73076
X66904Y73101
X73965Y63729
X56744Y66980
X67259Y59207
X64567Y58725
X62154Y57785
X59741Y60655
X61239Y64364
X68351Y66345
X67869Y63119
X66218Y70104
X67208Y57353
X71526Y60833
X61087Y65735
X69266Y66015
X68555Y65016
X64269Y70758
X65253Y70790
X58496Y71069
X54585Y71069
X66802Y56439
X65456Y61290
X75819Y57785
X63525Y68224
X56515Y58115
X96647Y64008
X96647Y58166
X84633Y66446
X84633Y57887
X89713Y61112
X87376Y61747
X91567Y64516
X90424Y65532
X89408Y64516
X90424Y63373
X88087Y73076
X92812Y73101
X99873Y63729
X82652Y66980
X93167Y59207
X90475Y58725
X88062Y57785
X85649Y60655
X87147Y64364
X94259Y66345
X93777Y63119
X92126Y70104
X93116Y57353
X97434Y60833
X86995Y65735
X95174Y66015
X94463Y65016
X90177Y70758
X91161Y70790
X84404Y71069
X80493Y71069
X92710Y56439
X91364Y61290
X101727Y57785
X89433Y68224
X82423Y58115
X18923Y89916
X18923Y84074
X6909Y92354
X6909Y83795
X11989Y87020
X9652Y87655
X13843Y90424
X12700Y91440
X11684Y90424
X12700Y89281
X10363Y98984
X15088Y99009
X22149Y89637
X4928Y92888
X15443Y85115
X12751Y84633
X10338Y83693
X7925Y86563
X9423Y90272
X16535Y92253
X16053Y89027
X14402Y96012
X15392Y83261
X19710Y86741
X9271Y91643
X17450Y91923
X16739Y90924
X12453Y96666
X13437Y96698
X6680Y96977
X2769Y96977
X14986Y82347
X13640Y87198
X24003Y83693
X11709Y94132
X4699Y84023
X44831Y89916
X44831Y84074
X32817Y92354
X32817Y83795
X37897Y87020
X35560Y87655
X39751Y90424
X38608Y91440
X37592Y90424
X38608Y89281
X36271Y98984
X40996Y99009
X48057Y89637
X30836Y92888
X41351Y85115
X38659Y84633
X36246Y83693
X33833Y86563
X35331Y90272
X42443Y92253
X41961Y89027
X40310Y96012
X41300Y83261
X45618Y86741
X35179Y91643
X43358Y91923
X42647Y90924
X38361Y96666
X39345Y96698
X32588Y96977
X28677Y96977
X40894Y82347
X39548Y87198
X49911Y83693
X37617Y94132
X30607Y84023
X70739Y89916
X70739Y84074
X58725Y92354
X58725Y83795
X63805Y87020
X61468Y87655
X65659Y90424
X64516Y91440
X63500Y90424
X64516Y89281
X62179Y98984
X66904Y99009
X73965Y89637
X56744Y92888
X67259Y85115
X64567Y84633
X62154Y83693
X59741Y86563
X61239Y90272
X68351Y92253
X67869Y89027
X66218Y96012
X67208Y83261
X71526Y86741
X61087Y91643
X69266Y91923
X68555Y90924
X64269Y96666
X65253Y96698
X58496Y96977
X54585Y96977
X66802Y82347
X65456Y87198
X75819Y83693
X63525Y94132
X56515Y84023
X96647Y89916
X96647Y84074
X84633Y92354
X84633Y83795
X89713Y87020
X87376Y87655
X91567Y90424
X90424Y91440
X89408Y90424
X90424Y89281
X88087Y98984
X92812Y99009
X99873Y89637
X82652Y92888
X93167Y85115
X90475Y84633
X88062Y83693
X85649Y86563
X87147Y90272
X94259Y92253
X93777Y89027
X92126Y96012
X93116Y83261
X97434Y86741
X86995Y91643
X95174Y91923
X94463Y90924
X90177Y96666
X91161Y96698
X84404Y96977
X80493Y96977
X92710Y82347
X91364Y87198
X101727Y83693
X89433Y94132
X82423Y84023
X18923Y38100
X18923Y109982
X6909Y118262
X6909Y109703
X11989Y112928
X9652Y113563
X13843Y116332
X12700Y117348
X11684Y116332
X12700Y115189
X10363Y124892
X15088Y124917
X22149Y115545
X4928Y118796
X15443Y111023
X12751Y110541
X10338Y109601
X7925Y112471
X9423Y116180
X16535Y118161
X16053Y114935
X14402Y121920
X15392Y109169
X19710Y112649
X9271Y117551
X17450Y117831
X16739Y116832
X12453Y122574
X13437Y122606
X6680Y122885
X2769Y122885
X14986Y108255
X13640Y113106
X24003Y109601
X11709Y120040
X4699Y109931
X44831Y115824
X44831Y109982
X32817Y118262
X32817Y109703
X37897Y112928
X35560Y113563
X39751Y116332
X38608Y117348
X37592Y116332
X38608Y115189
X36271Y124892
X40996Y124917
X48057Y115545
X30836Y118796
X41351Y111023
X38659Y110541
X36246Y109601
X33833Y112471
X35331Y116180
X42443Y118161
X41961Y114935
X40310Y121920
X41300Y109169
X45618Y112649
X35179Y117551
X43358Y117831
X42647Y116832
X38361Y122574
X39345Y122606
X32588Y122885
X28677Y122885
X40894Y108255
X39548Y113106
X49911Y109601
X37617Y120040
X30607Y109931
X70739Y115824
X70739Y109982
X58725Y118262
X58725Y109703
X63805Y112928
X61468Y113563
X65659Y116332
X64516Y117348
X63500Y116332
X64516Y115189
X62179Y124892
X66904Y124917
X73965Y115545
X56744Y118796
X67259Y111023
X64567Y110541
X62154Y109601
X59741Y112471
X61239Y116180
X68351Y118161
X67869Y114935
X66218Y121920
X67208Y109169
X71526Y112649
X61087Y117551
X69266Y117831
X68555Y116832
X64269Y122574
X65253Y122606
X58496Y122885
X54585Y122885
X66802Y108255
X65456Y113106
X75819Y109601
X63525Y120040
X56515Y109931
X96647Y115824
X96647Y109982
X84633Y118262
X84633Y109703
X89713Y112928
X87376Y113563
X91567Y116332
X90424Y117348
X89408Y116332
X90424Y115189
X88087Y124892
X92812Y124917
X99873Y115545
X82652Y118796
X93167Y111023
X90475Y110541
X88062Y109601
X85649Y112471
X87147Y116180
X94259Y118161
X93777Y114935
X92126Y121920
X93116Y109169
X97434Y112649
X86995Y117551
X95174Y117831
X94463Y116832
X90177Y122574
X91161Y122606
X84404Y122885
X80493Y122885
X92710Y108255
X91364Y113106
X101727Y109601
X89433Y120040
X82423Y109931
X18923Y141732
X18923Y135890
X6909Y144170
X6909Y135611
X11989Y138836
X9652Y139471
X13843Y142240
X12700Y143256
X11684Y142240
X12700Y141097
X10363Y150800
X15088Y150825
X22149Y141453
X4928Y144704
X15443Y136931
X12751Y136449
X10338Y135509
X7925Y138379
X9423Y142088
X16535Y144069
X16053Y140843
X14402Y147828
X15392Y135077
X19710Y138557
X9271Y143459
X17450Y143739
X16739Y142740
X12453Y148482
X13437Y148514
X6680Y148793
X2769Y148793
X14986Y134163
X13640Y139014
X24003Y135509
X11709Y145948
X4699Y135839
X44831Y141732
X44831Y135890
X32817Y144170
X32817Y135611
X37897Y138836
X35560Y139471
X39751Y142240
X38608Y143256
X37592Y142240
X38608Y141097
X36271Y150800
X40996Y150825
X48057Y141453
X30836Y144704
X41351Y136931
X38659Y136449
X36246Y135509
X33833Y138379
X35331Y142088
X42443Y144069
X41961Y140843
X40310Y147828
X41300Y135077
X45618Y138557
X35179Y143459
X43358Y143739
X42647Y142740
X38361Y148482
X39345Y148514
X32588Y148793
X28677Y148793
X40894Y134163
X39548Y139014
X49911Y135509
X37617Y145948
X30607Y135839
X70739Y141732
X70739Y135890
X58725Y144170
X58725Y135611
X63805Y138836
X61468Y139471
X65659Y142240
X64516Y143256
X63500Y142240
X64516Y141097
X62179Y150800
X66904Y150825
X73965Y141453
X56744Y144704
X67259Y136931
X64567Y136449
X62154Y135509
X59741Y138379
X61239Y142088
X68351Y144069
X67869Y140843
X66218Y147828
X67208Y135077
X71526Y138557
X61087Y143459
X69266Y143739
X68555Y142740
X64269Y148482
X65253Y148514
X58496Y148793
X54585Y148793
X66802Y134163
X65456Y139014
X75819Y135509
X63525Y145948
X56515Y135839
X96647Y141732
X96647Y135890
X84633Y144170
X84633Y135611
X89713Y138836
X87376Y139471
X91567Y142240
X90424Y143256
X89408Y142240
X90424Y141097
X88087Y150800
X92812Y150825
X99873Y141453
X82652Y144704
X93167Y136931
X90475Y136449
X88062Y135509
X85649Y138379
X87147Y142088
X94259Y144069
X93777Y140843
X92126Y147828
X93116Y135077
X97434Y138557
X86995Y143459
X95174Y143739
X94463Y142740
X90177Y148482
X91161Y148514
X84404Y148793
X80493Y148793
X92710Y134163
X91364Y139014
X101727Y135509
X89433Y145948
X18923Y12192
X18923Y6350
X6909Y14630
X6909Y6071
X11989Y9296
X9652Y9931
X13843Y12700
X12700Y13716
X11684Y12700
X12700Y11557
X10363Y21260
X15088Y21285
X22149Y11913
X4928Y15164
X15443Y7391
X12751Y6909
X10338Y5969
X7925Y8839
X9423Y12548
X16535Y14529
X16053Y11303
X14402Y18288
X15392Y5537
X19710Y9017
X9271Y13919
X17450Y14199
X16739Y13200
X12453Y18942
X13437Y18974
X6680Y19253
X2769Y19253
X14986Y4623
X13640Y9474
X24003Y5969
X11709Y16408
X4699Y6299
X44831Y12192
X44831Y6350
X32817Y14630
X32817Y6071
X37897Y9296
X35560Y9931
X39751Y12700
X38608Y13716
X37592Y12700
X38608Y11557
X36271Y21260
X40996Y21285
X48057Y11913
X30836Y15164
X41351Y7391
X38659Y6909
X36246Y5969
X33833Y8839
X35331Y12548
X42443Y14529
X41961Y11303
X40310Y18288
X41300Y5537
X45618Y9017
X35179Y13919
X43358Y14199
X42647Y13200
X38361Y18942
X39345Y18974
X32588Y19253
X28677Y19253
X40894Y4623
X39548Y9474
X49911Y5969
X37617Y16408
X30607Y6299
X70739Y12192
X70739Y6350
X58725Y14630
X58725Y6071
X63805Y9296
X61468Y9931
X65659Y12700
X64516Y13716
X63500Y12700
X64516Y11557
X62179Y21260
X66904Y21285
X73965Y11913
X56744Y15164
X67259Y7391
X64567Y6909
X62154Y5969
X59741Y8839
X61239Y12548
X68351Y14529
X67869Y11303
X66218Y18288
X67208Y5537
X71526Y9017
X61087Y13919
X69266Y14199
X68555Y13200
X64269Y18942
X65253Y18974
X58496Y19253
X54585Y19253
X66802Y4623
X65456Y9474
X75819Y5969
X63525Y16408
X56515Y6299
X96647Y12192
X96647Y6350
X84633Y14630
X84633Y6071
X89713Y9296
X87376Y9931
X91567Y12700
X90424Y13716
X89408Y12700
X90424Y11557
X88087Y21260
X92812Y21285
X99873Y11913
X82652Y15164
X93167Y7391
X90475Y6909
X88062Y5969
X85649Y8839
X87147Y12548
X94259Y14529
X93777Y11303
X92126Y18288
X93116Y5537
X97434Y9017
X86995Y13919
X95174Y14199
X94463Y13200
X90177Y18942
X91161Y18974
X84404Y19253
X80493Y19253
X92710Y4623
X91364Y9474
X101727Y5969
X89433Y16408
X82423Y6299
X18923Y115824
X18923Y32258
X6909Y40538
X6909Y31979
X11989Y35204
X9652Y35839
X13843Y38608
X12700Y39624
X11684Y38608
X12700Y37465
X10363Y47168
X15088Y47193
X22149Y37821
X4928Y41072
X15443Y33299
X12751Y32817
X10338Y31877
X7925Y34747
X9423Y38456
X16535Y40437
X16053Y37211
X14402Y44196
X15392Y31445
X19710Y34925
X9271Y39827
X17450Y40107
X16739Y39108
X12453Y44850
X13437Y44882
X6680Y45161
X2769Y45161
X14986Y30531
X13640Y35382
X24003Y31877
X11709Y42316
X4699Y32207
X44831Y38100
X44831Y32258
X32817Y40538
X32817Y31979
X37897Y35204
X35560Y35839
X39751Y38608
X38608Y39624
X37592Y38608
X38608Y37465
X36271Y47168
X40996Y47193
X48057Y37821
X30836Y41072
X41351Y33299
X38659Y32817
X36246Y31877
X33833Y34747
X35331Y38456
X42443Y40437
X41961Y37211
X40310Y44196
X41300Y31445
X45618Y34925
X35179Y39827
X43358Y40107
X42647Y39108
X38361Y44850
X39345Y44882
X32588Y45161
X28677Y45161
X40894Y30531
X39548Y35382
X49911Y31877
X37617Y42316
X30607Y32207
X70739Y38100
X70739Y32258
X58725Y40538
X58725Y31979
X63805Y35204
X61468Y35839
X65659Y38608
X64516Y39624
X63500Y38608
X64516Y37465
X62179Y47168
X66904Y47193
X73965Y37821
X56744Y41072
X67259Y33299
X64567Y32817
X62154Y31877
X59741Y34747
X61239Y38456
X68351Y40437
X67869Y37211
X66218Y44196
X67208Y31445
X71526Y34925
X61087Y39827
X69266Y40107
X68555Y39108
X64269Y44850
X65253Y44882
X58496Y45161
X54585Y45161
X66802Y30531
X65456Y35382
X75819Y31877
X63525Y42316
X56515Y32207
X96647Y38100
X96647Y32258
X84633Y40538
X84633Y31979
X89713Y35204
X87376Y35839
X91567Y38608
X90424Y39624
X89408Y38608
X90424Y37465
X88087Y47168
X92812Y47193
X99873Y37821
X82652Y41072
X93167Y33299
X90475Y32817
X88062Y31877
X85649Y34747
X87147Y38456
X94259Y40437
X93777Y37211
X92126Y44196
X93116Y31445
X97434Y34925
X86995Y39827
X95174Y40107
X94463Y39108
X90177Y44850
X91161Y44882
X84404Y45161
X80493Y45161
X92710Y30531
X91364Y35382
X101727Y31877
X89433Y42316
X82423Y32207
X82423Y135839
M30